STARTFONT 2.3
FONT -FontForge-Pacifico-Book-R-Normal--11-110-72-72-P-65-ISO10646-1
SIZE 11 72 72  4
FONTBOUNDINGBOX 26 22 -7 -5
COMMENT "Generated by fontforge, http://fontforge.sourceforge.net"
COMMENT "Copyright 2018 The Pacifico Project Authors (https://github.com/googlefonts/Pacifico)"
STARTPROPERTIES 41
FOUNDRY "FontForge"
FAMILY_NAME "Pacifico"
WEIGHT_NAME "Book"
SLANT "R"
SETWIDTH_NAME "Normal"
ADD_STYLE_NAME ""
PIXEL_SIZE 11
POINT_SIZE 110
RESOLUTION_X 72
RESOLUTION_Y 72
SPACING "P"
AVERAGE_WIDTH 65
CHARSET_REGISTRY "ISO10646"
CHARSET_ENCODING "1"
FONTNAME_REGISTRY ""
CHARSET_COLLECTIONS "ISO8859-2 ISO8859-5 ISO8859-9 ISO8859-4 ISO10646-1"
BITS_PER_PIXEL 4
FONT_NAME "Pacifico-Regular"
FACE_NAME "Pacifico Regular"
COPYRIGHT "Copyright 2018 The Pacifico Project Authors (https://github.com/googlefonts/Pacifico)"
FONT_VERSION "3.001"
FONT_ASCENT 9
FONT_DESCENT 2
UNDERLINE_POSITION -1
UNDERLINE_THICKNESS 1
X_HEIGHT 4
CAP_HEIGHT 8
DEFAULT_CHAR 1
RAW_ASCENT 800
RAW_DESCENT 200
NORM_SPACE 3
RELATIVE_WEIGHT 40
RELATIVE_SETWIDTH 50
SUPERSCRIPT_X 0
SUPERSCRIPT_Y 3
SUPERSCRIPT_SIZE 6
SUBSCRIPT_X 0
SUBSCRIPT_Y 0
SUBSCRIPT_SIZE 6
AVG_LOWERCASE_WIDTH 51
AVG_UPPERCASE_WIDTH 90
ENDPROPERTIES
CHARS 1514
STARTCHAR NULL.dup1
ENCODING 0
SWIDTH 0 0
DWIDTH 0 0
BBX 1 1 0 0
BITMAP
00
ENDCHAR
STARTCHAR nonmarkingreturn
ENCODING 13
SWIDTH 265 0
DWIDTH 3 0
BBX 1 1 0 0
BITMAP
00
ENDCHAR
STARTCHAR space
ENCODING 32
SWIDTH 265 0
DWIDTH 3 0
BBX 1 1 0 0
BITMAP
00
ENDCHAR
STARTCHAR exclam
ENCODING 33
SWIDTH 340 0
DWIDTH 4 0
BBX 4 9 0 0
BITMAP
007E
00DB
01F7
04F3
07D0
0A80
0410
6E30
6E30
ENDCHAR
STARTCHAR quotedbl
ENCODING 34
SWIDTH 510 0
DWIDTH 6 0
BBX 5 4 1 5
BITMAP
5E1D70
9F3F70
AC4F40
A84D10
ENDCHAR
STARTCHAR numbersign
ENCODING 35
SWIDTH 700 0
DWIDTH 8 0
BBX 8 7 0 0
BITMAP
00150330
007D0C80
1FFFFFF6
04F59D30
8FFFFFE0
1DA5F520
0C43C000
ENDCHAR
STARTCHAR dollar
ENCODING 36
SWIDTH 524 0
DWIDTH 6 0
BBX 6 9 0 -1
BITMAP
000B00
06EFB1
1F7AE4
0EC820
03DF80
5788F2
6EDBD0
05E710
00B000
ENDCHAR
STARTCHAR percent
ENCODING 37
SWIDTH 896 0
DWIDTH 10 0
BBX 10 8 0 0
BITMAP
09E8006900
5D7F26F500
6D3FEFB000
1BE83E2000
0000C75ED3
0007D1E4A9
002F41F4A9
007A008EB1
ENDCHAR
STARTCHAR ampersand
ENCODING 38
SWIDTH 851 0
DWIDTH 9 0
BBX 9 11 0 -1
BITMAP
002BEC1000
00BC4D8000
00F70B9000
00D95F4000
008FF70000
04EFB00160
2EA6F70AD0
7F109FBE30
5F736FF700
07DFD8DE20
0000001610
ENDCHAR
STARTCHAR quotesingle
ENCODING 39
SWIDTH 290 0
DWIDTH 3 0
BBX 3 4 1 5
BITMAP
5E10
9F10
AC00
A800
ENDCHAR
STARTCHAR parenleft
ENCODING 40
SWIDTH 613 0
DWIDTH 7 0
BBX 7 12 1 -2
BITMAP
0019EE90
01DD4490
09E10000
1F700000
6F200000
AC000000
DA000000
E8000000
E8000000
BC14D200
3EFE6000
00210000
ENDCHAR
STARTCHAR parenright
ENCODING 41
SWIDTH 613 0
DWIDTH 7 0
BBX 8 12 -1 -2
BITMAP
002BEC30
00D94BD0
001005F2
000005F3
000006F1
000008E0
00000DA0
00003F50
0000AD00
5318F400
9FFD5000
01200000
ENDCHAR
STARTCHAR asterisk
ENCODING 42
SWIDTH 520 0
DWIDTH 6 0
BBX 5 5 1 5
BITMAP
48A400
1BEB90
9BEB20
04B840
012000
ENDCHAR
STARTCHAR plus
ENCODING 43
SWIDTH 700 0
DWIDTH 8 0
BBX 6 7 1 0
BITMAP
001500
006C00
009A00
EFFFFC
23D831
00E500
00D200
ENDCHAR
STARTCHAR comma
ENCODING 44
SWIDTH 257 0
DWIDTH 3 0
BBX 3 4 0 -2
BITMAP
2600
8F10
AC00
B400
ENDCHAR
STARTCHAR hyphen
ENCODING 45
SWIDTH 403 0
DWIDTH 4 0
BBX 4 3 0 2
BITMAP
0012
4FFE
1431
ENDCHAR
STARTCHAR period
ENCODING 46
SWIDTH 257 0
DWIDTH 3 0
BBX 3 2 0 0
BITMAP
7E30
7E30
ENDCHAR
STARTCHAR slash
ENCODING 47
SWIDTH 509 0
DWIDTH 6 0
BBX 7 10 0 0
BITMAP
00002D10
0000BC00
0004F400
000CA000
005F2000
00D90000
07E10000
1E700000
8D100000
B5000000
ENDCHAR
STARTCHAR zero
ENCODING 48
SWIDTH 543 0
DWIDTH 6 0
BBX 6 6 0 0
BITMAP
04CEA0
1E94F6
5F10C8
6E00E7
4F67F2
09ED50
ENDCHAR
STARTCHAR one
ENCODING 49
SWIDTH 376 0
DWIDTH 4 0
BBX 4 7 0 0
BITMAP
0263
4FF9
26F7
02F4
05F2
07F1
06C0
ENDCHAR
STARTCHAR two
ENCODING 50
SWIDTH 560 0
DWIDTH 6 0
BBX 6 6 0 0
BITMAP
05DFC2
0E84F8
0812F5
002C90
18E831
6FFFF8
ENDCHAR
STARTCHAR three
ENCODING 51
SWIDTH 520 0
DWIDTH 6 0
BBX 6 6 0 0
BITMAP
08DEB1
4E56F4
024BA0
107CB0
9B38F2
3CFD70
ENDCHAR
STARTCHAR four
ENCODING 52
SWIDTH 577 0
DWIDTH 6 0
BBX 6 7 0 0
BITMAP
004400
02F500
0AC0C6
2F43F3
6FFFFE
0238E1
0006B0
ENDCHAR
STARTCHAR five
ENCODING 53
SWIDTH 518 0
DWIDTH 6 0
BBX 6 6 0 0
BITMAP
1DFFF6
0C9330
0FFD60
1439F2
6D48F2
2BFE60
ENDCHAR
STARTCHAR six
ENCODING 54
SWIDTH 541 0
DWIDTH 6 0
BBX 6 6 0 0
BITMAP
03BED3
1D9397
5FBE90
6F76F4
4F67F3
09EE70
ENDCHAR
STARTCHAR seven
ENCODING 55
SWIDTH 497 0
DWIDTH 5 0
BBX 6 6 0 0
BITMAP
5FFFF9
133CC2
00AC10
04F400
08E000
08A000
ENDCHAR
STARTCHAR eight
ENCODING 56
SWIDTH 512 0
DWIDTH 6 0
BBX 6 6 0 0
BITMAP
07DFB1
1F74F5
0CCBB1
2C9CC1
8D36F3
2CFD80
ENDCHAR
STARTCHAR nine
ENCODING 57
SWIDTH 541 0
DWIDTH 6 0
BBX 6 6 0 0
BITMAP
07DEA0
2F85F6
1CFEF8
2322F6
7D4AE1
2CFC40
ENDCHAR
STARTCHAR colon
ENCODING 58
SWIDTH 257 0
DWIDTH 3 0
BBX 3 5 0 0
BITMAP
2E80
2E80
0000
7E30
7E30
ENDCHAR
STARTCHAR semicolon
ENCODING 59
SWIDTH 257 0
DWIDTH 3 0
BBX 3 7 0 -2
BITMAP
2E80
2E80
0000
2600
8F10
AC00
B400
ENDCHAR
STARTCHAR less
ENCODING 60
SWIDTH 700 0
DWIDTH 8 0
BBX 7 5 1 1
BITMAP
0004AE10
39EE9300
FF700000
4AFC7100
0017C800
ENDCHAR
STARTCHAR equal
ENCODING 61
SWIDTH 700 0
DWIDTH 8 0
BBX 7 4 0 1
BITMAP
0CFFFFE0
02333320
2EFFFFA0
02333310
ENDCHAR
STARTCHAR greater
ENCODING 62
SWIDTH 700 0
DWIDTH 8 0
BBX 7 5 0 1
BITMAP
0AC61000
028EE930
00009FD0
049ED820
2E940000
ENDCHAR
STARTCHAR question
ENCODING 63
SWIDTH 476 0
DWIDTH 5 0
BBX 6 9 0 0
BITMAP
04DFC3
0E84EA
0921F8
001CC1
00BB10
03E100
023000
2E8000
2E8000
ENDCHAR
STARTCHAR at
ENCODING 64
SWIDTH 1015 0
DWIDTH 11 0
BBX 11 12 0 -4
BITMAP
00029CED9200
006FA434BE20
05F500000C90
0D903CC607C0
4F32EAAB08B0
7E07E0C80C80
8D08D5F87E20
7F03DC6ED400
2F7000000000
08F72014AA00
005CFFFD8200
000012100000
ENDCHAR
STARTCHAR A
ENCODING 65
SWIDTH 786 0
DWIDTH 9 0
BBX 10 9 0 0
BITMAP
00039DEEC2
006FC65770
04F8008F00
0DC000CC00
3F6001F900
5F4005F600
5F500CF404
1EC5ACF97D
04DEA1AFC2
ENDCHAR
STARTCHAR B
ENCODING 66
SWIDTH 827 0
DWIDTH 9 0
BBX 10 10 0 -1
BITMAP
038CEFEC50
9EA6435BF4
316A0002F7
00DA013BE2
01F65FF920
05F314BE20
07F1006F40
09E347ED10
0BFFEC8100
0440000000
ENDCHAR
STARTCHAR C
ENCODING 67
SWIDTH 686 0
DWIDTH 8 0
BBX 9 9 0 0
BITMAP
0019DEB100
01DD54E900
0AE100CA00
1F90006300
3F60000000
4F60000000
1FA0000000
08F94359B0
006CEED930
ENDCHAR
STARTCHAR D
ENCODING 68
SWIDTH 836 0
DWIDTH 9 0
BBX 9 9 0 0
BITMAP
04ADFEA300
6E9546CF40
1178001EB0
00E9000AE0
03F5000BE0
06F2000EB0
09F0008F50
0BD35AF800
09EFDA4000
ENDCHAR
STARTCHAR E
ENCODING 69
SWIDTH 686 0
DWIDTH 8 0
BBX 9 9 0 0
BITMAP
003BEEB200
03FB44DA00
08F100AC00
06F7106500
01CFF30000
3EB5200000
9F10000000
7F943459B0
06CEFED930
ENDCHAR
STARTCHAR F
ENCODING 70
SWIDTH 712 0
DWIDTH 8 0
BBX 11 9 0 0
BITMAP
017BDFFFED20
0BB4AE333200
0F50BD000000
0840CB000000
001EFFFF2000
0003F8320000
2004F4000000
E74CE1000000
4DEC30000000
ENDCHAR
STARTCHAR G
ENCODING 71
SWIDTH 811 0
DWIDTH 9 0
BBX 11 14 0 -5
BITMAP
0018DFC40000
01DD53BD0000
0AE2007E0000
1F9000350000
3F6000000000
4F600CFF3000
1FA0015F3200
08F9438F8D10
006CEEDFA100
000004EA0000
00004CD60000
0001D3F20000
0005C9A00000
0002EC200000
ENDCHAR
STARTCHAR H
ENCODING 72
SWIDTH 873 0
DWIDTH 10 0
BBX 12 10 -1 0
BITMAP
000000001BE2
01AEC1009C97
1D76F401F595
1303F405F2D1
0006F209ED60
00CFFFFFD300
002DC20CA000
001F800BB004
004F5008E47C
004D1001AEB2
ENDCHAR
STARTCHAR I
ENCODING 73
SWIDTH 495 0
DWIDTH 5 0
BBX 7 9 -1 0
BITMAP
00BFFFE0
0017F510
0007F100
000AE000
000CB000
000E9000
002F6000
016F6100
1FFFFA00
ENDCHAR
STARTCHAR J
ENCODING 74
SWIDTH 743 0
DWIDTH 8 0
BBX 9 11 0 -2
BITMAP
029DEFEC30
1DB533CD10
3F3000DB00
1C3000F800
000029F600
0008EBF200
00AD28D000
03F30D8000
05F38E1000
01DFE40000
0002000000
ENDCHAR
STARTCHAR K
ENCODING 75
SWIDTH 937 0
DWIDTH 10 0
BBX 12 9 0 0
BITMAP
04BEFD400C70
2F83AF206F30
3F20BC01EA00
0920DA4DB100
000BFFF60000
0004F8DC0000
4206F25F6004
AC4CC00DE6B8
2CFC3003DE90
ENDCHAR
STARTCHAR L
ENCODING 76
SWIDTH 673 0
DWIDTH 7 0
BBX 10 9 -1 0
BITMAP
00005CED40
0006F73AE0
000EA006E0
003F600350
004F400000
005F300000
017F100003
3EFFD9549A
4ED57BEEA1
ENDCHAR
STARTCHAR M
ENCODING 77
SWIDTH 1232 0
DWIDTH 14 0
BBX 15 9 0 0
BITMAP
19EA07ED13CE7000
B98F7A4F8D4CE000
606EC10EE40BD000
008F701FC00EA000
00AF103F702F7000
00DC006F305F4000
00F9009F108F1030
02F700BD007F67C0
02E300A9001BFB20
ENDCHAR
STARTCHAR N
ENCODING 78
SWIDTH 884 0
DWIDTH 10 0
BBX 12 9 0 0
BITMAP
19EC05DE8000
B98F5C4BF100
606FB108F100
008F700BD000
00AF200EA000
00DC003F6000
00F9005F4020
02F7004F85D1
02E3000AEC30
ENDCHAR
STARTCHAR O
ENCODING 79
SWIDTH 816 0
DWIDTH 9 0
BBX 9 9 0 0
BITMAP
0019DEC400
01DC54BF30
09E1001F90
1E90000DB0
3F60000EA0
4F50002F70
2F80008F20
0BE638F600
019EEC4000
ENDCHAR
STARTCHAR P
ENCODING 80
SWIDTH 805 0
DWIDTH 9 0
BBX 9 11 0 -2
BITMAP
0006CEEA10
00AD536FB0
07D1C70AF0
0E52F60BD0
4F16F68F60
6C5FFEB400
7B0AD00000
7C0DB00000
3F5F800000
09FF300000
0032000000
ENDCHAR
STARTCHAR Q
ENCODING 81
SWIDTH 816 0
DWIDTH 9 0
BBX 10 13 0 -4
BITMAP
0019DEC400
01DD54BF30
0AE1001F90
1F90000DB0
3F60000EA0
4F60002F70
2FA000AE10
09F97BF500
006CFD3000
0000AF3001
00002FC169
000006FFC1
0000001200
ENDCHAR
STARTCHAR R
ENCODING 82
SWIDTH 880 0
DWIDTH 10 0
BBX 11 9 0 0
BITMAP
0017DEEA2000
01CB536FB000
09B2E60CD000
1F35F47F6000
4E2FFFC30000
5C0BD9F40000
5D0CA0DC0050
1E6F806F76D0
05DE200AEC20
ENDCHAR
STARTCHAR S
ENCODING 83
SWIDTH 693 0
DWIDTH 8 0
BBX 8 9 0 0
BITMAP
007DFD91
08E636E7
0CB000D8
09F71041
008EE910
13017ED1
9D0006F3
7E534CD0
08DFEA20
ENDCHAR
STARTCHAR T
ENCODING 84
SWIDTH 697 0
DWIDTH 8 0
BBX 10 9 0 0
BITMAP
04ADEFFFEB
5E73AF3332
8B00BC0000
3900EA0000
0002F70000
0004F40000
0007F20000
0009F00000
0009B00000
ENDCHAR
STARTCHAR U
ENCODING 85
SWIDTH 890 0
DWIDTH 10 0
BBX 12 9 0 0
BITMAP
19ED1004E100
B96F5007F200
605F400AE000
008F100DC000
00BD003FA000
00E9009F7000
02F603BF5031
02FB7D5FB8E1
009EC409EC30
ENDCHAR
STARTCHAR V
ENCODING 86
SWIDTH 763 0
DWIDTH 8 0
BBX 9 9 1 0
BITMAP
3E203DE400
7F20B8CA00
8F00C5B900
9E008DF500
9E000BFFD0
8F001E7110
6F209D0000
2FBAE30000
08EC300000
ENDCHAR
STARTCHAR W
ENCODING 87
SWIDTH 1217 0
DWIDTH 13 0
BBX 14 9 1 0
BITMAP
3E2002E403DE40
7F2006F40B8CA0
9F0009F20C5B90
AE000DF108CF50
AD003FF100BFFD
9E009CF101E721
7F12E4F309D000
3FAD90DBAE3000
09E9005EC30000
ENDCHAR
STARTCHAR X
ENCODING 88
SWIDTH 712 0
DWIDTH 8 0
BBX 11 9 -1 0
BITMAP
02BFB103E500
0C66F72EB000
0100BDDC1000
00007FD10000
0000AF700000
0009EEB00000
008F59E00210
06F703F85D20
1E80008ED400
ENDCHAR
STARTCHAR Y
ENCODING 89
SWIDTH 851 0
DWIDTH 9 0
BBX 11 13 0 -4
BITMAP
09ED1003E200
AA6F5007F200
804F4009F000
007F200DD000
00AE003FB000
00DB00AF9000
00DC17AF6000
006FFB7FCD70
0002988F5100
000C50AC0000
004F25F60000
002EFF800000
000020000000
ENDCHAR
STARTCHAR Z
ENCODING 90
SWIDTH 721 0
DWIDTH 8 0
BBX 10 9 0 0
BITMAP
04AEFEDA40
2F8434ED40
5F0007F400
1A102E9000
0000BE1000
0008F50000
015F900012
8FFFB735D3
9EB59DFD50
ENDCHAR
STARTCHAR bracketleft
ENCODING 91
SWIDTH 405 0
DWIDTH 4 0
BBX 6 12 0 -2
BITMAP
00BFF5
01F720
03F400
05F200
07F000
09D000
0CB000
0E9000
0F7000
2F5000
3FFF20
023200
ENDCHAR
STARTCHAR backslash
ENCODING 92
SWIDTH 509 0
DWIDTH 6 0
BBX 4 10 1 0
BITMAP
A700
AC00
6F20
1F60
0CA0
07E0
03F4
00D9
009D
004D
ENDCHAR
STARTCHAR bracketright
ENCODING 93
SWIDTH 405 0
DWIDTH 4 0
BBX 6 12 -1 -2
BITMAP
03EFE2
0027F2
0008F0
0009D0
000BB0
000E90
001F70
003F50
005F30
006F10
6FFD00
033100
ENDCHAR
STARTCHAR asciicircum
ENCODING 94
SWIDTH 700 0
DWIDTH 8 0
BBX 6 6 1 1
BITMAP
002500
00BF10
05EC60
1D67B0
8C02F1
D300B4
ENDCHAR
STARTCHAR underscore
ENCODING 95
SWIDTH 354 0
DWIDTH 4 0
BBX 5 2 -1 -2
BITMAP
2FFF70
023310
ENDCHAR
STARTCHAR grave
ENCODING 96
SWIDTH 600 0
DWIDTH 7 0
BBX 3 4 1 6
BITMAP
3300
8D00
1E40
0490
ENDCHAR
STARTCHAR a
ENCODING 97
SWIDTH 470 0
DWIDTH 5 0
BBX 7 5 0 0
BITMAP
03CC6000
2EABA000
7E0D7020
9D6F8B70
3EC7E800
ENDCHAR
STARTCHAR b
ENCODING 98
SWIDTH 473 0
DWIDTH 5 0
BBX 7 10 0 0
BITMAP
007E6000
03E9A000
0AA79000
0E6B4000
2F7A0000
5FDD3000
6F7ED110
5F09FF90
2F6AC100
08EC2000
ENDCHAR
STARTCHAR c
ENCODING 99
SWIDTH 368 0
DWIDTH 4 0
BBX 6 5 0 0
BITMAP
08EB00
5F6F00
9C0312
8E45D5
1BED50
ENDCHAR
STARTCHAR d
ENCODING 100
SWIDTH 515 0
DWIDTH 6 0
BBX 7 10 0 0
BITMAP
00005E60
0000E9A0
0004E590
0008B860
000A9C10
04CFC900
2E8DF200
7D0C9030
8D5EB6D0
3DD5DC20
ENDCHAR
STARTCHAR e
ENCODING 101
SWIDTH 393 0
DWIDTH 4 0
BBX 6 5 0 0
BITMAP
07EC10
5E4F30
9DAA14
7F74C8
1AED70
ENDCHAR
STARTCHAR f
ENCODING 102
SWIDTH 371 0
DWIDTH 4 0
BBX 6 14 0 -4
BITMAP
002DC0
00C8F2
04F2F0
09B5A0
0D8C20
1FD600
4F7000
5FAFF2
6EB410
6F8500
5F7600
3F9500
0DE100
011000
ENDCHAR
STARTCHAR g
ENCODING 103
SWIDTH 479 0
DWIDTH 5 0
BBX 7 10 0 -5
BITMAP
03CC6000
2E9BA000
7E0D7120
9D6FAE40
3ECFD300
02CE1000
1DBB0000
A6B70000
E7E10000
AE500000
ENDCHAR
STARTCHAR h
ENCODING 104
SWIDTH 502 0
DWIDTH 6 0
BBX 7 10 0 0
BITMAP
007E6000
02E8A000
09A78000
0D6C2000
1FB80000
4FBAE100
5F9DF100
6FC7C040
6F69C7B0
5D16EB10
ENDCHAR
STARTCHAR i
ENCODING 105
SWIDTH 246 0
DWIDTH 3 0
BBX 4 7 0 0
BITMAP
0BD0
0110
0D40
4F20
6E03
7E5D
2EC3
ENDCHAR
STARTCHAR j
ENCODING 106
SWIDTH 254 0
DWIDTH 3 0
BBX 7 12 -3 -5
BITMAP
0001E900
00002000
0001E400
0003F300
0005F140
0006EAC0
0008F800
005E8000
05BE4000
2D4E1000
7BB90000
4EC10000
ENDCHAR
STARTCHAR k
ENCODING 107
SWIDTH 525 0
DWIDTH 6 0
BBX 8 10 0 0
BITMAP
007E6000
02E8A000
09A78000
0D6C2000
1FB70000
4FAAE500
5F97D900
6FB7E331
6F6F95D1
3D17ED30
ENDCHAR
STARTCHAR l
ENCODING 108
SWIDTH 326 0
DWIDTH 4 0
BBX 5 10 0 0
BITMAP
007E50
03E9A0
099690
0D5960
2F3D10
4F7900
5FD200
5F6030
2F57C0
08EB20
ENDCHAR
STARTCHAR m
ENCODING 109
SWIDTH 744 0
DWIDTH 8 0
BBX 10 5 0 0
BITMAP
1D4BC2CA00
4FBDDCEA00
6FB9F7C713
7F5AF1E8B6
4D08A0BE70
ENDCHAR
STARTCHAR n
ENCODING 110
SWIDTH 496 0
DWIDTH 5 0
BBX 7 5 0 0
BITMAP
1D4AE000
4FADE000
6FB8B040
7F5AB8A0
4D07EA10
ENDCHAR
STARTCHAR o
ENCODING 111
SWIDTH 451 0
DWIDTH 5 0
BBX 7 5 0 0
BITMAP
08EC2000
5F7F9210
9C0DFF50
7E4C8100
1BEA1000
ENDCHAR
STARTCHAR p
ENCODING 112
SWIDTH 481 0
DWIDTH 5 0
BBX 9 10 -2 -5
BITMAP
003E8E6000
004F8AD000
004F1AB030
00AF5F8A80
03EFECE900
09AE000000
0D7C000000
3B89000000
4CC5000000
1DB0000000
ENDCHAR
STARTCHAR q
ENCODING 113
SWIDTH 500 0
DWIDTH 6 0
BBX 7 11 0 -5
BITMAP
00007100
03CEF100
2EAAC000
7E0D8000
8D6F8FD0
3EDF7910
006E5800
007D6700
007EA400
003FD000
00021000
ENDCHAR
STARTCHAR r
ENCODING 114
SWIDTH 455 0
DWIDTH 5 0
BBX 7 5 0 0
BITMAP
1D4BE000
4FBBE340
6FA5FE40
7F402000
4D000000
ENDCHAR
STARTCHAR s
ENCODING 115
SWIDTH 427 0
DWIDTH 5 0
BBX 6 5 0 0
BITMAP
01D400
07F400
2DBD15
C79FBE
36FFD3
ENDCHAR
STARTCHAR t
ENCODING 116
SWIDTH 393 0
DWIDTH 4 0
BBX 6 10 0 0
BITMAP
003D70
00D9C0
04D5A0
08AA60
0BCB00
DFFFC0
2F7310
0F6003
0CB499
03DE90
ENDCHAR
STARTCHAR u
ENCODING 117
SWIDTH 462 0
DWIDTH 5 0
BBX 7 5 0 0
BITMAP
0D45B000
3F1B9000
6E2F6130
7ECF7C50
3E7BE600
ENDCHAR
STARTCHAR v
ENCODING 118
SWIDTH 449 0
DWIDTH 5 0
BBX 7 5 0 0
BITMAP
5C0BA000
7E2FB210
6E2FFF40
5FC92100
1EA00000
ENDCHAR
STARTCHAR w
ENCODING 119
SWIDTH 700 0
DWIDTH 8 0
BBX 10 5 0 0
BITMAP
5C0881D600
7E1EA5F720
6E6FA6FFE1
5FDADE5200
1E93E70000
ENDCHAR
STARTCHAR x
ENCODING 120
SWIDTH 529 0
DWIDTH 6 0
BBX 8 5 0 0
BITMAP
0CE6CC00
0B9F8A00
237F1021
B9CF65D2
8E99EC30
ENDCHAR
STARTCHAR y
ENCODING 121
SWIDTH 479 0
DWIDTH 5 0
BBX 7 10 0 -5
BITMAP
0D45B000
3F1BA000
6E2F7220
7ECFAE40
3E9FC200
02CE0000
1CBB0000
A6B60000
F6E10000
BE500000
ENDCHAR
STARTCHAR z
ENCODING 122
SWIDTH 445 0
DWIDTH 5 0
BBX 7 5 0 0
BITMAP
4FFFF200
04CD6000
1D900320
4F737E20
09EEB300
ENDCHAR
STARTCHAR braceleft
ENCODING 123
SWIDTH 490 0
DWIDTH 5 0
BBX 7 12 0 -2
BITMAP
0006DF40
001F9300
004F3000
006F1000
01AD0000
5FF40000
04E80000
00E80000
01F60000
01F70000
00AFF200
00022000
ENDCHAR
STARTCHAR bar
ENCODING 124
SWIDTH 326 0
DWIDTH 4 0
BBX 4 14 0 -4
BITMAP
00C6
00F5
02F3
04F1
07E0
09C0
0B90
0E70
1F50
3F30
5F00
7D00
9B00
4300
ENDCHAR
STARTCHAR braceright
ENCODING 125
SWIDTH 490 0
DWIDTH 5 0
BBX 7 12 -1 -2
BITMAP
03EE6000
003AE000
0007F000
0009D000
0009E100
0004FF40
000DB300
002F5000
004F3000
009F1000
5FF70000
02100000
ENDCHAR
STARTCHAR asciitilde
ENCODING 126
SWIDTH 700 0
DWIDTH 8 0
BBX 7 3 0 2
BITMAP
01620060
0BEF88D0
1D23BE30
ENDCHAR
STARTCHAR uni00A0
ENCODING 160
SWIDTH 265 0
DWIDTH 3 0
BBX 1 1 0 0
BITMAP
00
ENDCHAR
STARTCHAR exclamdown
ENCODING 161
SWIDTH 340 0
DWIDTH 4 0
BBX 5 9 -1 -4
BITMAP
007E30
007E30
003200
00C600
02F300
07F000
0BC000
1F9000
3E4000
ENDCHAR
STARTCHAR cent
ENCODING 162
SWIDTH 466 0
DWIDTH 5 0
BBX 5 8 0 -1
BITMAP
001400
005800
08EE70
5E9980
7CA140
4FEA80
04D600
01A000
ENDCHAR
STARTCHAR sterling
ENCODING 163
SWIDTH 525 0
DWIDTH 6 0
BBX 6 6 0 0
BITMAP
01AED4
08D4AA
0D8011
9FFF50
2F8531
9FFFF6
ENDCHAR
STARTCHAR currency
ENCODING 164
SWIDTH 700 0
DWIDTH 8 0
BBX 6 5 1 1
BITMAP
7BEDC5
2E56E0
5A00D2
2E23E1
7CEDC4
ENDCHAR
STARTCHAR yen
ENCODING 165
SWIDTH 497 0
DWIDTH 5 0
BBX 6 7 0 0
BITMAP
340026
7E11D9
1E89D1
06FE30
5FFFE0
7FFFD0
14E520
ENDCHAR
STARTCHAR brokenbar
ENCODING 166
SWIDTH 326 0
DWIDTH 4 0
BBX 4 14 0 -4
BITMAP
00C6
01F5
03F3
05F1
07E0
0690
0000
0410
0F50
3F30
5F10
7E00
9C00
4300
ENDCHAR
STARTCHAR section
ENCODING 167
SWIDTH 607 0
DWIDTH 7 0
BBX 7 9 0 0
BITMAP
007DE900
03F55F20
03F51900
05DED400
0A919D00
05ECB900
1817F500
3F54E600
09EEA000
ENDCHAR
STARTCHAR dieresis
ENCODING 168
SWIDTH 600 0
DWIDTH 7 0
BBX 5 2 1 5
BITMAP
5E2E40
010200
ENDCHAR
STARTCHAR copyright
ENCODING 169
SWIDTH 647 0
DWIDTH 7 0
BBX 8 7 0 3
BITMAP
018EEA20
099CF9C0
0C697593
1D761294
0BBEE8D0
01BFFD30
00012000
ENDCHAR
STARTCHAR ordfeminine
ENCODING 170
SWIDTH 393 0
DWIDTH 4 0
BBX 5 4 0 5
BITMAP
02CD60
0C8A90
2F3E60
0BCC40
ENDCHAR
STARTCHAR guillemotleft
ENCODING 171
SWIDTH 615 0
DWIDTH 7 0
BBX 7 4 0 0
BITMAP
05D36D30
7E69E500
6F67E500
04D25D10
ENDCHAR
STARTCHAR logicalnot
ENCODING 172
SWIDTH 700 0
DWIDTH 8 0
BBX 6 4 1 0
BITMAP
EFFFFC
23339C
0000AA
000011
ENDCHAR
STARTCHAR uni00AD
ENCODING 173
SWIDTH 403 0
DWIDTH 4 0
BBX 4 3 0 2
BITMAP
0012
4FFE
1431
ENDCHAR
STARTCHAR registered
ENCODING 174
SWIDTH 647 0
DWIDTH 7 0
BBX 8 7 0 3
BITMAP
018EEA20
09BDCAC0
0D0B66A3
1C1DB094
0BA677D0
01BFFD30
00012000
ENDCHAR
STARTCHAR macron
ENCODING 175
SWIDTH 600 0
DWIDTH 7 0
BBX 5 2 1 5
BITMAP
5FFF10
033200
ENDCHAR
STARTCHAR degree
ENCODING 176
SWIDTH 385 0
DWIDTH 4 0
BBX 4 4 1 5
BITMAP
5EC1
D6C5
9FD1
0200
ENDCHAR
STARTCHAR plusminus
ENCODING 177
SWIDTH 700 0
DWIDTH 8 0
BBX 6 7 1 0
BITMAP
001500
007C00
6FFFF7
13CA30
00C600
245430
DFFFE1
ENDCHAR
STARTCHAR uni00B2
ENCODING 178
SWIDTH 450 0
DWIDTH 5 0
BBX 5 5 0 4
BITMAP
06DE60
0E38C0
011D60
05C700
4FFFD0
ENDCHAR
STARTCHAR uni00B3
ENCODING 179
SWIDTH 450 0
DWIDTH 5 0
BBX 5 5 0 4
BITMAP
06DE90
0A28D0
008E40
290AC0
1BED60
ENDCHAR
STARTCHAR acute
ENCODING 180
SWIDTH 600 0
DWIDTH 7 0
BBX 3 3 3 6
BITMAP
1D30
8C00
C100
ENDCHAR
STARTCHAR uni00B5
ENCODING 181
SWIDTH 462 0
DWIDTH 5 0
BBX 7 8 0 -3
BITMAP
0D45B000
3F1B9000
6E2F6130
8ECF7C50
9F7BE600
AA000000
AA000000
98000000
ENDCHAR
STARTCHAR paragraph
ENCODING 182
SWIDTH 739 0
DWIDTH 8 0
BBX 7 9 1 0
BITMAP
19DFFD50
AFFF5EA0
DFFF1F80
4EFD2F50
00DA5F30
00F78F00
02F5AD00
05F3DB00
04E1C700
ENDCHAR
STARTCHAR periodcentered
ENCODING 183
SWIDTH 257 0
DWIDTH 3 0
BBX 3 2 0 2
BITMAP
4E50
4E50
ENDCHAR
STARTCHAR cedilla
ENCODING 184
SWIDTH 600 0
DWIDTH 7 0
BBX 4 4 0 -4
BITMAP
09E6
019B
4FF5
0200
ENDCHAR
STARTCHAR uni00B9
ENCODING 185
SWIDTH 450 0
DWIDTH 5 0
BBX 4 5 1 4
BITMAP
6CE2
47F0
07D0
09B0
0980
ENDCHAR
STARTCHAR ordmasculine
ENCODING 186
SWIDTH 408 0
DWIDTH 4 0
BBX 5 4 0 5
BITMAP
05ED30
0E4A90
1F4A90
07EB10
ENDCHAR
STARTCHAR guillemotright
ENCODING 187
SWIDTH 615 0
DWIDTH 7 0
BBX 7 4 0 0
BITMAP
4D35C200
08E49E30
07F68F40
6C36C300
ENDCHAR
STARTCHAR onequarter
ENCODING 188
SWIDTH 955 0
DWIDTH 11 0
BBX 10 9 1 0
BITMAP
6CE2000000
47F0079000
07D02F4000
09B0BB0000
0985F29700
001D83E7A0
008D0A8A90
00B40EEFE2
0000012D40
ENDCHAR
STARTCHAR onehalf
ENCODING 189
SWIDTH 1024 0
DWIDTH 11 0
BBX 10 9 1 0
BITMAP
6CE2000000
47F0079000
07D02F4000
09B0BB0000
0985F28ED4
001D82E1B9
008D0013E4
00B4006D50
000007FFFA
ENDCHAR
STARTCHAR threequarters
ENCODING 190
SWIDTH 1035 0
DWIDTH 11 0
BBX 11 9 0 0
BITMAP
06DE90000000
0A28D0097000
008E404F3000
290AC0C90000
1BED66E1B600
00001E65D880
00009C0C6C70
0000D31FEFE0
000000012E20
ENDCHAR
STARTCHAR questiondown
ENCODING 191
SWIDTH 476 0
DWIDTH 5 0
BBX 6 10 -1 -5
BITMAP
0005E5
0005E5
000230
000A60
008E10
09E300
4F5081
7F43F3
2DFF90
002100
ENDCHAR
STARTCHAR Agrave
ENCODING 192
SWIDTH 786 0
DWIDTH 9 0
BBX 10 13 0 0
BITMAP
0001600000
0004FB1000
000029A000
0000000000
00039DEEC2
006FC65770
04F8008F00
0DC000CC00
3F6001F900
5F4005F600
5F500CF404
1EC5ACF97D
04DEA1AFC2
ENDCHAR
STARTCHAR Aacute
ENCODING 193
SWIDTH 786 0
DWIDTH 9 0
BBX 10 13 0 0
BITMAP
0000000052
0000001AF4
000000A920
0000000000
00039DEEC2
006FC65770
04F8008F00
0DC000CC00
3F6001F900
5F4005F600
5F500CF404
1EC5ACF97D
04DEA1AFC2
ENDCHAR
STARTCHAR Acircumflex
ENCODING 194
SWIDTH 786 0
DWIDTH 9 0
BBX 10 13 0 0
BITMAP
000002DB00
00000B9F30
00003D1A60
0000000000
00039DEEC2
006FC65770
04F8008F00
0DC000CC00
3F6001F900
5F4005F600
5F500CF404
1EC5ACF97D
04DEA1AFC2
ENDCHAR
STARTCHAR Atilde
ENCODING 195
SWIDTH 786 0
DWIDTH 9 0
BBX 10 12 0 0
BITMAP
00002DB2D1
0000987E80
0000000000
00039DEEC2
006FC65770
04F8008F00
0DC000CC00
3F6001F900
5F4005F600
5F500CF404
1EC5ACF97D
04DEA1AFC2
ENDCHAR
STARTCHAR Adieresis
ENCODING 196
SWIDTH 786 0
DWIDTH 9 0
BBX 10 11 0 0
BITMAP
00002E4C80
0000020100
00039DEEC2
006FC65770
04F8008F00
0DC000CC00
3F6001F900
5F4005F600
5F500CF404
1EC5ACF97D
04DEA1AFC2
ENDCHAR
STARTCHAR Aring
ENCODING 197
SWIDTH 786 0
DWIDTH 9 0
BBX 10 13 0 0
BITMAP
000003EC10
00000A8D30
000006FD10
0000002000
00039DEEC2
006FC65770
04F8008F00
0DC000CC00
3F6001F900
5F4005F600
5F500CF404
1EC5ACF97D
04DEA1AFC2
ENDCHAR
STARTCHAR AE
ENCODING 198
SWIDTH 1015 0
DWIDTH 11 0
BBX 13 9 0 0
BITMAP
0004BE69FFFB00
007FB53F733100
05F8006F200000
0DC000BE000000
3F6001EFFFE000
5F4005F9332000
5F500BF7000000
1EC39CCE535B70
04DFB22AEEC810
ENDCHAR
STARTCHAR Ccedilla
ENCODING 199
SWIDTH 686 0
DWIDTH 8 0
BBX 9 13 0 -4
BITMAP
0019DEB100
01DD54E900
09E100CA00
1F90006300
3F60000000
4F60000000
2FA0000000
09F94359B0
007FFFD930
0006E50000
0001C60000
00AFC10000
0012000000
ENDCHAR
STARTCHAR Egrave
ENCODING 200
SWIDTH 686 0
DWIDTH 8 0
BBX 9 13 0 0
BITMAP
0043000000
009F600000
0004C50000
0000000000
003BEEB200
03FB44DA00
08F100AC00
06F7106500
01CFF30000
3EB5200000
9F10000000
7F943459B0
06CEFED930
ENDCHAR
STARTCHAR Eacute
ENCODING 201
SWIDTH 686 0
DWIDTH 8 0
BBX 9 13 0 0
BITMAP
0000001600
000003DD00
00001D6000
0000000000
003BEEB200
03FB44DA00
08F100AC00
06F7106500
01CFF30000
3EB5200000
9F10000000
7F943459B0
06CEFED930
ENDCHAR
STARTCHAR Ecircumflex
ENCODING 202
SWIDTH 686 0
DWIDTH 8 0
BBX 9 13 0 0
BITMAP
00006E5000
0002E9C000
000992E100
0000000000
003BEEB200
03FB44DA00
08F100AC00
06F7106500
01CFF30000
3EB5200000
9F10000000
7F943459B0
06CEFED930
ENDCHAR
STARTCHAR Edieresis
ENCODING 203
SWIDTH 686 0
DWIDTH 8 0
BBX 9 11 0 0
BITMAP
0007D3E200
0001102000
003BEEB200
03FB44DA00
08F100AC00
06F7106500
01CFF30000
3EB5200000
9F10000000
7F943459B0
06CEFED930
ENDCHAR
STARTCHAR Igrave
ENCODING 204
SWIDTH 495 0
DWIDTH 5 0
BBX 7 13 -1 0
BITMAP
00610000
01EC2000
0017C000
00000000
00BFFFE0
0017F510
0007F100
000AE000
000CB000
000E9000
002F6000
016F6100
1FFFFA00
ENDCHAR
STARTCHAR Iacute
ENCODING 205
SWIDTH 495 0
DWIDTH 5 0
BBX 8 13 -1 0
BITMAP
00000043
000008F7
00007B30
00000000
00BFFFE0
0017F510
0007F100
000AE000
000CB000
000E9000
002F6000
016F6100
1FFFFA00
ENDCHAR
STARTCHAR Icircumflex
ENCODING 206
SWIDTH 495 0
DWIDTH 5 0
BBX 7 13 -1 0
BITMAP
0000BD10
0008CC60
000E3790
00000000
00BFFFE0
0017F510
0007F100
000AE000
000CB000
000E9000
002F6000
016F6100
1FFFFA00
ENDCHAR
STARTCHAR Idieresis
ENCODING 207
SWIDTH 495 0
DWIDTH 5 0
BBX 7 11 -1 0
BITMAP
000D79B0
00020110
00BFFFE0
0017F510
0007F100
000AE000
000CB000
000E9000
002F6000
016F6100
1FFFFA00
ENDCHAR
STARTCHAR Eth
ENCODING 208
SWIDTH 821 0
DWIDTH 9 0
BBX 9 9 0 0
BITMAP
003EFEA200
008E35DE20
00CA002F90
01F6000DC0
AFFFF50DB0
1AE3301F80
0CC000AE20
0EB35BF500
0CEFD92000
ENDCHAR
STARTCHAR Ntilde
ENCODING 209
SWIDTH 884 0
DWIDTH 10 0
BBX 12 12 0 0
BITMAP
00008E669000
0001D4BD3000
000000000000
19EC05DE8000
B98F5C4BF100
606FB108F100
008F700BD000
00AF200EA000
00DC003F6000
00F9005F4020
02F7004F85D1
02E3000AEC30
ENDCHAR
STARTCHAR Ograve
ENCODING 210
SWIDTH 816 0
DWIDTH 9 0
BBX 9 13 0 0
BITMAP
0034000000
006F800000
0003A70000
0000000000
0019DEC400
01DC54BF30
09E1001F90
1E90000DB0
3F60000EA0
4F50002F70
2F80008F20
0BE638F600
019EEC4000
ENDCHAR
STARTCHAR Oacute
ENCODING 211
SWIDTH 816 0
DWIDTH 9 0
BBX 9 13 0 0
BITMAP
0000001600
000002CE20
00000C8100
0000000000
0019DEC400
01DC54BF30
09E1001F90
1E90000DB0
3F60000EA0
4F50002F70
2F80008F20
0BE638F600
019EEC4000
ENDCHAR
STARTCHAR Ocircumflex
ENCODING 212
SWIDTH 816 0
DWIDTH 9 0
BBX 9 13 0 0
BITMAP
00004E8000
0001D9E100
0006B0D300
0000000000
0019DEC400
01DC54BF30
09E1001F90
1E90000DB0
3F60000EA0
4F50002F70
2F80008F20
0BE638F600
019EEC4000
ENDCHAR
STARTCHAR Otilde
ENCODING 213
SWIDTH 816 0
DWIDTH 9 0
BBX 9 12 0 0
BITMAP
0004E93C00
000B69E600
0000000000
0019DEC400
01DC54BF30
09E1001F90
1E90000DB0
3F60000EA0
4F50002F70
2F80008F20
0BE638F600
019EEC4000
ENDCHAR
STARTCHAR Odieresis
ENCODING 214
SWIDTH 816 0
DWIDTH 9 0
BBX 9 11 0 0
BITMAP
0005E2E500
0000202000
0019DEC400
01DC54BF30
09E1001F90
1E90000DB0
3F60000EA0
4F50002F70
2F80008F20
0BE638F600
019EEC4000
ENDCHAR
STARTCHAR multiply
ENCODING 215
SWIDTH 700 0
DWIDTH 8 0
BBX 6 5 1 1
BITMAP
3D20A7
1CCBD2
03FE10
2DBEA0
A804D1
ENDCHAR
STARTCHAR Oslash
ENCODING 216
SWIDTH 816 0
DWIDTH 9 0
BBX 9 11 0 -1
BITMAP
000007A000
0019DFD400
01DC5FCF30
09E15D2F90
1E90990DB0
3F60D50EA0
4F52F11F70
2F86C08F20
0BECA7F600
019FEC4000
003D000000
ENDCHAR
STARTCHAR Ugrave
ENCODING 217
SWIDTH 890 0
DWIDTH 10 0
BBX 12 13 0 0
BITMAP
000610000000
000DE3000000
00006D100000
000000000000
19ED1004E100
B96F5007F200
605F400AE000
008F100DC000
00BD003FA000
00E9009F7000
02F603BF5031
02FB7D5FB8E1
009EC409EC30
ENDCHAR
STARTCHAR Uacute
ENCODING 218
SWIDTH 890 0
DWIDTH 10 0
BBX 12 13 0 0
BITMAP
000000034000
0000006F9000
000004C40000
000000000000
19ED1004E100
B96F5007F200
605F400AE000
008F100DC000
00BD003FA000
00E9009F7000
02F603BF5031
02FB7D5FB8E1
009EC409EC30
ENDCHAR
STARTCHAR Ucircumflex
ENCODING 219
SWIDTH 890 0
DWIDTH 10 0
BBX 12 13 0 0
BITMAP
000009E20000
00006EA80000
0000C55B0000
000000000000
19ED1004E100
B96F5007F200
605F400AE000
008F100DC000
00BD003FA000
00E9009F7000
02F603BF5031
02FB7D5FB8E1
009EC409EC30
ENDCHAR
STARTCHAR Udieresis
ENCODING 220
SWIDTH 890 0
DWIDTH 10 0
BBX 12 11 0 0
BITMAP
0000B97D0000
000011110000
19ED1004E100
B96F5007F200
605F400AE000
008F100DC000
00BD003FA000
00E9009F7000
02F603BF5031
02FB7D5FB8E1
009EC409EC30
ENDCHAR
STARTCHAR Yacute
ENCODING 221
SWIDTH 851 0
DWIDTH 9 0
BBX 11 17 0 -4
BITMAP
000000025000
0000004EB000
000003D60000
000000000000
09ED1003E200
AA6F5007F200
804F4009F000
007F200DD000
00AE003FB000
00DB00AF9000
00DC17AF6000
006FFB7FCD70
0002988F5100
000C50AC0000
004F25F60000
002EFF800000
000020000000
ENDCHAR
STARTCHAR Thorn
ENCODING 222
SWIDTH 776 0
DWIDTH 9 0
BBX 9 12 0 -2
BITMAP
0000C80000
0001F70000
0018FFD600
02DCF5AF50
0B88F02F80
2F1AD04F60
6C3DC7EB00
8B7FDB6000
7B3F500000
4E7F200000
0BFC000000
0031000000
ENDCHAR
STARTCHAR germandbls
ENCODING 223
SWIDTH 596 0
DWIDTH 7 0
BBX 8 11 0 -2
BITMAP
006DE900
05F56F30
0D804F20
2F36E600
5F1F8000
6F0CE741
7E5DBFCB
7EBB5F40
8E4DE900
8D000000
7C000000
ENDCHAR
STARTCHAR agrave
ENCODING 224
SWIDTH 470 0
DWIDTH 5 0
BBX 7 10 0 0
BITMAP
02400000
07E00000
01D60000
003A0000
00000000
03CC6000
2EABA000
7E0D7020
9D6F8B70
3EC7E800
ENDCHAR
STARTCHAR aacute
ENCODING 225
SWIDTH 470 0
DWIDTH 5 0
BBX 7 9 0 0
BITMAP
0001D400
0007D100
000B2000
00000000
03CC6000
2EABA000
7E0D7020
9D6F8B70
3EC7E800
ENDCHAR
STARTCHAR acircumflex
ENCODING 226
SWIDTH 470 0
DWIDTH 5 0
BBX 7 10 0 0
BITMAP
00053000
005EB000
01D6F100
05B0D200
00000000
03CC6000
2EABA000
7E0D7020
9D6F8B70
3EC7E800
ENDCHAR
STARTCHAR atilde
ENCODING 227
SWIDTH 470 0
DWIDTH 5 0
BBX 7 8 0 0
BITMAP
04E93C00
0B59E500
00000000
03CC6000
2EABA000
7E0D7020
9D6F8B70
3EC7E800
ENDCHAR
STARTCHAR adieresis
ENCODING 228
SWIDTH 470 0
DWIDTH 5 0
BBX 7 7 0 0
BITMAP
04E2E500
00202000
03CC6000
2EABA000
7E0D7020
9D6F8B70
3EC7E800
ENDCHAR
STARTCHAR aring
ENCODING 229
SWIDTH 470 0
DWIDTH 5 0
BBX 7 9 0 0
BITMAP
006E9000
00D6F000
009FA000
00020000
03CC6000
2EABA000
7E0D7020
9D6F8B70
3EC7E800
ENDCHAR
STARTCHAR ae
ENCODING 230
SWIDTH 653 0
DWIDTH 7 0
BBX 9 5 0 0
BITMAP
04CEAEB000
2F99D5F100
8D0CCB8130
8D5FE65D60
3DD4BFD600
ENDCHAR
STARTCHAR ccedilla
ENCODING 231
SWIDTH 368 0
DWIDTH 4 0
BBX 6 9 0 -4
BITMAP
08EB00
5F6F00
9C0412
7E12C5
1CFC50
019B00
007B00
4FE400
021000
ENDCHAR
STARTCHAR egrave
ENCODING 232
SWIDTH 393 0
DWIDTH 4 0
BBX 6 10 0 0
BITMAP
051000
0E7000
05E000
009400
000000
07EC10
5E4F30
9DAA14
7F74C8
1AED70
ENDCHAR
STARTCHAR eacute
ENCODING 233
SWIDTH 393 0
DWIDTH 4 0
BBX 6 9 0 0
BITMAP
0006C0
000D70
005800
000000
07EC10
5E4F30
9DAA14
7F74C8
1AED70
ENDCHAR
STARTCHAR ecircumflex
ENCODING 234
SWIDTH 393 0
DWIDTH 4 0
BBX 6 10 0 0
BITMAP
001600
00CE40
06C980
0C46A0
000000
07EC10
5E4F30
9DAA14
7F74C8
1AED70
ENDCHAR
STARTCHAR edieresis
ENCODING 235
SWIDTH 393 0
DWIDTH 4 0
BBX 6 7 0 0
BITMAP
0B87D0
011110
07EC10
5E4F30
9DAA14
7F74C8
1AED70
ENDCHAR
STARTCHAR igrave
ENCODING 236
SWIDTH 246 0
DWIDTH 3 0
BBX 5 10 -1 0
BITMAP
060000
1F6000
07C000
00A200
000000
00D400
04F200
06E030
07E5D0
02EC30
ENDCHAR
STARTCHAR iacute
ENCODING 237
SWIDTH 246 0
DWIDTH 3 0
BBX 4 9 0 0
BITMAP
007B
01E5
0670
0000
0D40
4F20
6E03
7E5D
2EC3
ENDCHAR
STARTCHAR icircumflex
ENCODING 238
SWIDTH 246 0
DWIDTH 3 0
BBX 4 10 0 0
BITMAP
0260
0DE3
7BA7
D378
0000
0D40
4F20
6E03
7E5D
2EC3
ENDCHAR
STARTCHAR idieresis
ENCODING 239
SWIDTH 246 0
DWIDTH 3 0
BBX 4 7 0 0
BITMAP
C78B
1011
0D40
4F20
6E03
7E5D
2EC3
ENDCHAR
STARTCHAR eth
ENCODING 240
SWIDTH 451 0
DWIDTH 5 0
BBX 6 10 0 0
BITMAP
04D213
00BBD8
01AFA0
06BC90
0007D0
08EEE0
5F49E0
9C08C0
7E4E70
1BEA00
ENDCHAR
STARTCHAR ntilde
ENCODING 241
SWIDTH 496 0
DWIDTH 5 0
BBX 7 8 0 0
BITMAP
03E93D00
0A68E600
00000000
1D4AE000
4FADE000
6FB8B040
7F5AB8A0
4D07EA10
ENDCHAR
STARTCHAR ograve
ENCODING 242
SWIDTH 451 0
DWIDTH 5 0
BBX 7 10 0 0
BITMAP
06100000
0E700000
06D00000
00A30000
00000000
08EC2000
5F7F9210
9C0DFF50
7E4C8100
1BEA1000
ENDCHAR
STARTCHAR oacute
ENCODING 243
SWIDTH 451 0
DWIDTH 5 0
BBX 7 9 0 0
BITMAP
0006B000
001E6000
00580000
00000000
08EC2000
5F7F9210
9C0DFF50
7E4C8100
1BEA1000
ENDCHAR
STARTCHAR ocircumflex
ENCODING 244
SWIDTH 451 0
DWIDTH 5 0
BBX 7 10 0 0
BITMAP
00260000
00CE4000
06C98000
0D369000
00000000
08EC2000
5F7F9210
9C0DFF50
7E4C8100
1BEA1000
ENDCHAR
STARTCHAR otilde
ENCODING 245
SWIDTH 451 0
DWIDTH 5 0
BBX 7 8 0 0
BITMAP
0AD4A500
4B4CB000
00000000
08EC2000
5F7F9210
9C0DFF50
7E4C8100
1BEA1000
ENDCHAR
STARTCHAR odieresis
ENCODING 246
SWIDTH 451 0
DWIDTH 5 0
BBX 7 7 0 0
BITMAP
0B87C000
01011000
08EC2000
5F7F9210
9C0DFF50
7E4C8100
1BEA1000
ENDCHAR
STARTCHAR divide
ENCODING 247
SWIDTH 700 0
DWIDTH 8 0
BBX 6 6 1 0
BITMAP
008C00
001100
EFFFFC
233331
002000
02E400
ENDCHAR
STARTCHAR oslash
ENCODING 248
SWIDTH 459 0
DWIDTH 5 0
BBX 7 9 0 -2
BITMAP
00140000
00490000
09ED3000
5EBCC320
9BB7FE50
8DCB9000
1CFB1000
05700000
03200000
ENDCHAR
STARTCHAR ugrave
ENCODING 249
SWIDTH 462 0
DWIDTH 5 0
BBX 7 10 0 0
BITMAP
03300000
09C00000
02E30000
00580000
00000000
0D45B000
3F1B9000
6E2F6130
7ECF7C50
3E7BE600
ENDCHAR
STARTCHAR uacute
ENCODING 250
SWIDTH 462 0
DWIDTH 5 0
BBX 7 9 0 0
BITMAP
0002E200
0009B000
001C1000
00000000
0D45B000
3F1B9000
6E2F6130
7ECF7C50
3E7BE600
ENDCHAR
STARTCHAR ucircumflex
ENCODING 251
SWIDTH 462 0
DWIDTH 5 0
BBX 7 10 0 0
BITMAP
00062000
007E9000
02E6D000
0881E000
00000000
0D45B000
3F1B9000
6E2F6130
7ECF7C50
3E7BE600
ENDCHAR
STARTCHAR udieresis
ENCODING 252
SWIDTH 462 0
DWIDTH 5 0
BBX 7 7 0 0
BITMAP
06D3E300
01102000
0D45B000
3F1B9000
6E2F6130
7ECF7C50
3E7BE600
ENDCHAR
STARTCHAR yacute
ENCODING 253
SWIDTH 479 0
DWIDTH 5 0
BBX 7 14 0 -5
BITMAP
0002E200
0009B000
001C1000
00000000
0D45B000
3F1BA000
6E2F7220
7ECFAE40
3E9FC200
02CE0000
1CBB0000
A6B60000
F6E10000
BE500000
ENDCHAR
STARTCHAR thorn
ENCODING 254
SWIDTH 508 0
DWIDTH 6 0
BBX 7 13 0 -4
BITMAP
02500000
0AC00000
0D800000
1F500000
3F5DC000
5FC7F200
7F55F140
8E4DB7C0
9FEAEB10
AA000000
B9000000
B9000000
43000000
ENDCHAR
STARTCHAR ydieresis
ENCODING 255
SWIDTH 479 0
DWIDTH 5 0
BBX 7 12 0 -5
BITMAP
06D3E300
01102000
0D45B000
3F1BA000
6E2F7220
7ECFAE40
3E9FC200
02CE0000
1CBB0000
A6B60000
F6E10000
BE500000
ENDCHAR
STARTCHAR Amacron
ENCODING 256
SWIDTH 786 0
DWIDTH 9 0
BBX 10 11 0 0
BITMAP
00001EFF40
0000023200
00039DEEC2
006FC65770
04F8008F00
0DC000CC00
3F6001F900
5F4005F600
5F500CF404
1EC5ACF97D
04DEA1AFC2
ENDCHAR
STARTCHAR amacron
ENCODING 257
SWIDTH 470 0
DWIDTH 5 0
BBX 7 7 0 0
BITMAP
04FFF100
00232000
03CC6000
2EABA000
7E0D7020
9D6F8B70
3EC7E800
ENDCHAR
STARTCHAR Abreve
ENCODING 258
SWIDTH 786 0
DWIDTH 9 0
BBX 10 12 0 0
BITMAP
00005914B0
00002DFF70
0000002000
00039DEEC2
006FC65770
04F8008F00
0DC000CC00
3F6001F900
5F4005F600
5F500CF404
1EC5ACF97D
04DEA1AFC2
ENDCHAR
STARTCHAR abreve
ENCODING 259
SWIDTH 470 0
DWIDTH 5 0
BBX 7 9 0 0
BITMAP
02100300
0AB19B00
03EFD300
00020000
03CC6000
2EABA000
7E0D7020
9D6F8B70
3EC7E800
ENDCHAR
STARTCHAR Aogonek
ENCODING 260
SWIDTH 786 0
DWIDTH 9 0
BBX 10 12 0 -3
BITMAP
00039DEEC2
006FA54660
04F7008F00
0DC000CC00
3F6001F900
5F4005F600
5F500BF403
1EC38CF86E
04DEA1AFE3
0000008C20
000000C700
0000005ED1
ENDCHAR
STARTCHAR aogonek
ENCODING 261
SWIDTH 470 0
DWIDTH 5 0
BBX 7 9 0 -4
BITMAP
03CC6000
2EABA000
7E0D7020
9D6F8A70
3EC9FA00
000E7000
003E1000
001DF800
00002000
ENDCHAR
STARTCHAR Cacute
ENCODING 262
SWIDTH 686 0
DWIDTH 8 0
BBX 9 13 0 0
BITMAP
0000001600
000002CE20
00000C8100
0000000000
0019DEB100
01DD54E900
0AE100CA00
1F90006300
3F60000000
4F60000000
1FA0000000
08F94359B0
006CEED930
ENDCHAR
STARTCHAR cacute
ENCODING 263
SWIDTH 368 0
DWIDTH 4 0
BBX 6 9 0 0
BITMAP
0007B0
001E60
006800
000000
08EB00
5F6F00
9C0312
8E45D5
1BED50
ENDCHAR
STARTCHAR Ccircumflex
ENCODING 264
SWIDTH 686 0
DWIDTH 8 0
BBX 9 13 0 0
BITMAP
00004E7000
0001E9E000
0006B0D200
0000000000
0019DEB100
01DD54E900
0AE100CA00
1F90006300
3F60000000
4F60000000
1FA0000000
08F94359B0
006CEED930
ENDCHAR
STARTCHAR ccircumflex
ENCODING 265
SWIDTH 368 0
DWIDTH 4 0
BBX 6 10 0 0
BITMAP
002600
00CE40
06C980
0D3690
000000
08EB00
5F6F00
9C0312
8E45D5
1BED50
ENDCHAR
STARTCHAR Cdotaccent
ENCODING 266
SWIDTH 686 0
DWIDTH 8 0
BBX 9 11 0 0
BITMAP
00006E5000
0000020000
0019DEB100
01DD54E900
0AE100CA00
1F90006300
3F60000000
4F60000000
1FA0000000
08F94359B0
006CEED930
ENDCHAR
STARTCHAR cdotaccent
ENCODING 267
SWIDTH 368 0
DWIDTH 4 0
BBX 6 7 0 0
BITMAP
00CC00
001100
08EB00
5F6F00
9C0312
8E45D5
1BED50
ENDCHAR
STARTCHAR Ccaron
ENCODING 268
SWIDTH 686 0
DWIDTH 8 0
BBX 9 13 0 0
BITMAP
0001604300
0001E5E300
00006E5000
0000000000
0019DEB100
01DD54E900
0AE100CA00
1F90006300
3F60000000
4F60000000
1FA0000000
08F94359B0
006CEED930
ENDCHAR
STARTCHAR ccaron
ENCODING 269
SWIDTH 368 0
DWIDTH 4 0
BBX 6 10 0 0
BITMAP
024061
06C4E1
02EC50
00CA00
000000
08EB00
5F6F00
9C0312
8E45D5
1BED50
ENDCHAR
STARTCHAR Dcaron
ENCODING 270
SWIDTH 836 0
DWIDTH 9 0
BBX 9 13 0 0
BITMAP
0004306000
0006C8B000
0000BC1000
0000000000
04ADFEA300
6E9546CF40
1178001EB0
00E9000AE0
03F5000BE0
06F2000EB0
09F0008F50
0BD35AF800
09EFDA4000
ENDCHAR
STARTCHAR dcaron
ENCODING 271
SWIDTH 470 0
DWIDTH 5 0
BBX 8 11 0 0
BITMAP
00000061
000000F3
0000A9C0
0000E700
0002F400
0004F100
04CED000
2EABA000
7E0D7020
9D6F8B70
3EC7E800
ENDCHAR
STARTCHAR Dcroat
ENCODING 272
SWIDTH 821 0
DWIDTH 9 0
BBX 9 9 0 0
BITMAP
003EFEA200
008E35DE20
00CA002F90
01F6000DC0
AFFFF50DB0
1AE3301F80
0CC000AE20
0EB35BF500
0CEFD92000
ENDCHAR
STARTCHAR dcroat
ENCODING 273
SWIDTH 470 0
DWIDTH 5 0
BBX 7 9 0 0
BITMAP
0000A900
0000E800
02FFFD00
0025F200
04CEE000
2EABA000
7E0D7020
9D6F8B70
3EC7E800
ENDCHAR
STARTCHAR Emacron
ENCODING 274
SWIDTH 686 0
DWIDTH 8 0
BBX 9 11 0 0
BITMAP
0006FFD000
0001332000
003BEEB200
03FB44DA00
08F100AC00
06F7106500
01CFF30000
3EB5200000
9F10000000
7F943459B0
06CEFED930
ENDCHAR
STARTCHAR emacron
ENCODING 275
SWIDTH 393 0
DWIDTH 4 0
BBX 6 7 0 0
BITMAP
0AFF90
013310
07EC10
5E4F30
9DAA14
7F74C8
1AED70
ENDCHAR
STARTCHAR Ebreve
ENCODING 276
SWIDTH 686 0
DWIDTH 8 0
BBX 9 12 0 0
BITMAP
000A517700
0007FFD300
0000120000
003BEEB200
03FB44DA00
08F100AC00
06F7106500
01CFF30000
3EB5200000
9F10000000
7F943459B0
06CEFED930
ENDCHAR
STARTCHAR ebreve
ENCODING 277
SWIDTH 393 0
DWIDTH 4 0
BBX 6 9 0 0
BITMAP
030021
1F53E4
09FF90
001100
07EC10
5E4F30
9DAA14
7F74C8
1AED70
ENDCHAR
STARTCHAR Edotaccent
ENCODING 278
SWIDTH 686 0
DWIDTH 8 0
BBX 9 11 0 0
BITMAP
00008E3000
0000120000
003BEEB200
03FB44DA00
08F100AC00
06F7106500
01CFF30000
3EB5200000
9F10000000
7F943459B0
06CEFED930
ENDCHAR
STARTCHAR edotaccent
ENCODING 279
SWIDTH 393 0
DWIDTH 4 0
BBX 6 7 0 0
BITMAP
00BD00
001100
07EC10
5E4F30
9DAA14
7F74C8
1AED70
ENDCHAR
STARTCHAR Eogonek
ENCODING 280
SWIDTH 686 0
DWIDTH 8 0
BBX 9 13 0 -4
BITMAP
003BEEB200
03FB44DA00
08F100AC00
06F7106500
01CFF30000
3EB5200000
9F10000000
7F943459B0
07CEFFFD50
0002F41000
0005E10000
0001DF7000
0000020000
ENDCHAR
STARTCHAR eogonek
ENCODING 281
SWIDTH 393 0
DWIDTH 4 0
BBX 6 8 0 -3
BITMAP
07EC10
5E4F30
9C8D01
8F818A
2EEEC2
02E500
04E000
01BE60
ENDCHAR
STARTCHAR Ecaron
ENCODING 282
SWIDTH 686 0
DWIDTH 8 0
BBX 9 13 0 0
BITMAP
0002505200
0002E5D100
00008D3000
0000000000
003BEEB200
03FB44DA00
08F100AC00
06F7106500
01CFF30000
3EB5200000
9F10000000
7F943459B0
06CEFED930
ENDCHAR
STARTCHAR ecaron
ENCODING 283
SWIDTH 393 0
DWIDTH 4 0
BBX 6 10 0 0
BITMAP
024051
05D3E1
02FB60
00BB00
000000
07EC10
5E4F30
9DAA14
7F74C8
1AED70
ENDCHAR
STARTCHAR Gcircumflex
ENCODING 284
SWIDTH 811 0
DWIDTH 9 0
BBX 11 18 0 -5
BITMAP
00002DA00000
0000C9F20000
0004D1B50000
000000000000
0018DFC40000
01DD53BD0000
0AE2007E0000
1F9000350000
3F6000000000
4F600CFF3000
1FA0015F3200
08F9438F8D10
006CEEDFA100
000004EA0000
00004CD60000
0001D3F20000
0005C9A00000
0002EC200000
ENDCHAR
STARTCHAR gcircumflex
ENCODING 285
SWIDTH 479 0
DWIDTH 5 0
BBX 7 15 0 -5
BITMAP
00053000
005EB000
01D6F100
05B0D200
00000000
03CC6000
2E9BA000
7E0D7120
9D6FAE40
3ECFD300
02CE1000
1DBB0000
A6B70000
E7E10000
AE500000
ENDCHAR
STARTCHAR Gbreve
ENCODING 286
SWIDTH 811 0
DWIDTH 9 0
BBX 11 17 0 -5
BITMAP
0006914B0000
0003EFF60000
000002000000
0018DFC40000
01DD53BD0000
0AE2007E0000
1F9000350000
3F6000000000
4F600CFF3000
1FA0015F3200
08F9438F8D10
006CEEDFA100
000004EA0000
00004CD60000
0001D3F20000
0005C9A00000
0002EC200000
ENDCHAR
STARTCHAR gbreve
ENCODING 287
SWIDTH 479 0
DWIDTH 5 0
BBX 7 14 0 -5
BITMAP
02100300
0AB19B00
03EFD300
00020000
03CC6000
2E9BA000
7E0D7120
9D6FAE40
3ECFD300
02CE1000
1DBB0000
A6B70000
E7E10000
AE500000
ENDCHAR
STARTCHAR Gdotaccent
ENCODING 288
SWIDTH 811 0
DWIDTH 9 0
BBX 11 16 0 -5
BITMAP
00003E700000
000002000000
0018DFC40000
01DD53BD0000
0AE2007E0000
1F9000350000
3F6000000000
4F600CFF3000
1FA0015F3200
08F9438F8D10
006CEEDFA100
000004EA0000
00004CD60000
0001D3F20000
0005C9A00000
0002EC200000
ENDCHAR
STARTCHAR gdotaccent
ENCODING 289
SWIDTH 479 0
DWIDTH 5 0
BBX 7 12 0 -5
BITMAP
005E5000
00020000
03CC6000
2E9BA000
7E0D7120
9D6FAE40
3ECFD300
02CE1000
1DBB0000
A6B70000
E7E10000
AE500000
ENDCHAR
STARTCHAR uni0122
ENCODING 290
SWIDTH 811 0
DWIDTH 9 0
BBX 11 14 0 -5
BITMAP
0018DFC40000
01DD53BD0000
0AE2007E0000
1F9000350000
3F6000000000
4F600CFF3000
1FA0015F3200
08F9438F8D10
006CEEDFA100
001004EA0000
00A84CD60000
00A5D3F20000
0005C9A00000
0002EC200000
ENDCHAR
STARTCHAR uni0123
ENCODING 291
SWIDTH 479 0
DWIDTH 5 0
BBX 7 14 0 -5
BITMAP
00093000
000E4000
000D0000
00000000
03CC6000
2E9BA000
7E0D7120
9D6FAE40
3ECFD300
02CE1000
1DBB0000
A6B70000
E7E10000
AE500000
ENDCHAR
STARTCHAR Hcircumflex
ENCODING 292
SWIDTH 873 0
DWIDTH 10 0
BBX 12 13 -1 0
BITMAP
000000AD2000
000006DB8000
00000D56A000
000000001BE2
01AEC1009C97
1D76F401F595
1303F405F2D1
0006F209ED60
00CFFFFFD300
002DC20CA000
001F800BB004
004F5008E47C
004D1001AEB2
ENDCHAR
STARTCHAR hcircumflex
ENCODING 293
SWIDTH 502 0
DWIDTH 6 0
BBX 7 14 0 0
BITMAP
001CC000
00AAE400
02E29700
00000000
007E6000
02E8A000
09A78000
0D6C2000
1FB80000
4FBAE100
5F9DF100
6FC7C040
6F69C7B0
5D16EB10
ENDCHAR
STARTCHAR Hbar
ENCODING 294
SWIDTH 856 0
DWIDTH 9 0
BBX 10 9 0 0
BITMAP
00BA000AB0
0DFFFFFFF8
03F8223F81
03F6002F60
4FFFFFFFF3
09F3339F30
0AD000AE00
0DB000CB00
0C8000C800
ENDCHAR
STARTCHAR hbar
ENCODING 295
SWIDTH 502 0
DWIDTH 6 0
BBX 7 9 0 0
BITMAP
02E30000
06F10000
4FFEB000
0DA21000
1F69E100
3FADF100
5FC7C040
5F69C7B0
3E16EB10
ENDCHAR
STARTCHAR Itilde
ENCODING 296
SWIDTH 495 0
DWIDTH 5 0
BBX 8 12 -1 0
BITMAP
001CC3B4
006A5DB0
00000000
00BFFFE0
0017F510
0007F100
000AE000
000CB000
000E9000
002F6000
016F6100
1FFFFA00
ENDCHAR
STARTCHAR itilde
ENCODING 297
SWIDTH 246 0
DWIDTH 3 0
BBX 6 8 -1 0
BITMAP
0BD3A4
4B5DB0
000000
00D400
04F200
06E030
07E5D0
02EC30
ENDCHAR
STARTCHAR Imacron
ENCODING 298
SWIDTH 495 0
DWIDTH 5 0
BBX 7 11 -1 0
BITMAP
000CFF70
00023310
00BFFFE0
0017F510
0007F100
000AE000
000CB000
000E9000
002F6000
016F6100
1FFFFA00
ENDCHAR
STARTCHAR imacron
ENCODING 299
SWIDTH 246 0
DWIDTH 3 0
BBX 4 7 0 0
BITMAP
CFF8
2331
0D40
4F20
6E03
7E5D
2EC3
ENDCHAR
STARTCHAR Ibreve
ENCODING 300
SWIDTH 495 0
DWIDTH 5 0
BBX 8 12 -1 0
BITMAP
003B22B2
001CFFA0
00001100
00BFFFE0
0017F510
0007F100
000AE000
000CB000
000E9000
002F6000
016F6100
1FFFFA00
ENDCHAR
STARTCHAR ibreve
ENCODING 301
SWIDTH 246 0
DWIDTH 3 0
BBX 6 9 -1 0
BITMAP
030030
3F43F3
0AFF80
002100
00D400
04F200
06E030
07E5D0
02EC30
ENDCHAR
STARTCHAR Iogonek
ENCODING 302
SWIDTH 495 0
DWIDTH 5 0
BBX 7 13 -1 -4
BITMAP
00BFFFE0
0017F510
0007F100
000AE000
000CB000
000E9000
002F6000
016F6100
1FFFFA00
00A80000
00D60000
008FE000
00021000
ENDCHAR
STARTCHAR iogonek
ENCODING 303
SWIDTH 246 0
DWIDTH 3 0
BBX 5 10 0 -3
BITMAP
0CB000
011000
0D4000
3F2000
6E0100
7D2D10
4FE500
5D2000
A80000
4DD100
ENDCHAR
STARTCHAR Idotaccent
ENCODING 304
SWIDTH 495 0
DWIDTH 5 0
BBX 7 11 -1 0
BITMAP
0000DB00
00001100
00BFFFE0
0017F510
0007F100
000AE000
000CB000
000E9000
002F6000
016F6100
1FFFFA00
ENDCHAR
STARTCHAR dotlessi
ENCODING 305
SWIDTH 246 0
DWIDTH 3 0
BBX 4 5 0 0
BITMAP
0D40
4F20
6E03
7E5D
2EC3
ENDCHAR
STARTCHAR Jcircumflex
ENCODING 308
SWIDTH 743 0
DWIDTH 8 0
BBX 9 15 0 -2
BITMAP
0000AD2000
0006DB8000
000D56A000
0000000000
029DEFEC30
1DB533CD10
3F3000DB00
1C3000F800
000029F600
0008EBF200
00AD28D000
03F30D8000
05F38E1000
01DFE40000
0002000000
ENDCHAR
STARTCHAR jcircumflex
ENCODING 309
SWIDTH 254 0
DWIDTH 3 0
BBX 7 15 -3 -5
BITMAP
00002600
0000DE30
0007BA70
000D3780
00000000
0001E400
0003F300
0005F140
0006EAC0
0008F800
005E8000
05BE4000
2D4E1000
7BB90000
4EC10000
ENDCHAR
STARTCHAR uni0136
ENCODING 310
SWIDTH 937 0
DWIDTH 10 0
BBX 12 12 0 -3
BITMAP
04BEFD400C70
2F83AF206F30
3F20BC01EA00
0920DA4DB100
000BFFF60000
0004F8DC0000
4206F25F6004
AC4CC00DE6B8
2CFC3003DE90
000001000000
00002F200000
00002C000000
ENDCHAR
STARTCHAR uni0137
ENCODING 311
SWIDTH 525 0
DWIDTH 6 0
BBX 8 13 0 -3
BITMAP
007E6000
02E8A000
09A78000
0D6C2000
1FB70000
4FAAE500
5F97D900
6FB7E331
6F6F95D1
3D17ED30
01B10000
02F10000
02A00000
ENDCHAR
STARTCHAR kgreenlandic
ENCODING 312
SWIDTH 465 0
DWIDTH 5 0
BBX 7 5 0 0
BITMAP
1D5CE400
4FBAA700
6EF43220
7FE94C50
4D3CE700
ENDCHAR
STARTCHAR Lacute
ENCODING 313
SWIDTH 673 0
DWIDTH 7 0
BBX 10 13 -1 0
BITMAP
0000000052
0000000AF5
0000009A20
0000000000
00005CED40
0006F73AE0
000EA006E0
003F600350
004F400000
005F300000
017F100003
3EFFD9549A
4ED57BEEA1
ENDCHAR
STARTCHAR lacute
ENCODING 314
SWIDTH 326 0
DWIDTH 4 0
BBX 7 14 0 0
BITMAP
00000520
00009F50
0008A200
00000000
007E5000
03E9A000
09969000
0D596000
2F3D1000
4F790000
5FD20000
5F603000
2F57C000
08EB2000
ENDCHAR
STARTCHAR uni013B
ENCODING 315
SWIDTH 673 0
DWIDTH 7 0
BBX 10 12 -1 -3
BITMAP
00005CED40
0006F73AE0
000EA006E0
003F600350
004F400000
005F300000
017F100003
3EFFD9549A
4ED57BEEA1
0000100000
0002F10000
0003B00000
ENDCHAR
STARTCHAR uni013C
ENCODING 316
SWIDTH 326 0
DWIDTH 4 0
BBX 5 13 0 -3
BITMAP
007E50
03E9A0
099690
0D5960
2F3D10
4F7900
5FD200
5F6030
2F57C0
08EB20
076000
0C7000
0B2000
ENDCHAR
STARTCHAR Lcaron
ENCODING 317
SWIDTH 673 0
DWIDTH 7 0
BBX 11 10 -1 0
BITMAP
000000000250
00005CED48B0
0006F73AE850
000EA006E000
003F60035000
004F40000000
005F30000000
017F10000300
3EFFD9549A00
4ED57BEEA100
ENDCHAR
STARTCHAR lcaron
ENCODING 318
SWIDTH 237 0
DWIDTH 3 0
BBX 5 11 0 0
BITMAP
000250
0008B0
04E950
08E000
0BA000
0E7000
2F4000
5F1000
7D0400
7D6C00
3EC200
ENDCHAR
STARTCHAR Ldot
ENCODING 319
SWIDTH 673 0
DWIDTH 7 0
BBX 10 9 -1 0
BITMAP
00005CED40
0006F73AE0
000EA006E0
003F600350
004F48E200
005F311000
017F100003
3EFFD9549A
4ED57BEEA1
ENDCHAR
STARTCHAR ldot
ENCODING 320
SWIDTH 363 0
DWIDTH 4 0
BBX 6 10 0 0
BITMAP
00D500
04F300
08E000
0BB000
0E9920
2F7E40
5F1000
7F0012
5F55D4
0AED50
ENDCHAR
STARTCHAR Lslash
ENCODING 321
SWIDTH 673 0
DWIDTH 7 0
BBX 10 11 -1 0
BITMAP
00017BEFD3
0003A64320
00005CED40
0006F73AE0
000EA006F1
003F600370
004F400000
005F200000
017F100003
3EFFD9549A
4ED57BEEA1
ENDCHAR
STARTCHAR lslash
ENCODING 322
SWIDTH 326 0
DWIDTH 4 0
BBX 7 11 0 0
BITMAP
007CEE50
07D63310
008E6000
05E8A000
0C869000
1F3B4000
4F4C0000
5FC30000
5F703000
2F67C000
08EB2000
ENDCHAR
STARTCHAR Nacute
ENCODING 323
SWIDTH 884 0
DWIDTH 10 0
BBX 12 13 0 0
BITMAP
000000025000
0000004EC000
000002D60000
000000000000
19EC05DE8000
B98F5C4BF100
606FB108F100
008F700BD000
00AF200EA000
00DC003F6000
00F9005F4020
02F7004F85D1
02E3000AEC30
ENDCHAR
STARTCHAR nacute
ENCODING 324
SWIDTH 496 0
DWIDTH 5 0
BBX 7 9 0 0
BITMAP
0000C500
0006D100
000B3000
00000000
1D4AE000
4FADE000
6FB8B040
7F5AB8A0
4D07EA10
ENDCHAR
STARTCHAR uni0145
ENCODING 325
SWIDTH 884 0
DWIDTH 10 0
BBX 12 12 0 -3
BITMAP
19EC05DE8000
B98F5C4BF100
606FB108F100
008F700BD000
00AF200EA000
00DC003F6000
00F9005F4020
02F7004F85D1
02E3000AEC30
000010000000
0000E4000000
0000D1000000
ENDCHAR
STARTCHAR uni0146
ENCODING 326
SWIDTH 496 0
DWIDTH 5 0
BBX 7 8 0 -3
BITMAP
1D4AE000
4FADE000
6FB8B040
7F5AB8A0
4D07EA10
01B10000
02F10000
02A00000
ENDCHAR
STARTCHAR Ncaron
ENCODING 327
SWIDTH 884 0
DWIDTH 10 0
BBX 12 13 0 0
BITMAP
000024051000
00003E5D1000
000009D30000
000000000000
19EC05DE8000
B98F5C4BF100
606FB108F100
008F700BD000
00AF200EA000
00DC003F6000
00F9005F4020
02F7004F85D1
02E3000AEC30
ENDCHAR
STARTCHAR ncaron
ENCODING 328
SWIDTH 496 0
DWIDTH 5 0
BBX 7 10 0 0
BITMAP
00512500
00C6A800
009BD100
003E5000
00000000
1D4AE000
4FADE000
6FB8B040
7F5AB8A0
4D07EA10
ENDCHAR
STARTCHAR napostrophe
ENCODING 329
SWIDTH 496 0
DWIDTH 5 0
BBX 7 9 0 0
BITMAP
A3000000
F3000000
C0000000
00000000
1D4AE000
4FADE000
6FB8B040
7F5AB8A0
4D07EA10
ENDCHAR
STARTCHAR Eng
ENCODING 330
SWIDTH 884 0
DWIDTH 10 0
BBX 12 14 0 -5
BITMAP
19EC04DE8000
B98F5C4BF000
606FB109F000
008F700BD000
00AF200E9000
00DC002F6000
00F9006F2020
02F7009F45D1
02E300CDED30
000001F50000
002005E10000
01F61C800000
007FFB100000
000120000000
ENDCHAR
STARTCHAR eng
ENCODING 331
SWIDTH 495 0
DWIDTH 5 0
BBX 7 8 0 -3
BITMAP
1D4AE000
4FADE000
6FB8B040
7F5BA9A0
4D1EFA10
004E0000
86B70000
4D900000
ENDCHAR
STARTCHAR Omacron
ENCODING 332
SWIDTH 816 0
DWIDTH 9 0
BBX 9 11 0 0
BITMAP
0004FFF100
0000332000
0019DEC400
01DC54BF30
09E1001F90
1E90000DB0
3F60000EA0
4F50002F70
2F80008F20
0BE638F600
019EEC4000
ENDCHAR
STARTCHAR omacron
ENCODING 333
SWIDTH 451 0
DWIDTH 5 0
BBX 7 7 0 0
BITMAP
0BFF8000
01331000
08EC2000
5F7F9210
9C0DFF50
7E4C8100
1BEA1000
ENDCHAR
STARTCHAR Obreve
ENCODING 334
SWIDTH 816 0
DWIDTH 9 0
BBX 9 12 0 0
BITMAP
0007716900
0005EFE500
0000020000
0019DEC400
01DC54BF30
09E1001F90
1E90000DB0
3F60000EA0
4F50002F70
2F80008F20
0BE638F600
019EEC4000
ENDCHAR
STARTCHAR obreve
ENCODING 335
SWIDTH 451 0
DWIDTH 5 0
BBX 7 9 0 0
BITMAP
03003100
2F43E300
09FF9000
00210000
08EC2000
5F7F9210
9C0DFF50
7E4C8100
1BEA1000
ENDCHAR
STARTCHAR Ohungarumlaut
ENCODING 336
SWIDTH 816 0
DWIDTH 9 0
BBX 9 13 0 0
BITMAP
0000343400
0000B9B900
0000C1C100
0000000000
0019DEC400
01DC54BF30
09E1001F90
1E90000DB0
3F60000EA0
4F50002F70
2F80008F20
0BE638F600
019EEC4000
ENDCHAR
STARTCHAR ohungarumlaut
ENCODING 337
SWIDTH 451 0
DWIDTH 5 0
BBX 7 10 0 0
BITMAP
00424200
00E7E700
03E4E100
06666000
00000000
08EC2000
5F7F9210
9C0DFF50
7E4C8100
1BEA1000
ENDCHAR
STARTCHAR OE
ENCODING 338
SWIDTH 1124 0
DWIDTH 12 0
BBX 14 9 0 0
BITMAP
0019DFC47FFFE0
01DD54BFEA3310
09E1001FF50000
1E90000DF20000
3F60000EFFFF30
4F50002FB33200
2F80008FA00000
0BE638FCF73499
019EFC419EFD92
ENDCHAR
STARTCHAR oe
ENCODING 339
SWIDTH 668 0
DWIDTH 7 0
BBX 9 5 0 0
BITMAP
08EB7EC100
5E4DE4E300
9B0ADAA140
7E4DF74C90
1BE89EE800
ENDCHAR
STARTCHAR Racute
ENCODING 340
SWIDTH 880 0
DWIDTH 10 0
BBX 11 13 0 0
BITMAP
000000052000
0000009F6000
000008A30000
000000000000
0017DEEA2000
01CB536FB000
09B2E60CD000
1F35F47F6000
4E2FFFC30000
5C0BD9F40000
5D0CA0DC0050
1E6F806F76D0
05DE200AEC20
ENDCHAR
STARTCHAR racute
ENCODING 341
SWIDTH 455 0
DWIDTH 5 0
BBX 7 9 0 0
BITMAP
0002E200
0009B000
001C1000
00000000
1D4BE000
4FBBE340
6FA5FE40
7F402000
4D000000
ENDCHAR
STARTCHAR uni0156
ENCODING 342
SWIDTH 880 0
DWIDTH 10 0
BBX 11 12 0 -3
BITMAP
0017DEEA2000
01CB536FB000
09B2E60CD000
1F35F47F6000
4E2FFFC30000
5C0BD9F40000
5D0CA0DC0050
1E6F806F76D0
05DE200AEC20
000001000000
00004E000000
00004A000000
ENDCHAR
STARTCHAR uni0157
ENCODING 343
SWIDTH 455 0
DWIDTH 5 0
BBX 7 8 0 -3
BITMAP
1D4BE000
4FBBE340
6FA5FE40
7F402000
4D000000
49000000
8A000000
85000000
ENDCHAR
STARTCHAR Rcaron
ENCODING 344
SWIDTH 880 0
DWIDTH 10 0
BBX 11 13 0 0
BITMAP
000051150000
000098B70000
00002DA00000
000000000000
0017DEEA2000
01CB536FB000
09B2E60CD000
1F35F47F6000
4E2FFFC30000
5C0BD9F40000
5D0CA0DC0050
1E6F806F76D0
05DE200AEC20
ENDCHAR
STARTCHAR rcaron
ENCODING 345
SWIDTH 455 0
DWIDTH 5 0
BBX 7 10 0 0
BITMAP
00603300
01F2E400
00CBB000
007D2000
00000000
1D4BE000
4FBBE340
6FA5FE40
7F402000
4D000000
ENDCHAR
STARTCHAR Sacute
ENCODING 346
SWIDTH 693 0
DWIDTH 8 0
BBX 8 13 0 0
BITMAP
00000043
000008F6
00007B30
00000000
007DFD91
08E636E7
0CB000D8
09F71041
008EE910
13017ED1
9D0006F3
7E534CD0
08DFEA20
ENDCHAR
STARTCHAR sacute
ENCODING 347
SWIDTH 427 0
DWIDTH 5 0
BBX 6 9 0 0
BITMAP
0006B0
000E60
005800
000000
01D400
07F400
2DBD15
C79FBE
36FFD3
ENDCHAR
STARTCHAR Scircumflex
ENCODING 348
SWIDTH 693 0
DWIDTH 8 0
BBX 8 13 0 0
BITMAP
0001BC10
0009BD60
001E3880
00000000
007DFD91
08E636E7
0CB000D8
09F71041
008EE910
13017ED1
9D0006F3
7E534CD0
08DFEA20
ENDCHAR
STARTCHAR scircumflex
ENCODING 349
SWIDTH 427 0
DWIDTH 5 0
BBX 6 10 0 0
BITMAP
002600
00CE40
06C980
0C46A0
000000
01D400
07F400
2DBD15
C79FBE
36FFD3
ENDCHAR
STARTCHAR Scedilla
ENCODING 350
SWIDTH 693 0
DWIDTH 8 0
BBX 8 13 0 -4
BITMAP
007DFD91
08E636E7
0CB000D9
0AF81042
01AFFA10
12028FD1
8C0006F3
7E302AD0
08EFE920
0019B000
0007B000
04FE4000
00210000
ENDCHAR
STARTCHAR scedilla
ENCODING 351
SWIDTH 427 0
DWIDTH 5 0
BBX 8 8 -1 -3
BITMAP
001D5000
007F2000
01EEB010
0B85F5D1
167FFD50
0029A000
0007A000
04FC3000
ENDCHAR
STARTCHAR Scaron
ENCODING 352
SWIDTH 693 0
DWIDTH 8 0
BBX 8 13 0 0
BITMAP
00052160
00099A80
0001DA00
00000000
007DFD91
08E636E7
0CB000D8
09F71041
008EE910
13017ED1
9D0006F3
7E534CD0
08DFEA20
ENDCHAR
STARTCHAR scaron
ENCODING 353
SWIDTH 427 0
DWIDTH 5 0
BBX 6 10 0 0
BITMAP
024051
06C4E1
02EB60
00BA00
000000
01D400
07F400
2DBD15
C79FBE
36FFD3
ENDCHAR
STARTCHAR uni0162
ENCODING 354
SWIDTH 697 0
DWIDTH 8 0
BBX 10 13 0 -4
BITMAP
05ADEFFFEB
5E63AF3332
8C00CC0000
2600F90000
0003F60000
0005F30000
0008F10000
000AE00000
003FD00000
0004E40000
0002E30000
00CFA00000
0012000000
ENDCHAR
STARTCHAR uni0163
ENCODING 355
SWIDTH 393 0
DWIDTH 4 0
BBX 6 13 0 -4
BITMAP
005E80
01E8B0
07C780
0BBB10
DFFFC0
2F7310
0F5001
0D906A
07FED2
06DC10
005C00
3FF600
021000
ENDCHAR
STARTCHAR Tcaron
ENCODING 356
SWIDTH 697 0
DWIDTH 8 0
BBX 10 13 0 0
BITMAP
0000612500
0000B7C600
00002E8000
0000000000
04ADEFFFEB
5E73AF3332
8B00BC0000
3900EA0000
0002F70000
0004F40000
0007F20000
0009F00000
0009B00000
ENDCHAR
STARTCHAR tcaron
ENCODING 357
SWIDTH 343 0
DWIDTH 4 0
BBX 6 11 0 0
BITMAP
000060
0003F1
0064A0
05F200
08E000
0AB000
BFFE40
2F6100
3F3020
2F75D1
09EC40
ENDCHAR
STARTCHAR Tbar
ENCODING 358
SWIDTH 697 0
DWIDTH 8 0
BBX 10 9 0 0
BITMAP
04ADEFFFEB
5E73AF3332
8B00BC0000
4900E90000
00DFFFF300
0026F62000
0007F20000
0009F00000
0009B00000
ENDCHAR
STARTCHAR tbar
ENCODING 359
SWIDTH 343 0
DWIDTH 4 0
BBX 6 9 0 0
BITMAP
006100
05F200
08E000
0AB000
BFFE40
EFFD00
5F5161
2F76D0
08EC20
ENDCHAR
STARTCHAR Utilde
ENCODING 360
SWIDTH 890 0
DWIDTH 10 0
BBX 12 12 0 0
BITMAP
0000AD496000
0003C5CC1000
000000000000
19ED1004E100
B96F5007F200
605F400AE000
008F100DC000
00BD003FA000
00E9009F7000
02F603BF5031
02FB7D5FB8E1
009EC409EC30
ENDCHAR
STARTCHAR utilde
ENCODING 361
SWIDTH 462 0
DWIDTH 5 0
BBX 7 8 0 0
BITMAP
06E75A00
0C4AE300
00000000
0D45B000
3F1B9000
6E2F6130
7ECF7C50
3E7BE600
ENDCHAR
STARTCHAR Umacron
ENCODING 362
SWIDTH 890 0
DWIDTH 10 0
BBX 12 11 0 0
BITMAP
0000AFF90000
000013310000
19ED1004E100
B96F5007F200
605F400AE000
008F100DC000
00BD003FA000
00E9009F7000
02F603BF5031
02FB7D5FB8E1
009EC409EC30
ENDCHAR
STARTCHAR umacron
ENCODING 363
SWIDTH 462 0
DWIDTH 5 0
BBX 7 7 0 0
BITMAP
06FFE000
01332000
0D45B000
3F1B9000
6E2F6130
7ECF7C50
3E7BE600
ENDCHAR
STARTCHAR Ubreve
ENCODING 364
SWIDTH 890 0
DWIDTH 10 0
BBX 12 12 0 0
BITMAP
0001B31A4000
0000AFFB1000
000001100000
19ED1004E100
B96F5007F200
605F400AE000
008F100DC000
00BD003FA000
00E9009F7000
02F603BF5031
02FB7D5FB8E1
009EC409EC30
ENDCHAR
STARTCHAR ubreve
ENCODING 365
SWIDTH 462 0
DWIDTH 5 0
BBX 7 9 0 0
BITMAP
03101200
0C91B800
05EFC100
00120000
0D45B000
3F1B9000
6E2F6130
7ECF7C50
3E7BE600
ENDCHAR
STARTCHAR Uring
ENCODING 366
SWIDTH 890 0
DWIDTH 10 0
BBX 12 13 0 0
BITMAP
00001BE40000
00004C990000
00002EF40000
000001100000
19ED1004E100
B96F5007F200
605F400AE000
008F100DC000
00BD003FA000
00E9009F7000
02F603BF5031
02FB7D5FB8E1
009EC409EC30
ENDCHAR
STARTCHAR uring
ENCODING 367
SWIDTH 462 0
DWIDTH 5 0
BBX 7 9 0 0
BITMAP
008E7000
00F6D000
00CF8000
00020000
0D45B000
3F1B9000
6E2F6130
7ECF7C50
3E7BE600
ENDCHAR
STARTCHAR Uhungarumlaut
ENCODING 368
SWIDTH 890 0
DWIDTH 10 0
BBX 12 13 0 0
BITMAP
000006161000
00002F5F2000
000058580000
000000000000
19ED1004E100
B96F5007F200
605F400AE000
008F100DC000
00BD003FA000
00E9009F7000
02F603BF5031
02FB7D5FB8E1
009EC409EC30
ENDCHAR
STARTCHAR uhungarumlaut
ENCODING 369
SWIDTH 462 0
DWIDTH 5 0
BBX 7 10 0 0
BITMAP
00252500
008D8C00
00D5D500
01B1B000
00000000
0D45B000
3F1B9000
6E2F6130
7ECF7C50
3E7BE600
ENDCHAR
STARTCHAR Uogonek
ENCODING 370
SWIDTH 890 0
DWIDTH 10 0
BBX 12 12 0 -3
BITMAP
19ED1004E100
AA6F5007F200
705F400AE000
008F100DC000
00BD002FA000
00EA008F7000
02F602BF5010
02F94C5F95D2
009EC40AFF60
00000002F300
00000005D100
00000001CF60
ENDCHAR
STARTCHAR uogonek
ENCODING 371
SWIDTH 462 0
DWIDTH 5 0
BBX 7 8 0 -3
BITMAP
0D45B000
3F1B9000
6E2F6130
7ECF7C50
3E7CF800
002E5000
004D0000
001BE600
ENDCHAR
STARTCHAR Wcircumflex
ENCODING 372
SWIDTH 1217 0
DWIDTH 13 0
BBX 14 13 1 0
BITMAP
000001BD100000
000008CC600000
00001E37800000
00000000000000
3E2002E403DE40
7F2006F40B8CA0
9F0009F20C5B90
AE000DF108CF50
AD003FF100BFFD
9E009CF101E721
7F12E4F309D000
3FAD90DBAE3000
09E9005EC30000
ENDCHAR
STARTCHAR wcircumflex
ENCODING 373
SWIDTH 700 0
DWIDTH 8 0
BBX 10 10 0 0
BITMAP
0000610000
0008E80000
002E7C0000
00882D0000
0000000000
5C0881D600
7E1EA5F720
6E6FA6FFE1
5FDADE5200
1E93E70000
ENDCHAR
STARTCHAR Ycircumflex
ENCODING 374
SWIDTH 851 0
DWIDTH 9 0
BBX 11 17 0 -4
BITMAP
000007E40000
00004E9B0000
0000A73D0000
000000000000
09ED1003E200
AA6F5007F200
804F4009F000
007F200DD000
00AE003FB000
00DB00AF9000
00DC17AF6000
006FFB7FCD70
0002988F5100
000C50AC0000
004F25F60000
002EFF800000
000020000000
ENDCHAR
STARTCHAR ycircumflex
ENCODING 375
SWIDTH 479 0
DWIDTH 5 0
BBX 7 15 0 -5
BITMAP
00062000
007E9000
02E6D000
0881E000
00000000
0D45B000
3F1BA000
6E2F7220
7ECFAE40
3E9FC200
02CE0000
1CBB0000
A6B60000
F6E10000
BE500000
ENDCHAR
STARTCHAR Ydieresis
ENCODING 376
SWIDTH 851 0
DWIDTH 9 0
BBX 11 15 0 -4
BITMAP
00009B5E1000
000011020000
09ED1003E200
AA6F5007F200
804F4009F000
007F200DD000
00AE003FB000
00DB00AF9000
00DC17AF6000
006FFB7FCD70
0002988F5100
000C50AC0000
004F25F60000
002EFF800000
000020000000
ENDCHAR
STARTCHAR Zacute
ENCODING 377
SWIDTH 721 0
DWIDTH 8 0
BBX 10 13 0 0
BITMAP
0000002500
000005EA00
00003C5000
0000000000
04AEFEDA40
2F8434ED40
5F0007F400
1A102E9000
0000BE1000
0008F50000
015F900012
8FFFB735D3
9EB59DFD50
ENDCHAR
STARTCHAR zacute
ENCODING 378
SWIDTH 445 0
DWIDTH 5 0
BBX 7 9 0 0
BITMAP
0003E100
000AA000
002B0000
00000000
4FFFF200
04CD6000
1D900320
4F737E20
09EEB300
ENDCHAR
STARTCHAR Zdotaccent
ENCODING 379
SWIDTH 721 0
DWIDTH 8 0
BBX 10 11 0 0
BITMAP
0000AE1000
0000110000
04AEFEDA40
2F8434ED40
5F0007F400
1A102E9000
0000BE1000
0008F50000
015F900012
8FFFB735D3
9EB59DFD50
ENDCHAR
STARTCHAR zdotaccent
ENCODING 380
SWIDTH 445 0
DWIDTH 5 0
BBX 7 7 0 0
BITMAP
008E2000
00110000
4FFFF200
04CD6000
1D900320
4F737E20
09EEB300
ENDCHAR
STARTCHAR Zcaron
ENCODING 381
SWIDTH 721 0
DWIDTH 8 0
BBX 10 13 0 0
BITMAP
0003406100
0005D7C000
0000AC2000
0000000000
04AEFEDA40
2F8434ED40
5F0007F400
1A102E9000
0000BE1000
0008F50000
015F900012
8FFFB735D3
9EB59DFD50
ENDCHAR
STARTCHAR zcaron
ENCODING 382
SWIDTH 445 0
DWIDTH 5 0
BBX 7 10 0 0
BITMAP
01604300
02F2E300
00DBA000
008D1000
00000000
4FFFF200
04CD6000
1D900320
4F737E20
09EEB300
ENDCHAR
STARTCHAR uni018F
ENCODING 399
SWIDTH 792 0
DWIDTH 9 0
BBX 9 9 0 0
BITMAP
006CFEA200
06E735DD00
0210005F50
0000002F70
2EFFFFFF60
5F63338F40
3F7000CD00
0BE54BF400
019EEB3000
ENDCHAR
STARTCHAR florin
ENCODING 402
SWIDTH 478 0
DWIDTH 5 0
BBX 7 12 -1 -4
BITMAP
0001BEB0
0009E410
000CA000
07FFFF50
013F8200
002F4000
004F2000
006F0000
008E0000
01CB0000
9FE30000
12000000
ENDCHAR
STARTCHAR Ohorn
ENCODING 416
SWIDTH 816 0
DWIDTH 9 0
BBX 10 11 0 0
BITMAP
00000000A5
00000003F5
0019DFFFC0
01DC54BF30
09E1001F90
1E90000DB0
3F60000EA0
4F50002F70
2F80008F20
0BE638F600
019EEB4000
ENDCHAR
STARTCHAR ohorn
ENCODING 417
SWIDTH 451 0
DWIDTH 5 0
BBX 7 7 0 0
BITMAP
00003200
0000B600
08EFC100
5F7F9210
9C0DFF50
7E4C8100
1BEA1000
ENDCHAR
STARTCHAR Uhorn
ENCODING 431
SWIDTH 890 0
DWIDTH 10 0
BBX 12 11 0 0
BITMAP
0000000004C0
000000000AB0
19ED1004FB20
B96F5007F100
605F400AE000
008F100DB000
00BD003F9000
00E9009F7000
02F603BF5031
02FB7D5FB8E1
009EC409EC30
ENDCHAR
STARTCHAR uhorn
ENCODING 432
SWIDTH 512 0
DWIDTH 6 0
BBX 7 7 0 0
BITMAP
00000510
00001E20
0D45F900
3F1B9000
6E2F6030
7ECF76D0
3E7AEB10
ENDCHAR
STARTCHAR uni01C4
ENCODING 452
SWIDTH 1531 0
DWIDTH 17 0
BBX 18 13 1 0
BITMAP
000000000004306000
000000000006C8B000
000000000000CC1000
000000000000000000
19DFD91004BEFEDA30
28547ED13F7335ED30
0A5004F76E0008F300
3F4000FA2A103F8000
7F1000F90001CD0000
AD0003F70009F30000
DB000BE1016F800021
FA46CE409FFFB636D2
DFED9200AEA59DFC40
ENDCHAR
STARTCHAR uni01C5
ENCODING 453
SWIDTH 1191 0
DWIDTH 13 0
BBX 13 10 1 0
BITMAP
00000000052150
19DFD9100B7990
28547ED107BE10
0A5004F703E600
3F4000FA000000
7F1000F9CFFF40
AD0003F728F800
DB000BE16E4000
FA46CE42F73300
DFED9204FFFF40
ENDCHAR
STARTCHAR uni01C6
ENCODING 454
SWIDTH 895 0
DWIDTH 10 0
BBX 12 9 0 0
BITMAP
0000A93D0C50
0000E71F8C00
0002F40BE300
0004F1012000
04CED5FFFF10
2E9BA04CC500
7E0D72E80032
9D7F9CF859E2
3EC6E79EEB30
ENDCHAR
STARTCHAR uni01C7
ENCODING 455
SWIDTH 1276 0
DWIDTH 14 0
BBX 16 11 -1 -2
BITMAP
00007DFB107DFEB2
0008F64F88D53EC1
000EA00D8C900F90
003F600628902F60
004F400000029F40
005F3000007ECF10
017F10000AC1AB00
3EFFD9538F11E600
4ED57BEEDE1AD000
000000003EFD3000
0000000001200000
ENDCHAR
STARTCHAR uni01C8
ENCODING 456
SWIDTH 927 0
DWIDTH 10 0
BBX 13 14 -1 -5
BITMAP
00005CED500000
0006F73AE00000
000EA006E9E100
003F6002411000
004F400008A000
005F30000C9000
017F10000D7220
3EFFD9538F8D30
4ED57BEECFC200
00000001CE0000
0000002CCA0000
000000B5C60000
000001F6E10000
000000BE500000
ENDCHAR
STARTCHAR uni01C9
ENCODING 457
SWIDTH 610 0
DWIDTH 7 0
BBX 8 15 0 -5
BITMAP
007E5000
03E9A000
09969000
0D599E80
2F3E1200
4F792E30
5FD24F10
5F607E04
2F57FDBA
08EBCF70
0007F700
007BF300
03C5D000
08AC7000
04EB1000
ENDCHAR
STARTCHAR uni01CA
ENCODING 458
SWIDTH 1497 0
DWIDTH 16 0
BBX 17 11 0 -2
BITMAP
19EC05DE8029DFFD70
B88F5C4BF1DB438F20
406FC108F2F4008E00
008F700BD0A300AC00
00AF200EA00017EA00
00DC003F6005EBF600
00F9005F405E44F200
02F7004F85E809C000
02E3000AEDF74F4000
0000000000AFF70000
000000000002100000
ENDCHAR
STARTCHAR uni01CB
ENCODING 459
SWIDTH 1138 0
DWIDTH 13 0
BBX 14 14 0 -5
BITMAP
09EC05DE800000
A98F5C4BF10000
806FB108F15E50
008F700BD00200
00AF200EA04E00
00DC003F607D00
00F9005F409B02
02F7004F85EBC8
02E3000AECEE60
0000000009F400
00000000ABF100
00000006A7B000
0000000B8E4000
00000007E90000
ENDCHAR
STARTCHAR uni01CC
ENCODING 460
SWIDTH 750 0
DWIDTH 8 0
BBX 10 12 0 -5
BITMAP
0000008E10
0000001100
1D4AE08A00
4FADE0B900
6FB8B0D722
7F5AB8FAE4
4D07EBFC20
00002CE000
0001DBB000
000A6B7000
000F6E1000
000BE50000
ENDCHAR
STARTCHAR Gcaron
ENCODING 486
SWIDTH 811 0
DWIDTH 9 0
BBX 11 18 0 -5
BITMAP
000060340000
0000C6D50000
00004E700000
000000000000
0018DFC40000
01DD53BD0000
0AE2007E0000
1F9000350000
3F6000000000
4F600CFF3000
1FA0015F3200
08F9438F8D10
006CEEDFA100
000004EA0000
00004CD60000
0001D3F20000
0005C9A00000
0002EC200000
ENDCHAR
STARTCHAR gcaron
ENCODING 487
SWIDTH 479 0
DWIDTH 5 0
BBX 7 15 0 -5
BITMAP
00612400
00D4C700
00ABD000
005E4000
00000000
03CC6000
2E9BA000
7E0D7120
9D6FAE40
3ECFD300
02CE1000
1DBB0000
A6B70000
E7E10000
AE500000
ENDCHAR
STARTCHAR uni01EA
ENCODING 490
SWIDTH 816 0
DWIDTH 9 0
BBX 9 12 0 -3
BITMAP
0018DEC400
01CD54BF30
09E1002F90
0E90000DB0
3F60000DB0
4F50001F80
3F80007F30
0DE416F900
03DFFF9000
0007E20000
0008B00000
0003DE3000
ENDCHAR
STARTCHAR uni01EB
ENCODING 491
SWIDTH 451 0
DWIDTH 5 0
BBX 7 8 0 -3
BITMAP
08EC2000
5F7F9210
9C0DFF50
8D0B8100
2EFD1000
05D10000
09900000
04DD2000
ENDCHAR
STARTCHAR Aringacute
ENCODING 506
SWIDTH 786 0
DWIDTH 9 0
BBX 11 14 0 0
BITMAP
000000000990
000003DC7920
00000A8D3000
000006FD1000
000000200000
00039DEEC200
006FC6577000
04F8008F0000
0DC000CC0000
3F6001F90000
5F4005F60000
5F500CF40400
1EC5ACF97D00
04DEA1AFC200
ENDCHAR
STARTCHAR aringacute
ENCODING 507
SWIDTH 470 0
DWIDTH 5 0
BBX 8 10 0 0
BITMAP
000002D2
006EA970
00D6F000
009FA000
00020000
03CC6000
2EABA000
7E0D7020
9D6F8B70
3EC7E800
ENDCHAR
STARTCHAR AEacute
ENCODING 508
SWIDTH 1015 0
DWIDTH 11 0
BBX 13 13 0 0
BITMAP
00000000043000
000000007F7000
00000006B30000
00000000000000
0004BE69FFFB00
007FB53F733100
05F8006F200000
0DC000BE000000
3F6001EFFFE000
5F4005F9332000
5F500BF7000000
1EC39CCE535B70
04DFB22AEEC810
ENDCHAR
STARTCHAR aeacute
ENCODING 509
SWIDTH 653 0
DWIDTH 7 0
BBX 9 9 0 0
BITMAP
000008A000
00001E5000
0000760000
0000000000
04CEAEB000
2F99D5F100
8D0CCB8130
8D5FE65D60
3DD4BFD600
ENDCHAR
STARTCHAR Oslashacute
ENCODING 510
SWIDTH 816 0
DWIDTH 9 0
BBX 9 14 0 -1
BITMAP
0000016000
00002CE200
0000C81000
000007A000
0019DFD400
01DC5FCF30
09E15D2F90
1E90990DB0
3F60D50EA0
4F52F11F70
2F86C08F20
0BECA7F600
019FEC4000
003D000000
ENDCHAR
STARTCHAR oslashacute
ENCODING 511
SWIDTH 459 0
DWIDTH 5 0
BBX 7 11 0 -2
BITMAP
006B0000
00E60000
05940000
00490000
09ED3000
5EBCC320
9BB7FE50
8DCB9000
1CFB1000
05700000
03200000
ENDCHAR
STARTCHAR uni0200
ENCODING 512
SWIDTH 786 0
DWIDTH 9 0
BBX 10 13 0 0
BITMAP
0000333300
00008B8B00
00001C1C00
0000000000
00039DEEC2
006FC65770
04F8008F00
0DC000CC00
3F6001F900
5F4005F600
5F500CF404
1EC5ACF97D
04DEA1AFC2
ENDCHAR
STARTCHAR uni0201
ENCODING 513
SWIDTH 470 0
DWIDTH 5 0
BBX 7 10 0 0
BITMAP
06160000
2F6F3000
0A8A8000
02A2A000
00000000
03CC6000
2EABA000
7E0D7020
9D6F8B70
3EC7E800
ENDCHAR
STARTCHAR uni0202
ENCODING 514
SWIDTH 786 0
DWIDTH 9 0
BBX 10 12 0 0
BITMAP
000019ED50
00007C47E0
0000110010
00039DEEC2
006FC65770
04F8008F00
0DC000CC00
3F6001F900
5F4005F600
5F500CF404
1EC5ACF97D
04DEA1AFC2
ENDCHAR
STARTCHAR uni0203
ENCODING 515
SWIDTH 470 0
DWIDTH 5 0
BBX 7 8 0 0
BITMAP
01AFC200
08C3CA00
06303600
03CC6000
2EABA000
7E0D7020
9D6F8B70
3EC7E800
ENDCHAR
STARTCHAR uni0204
ENCODING 516
SWIDTH 686 0
DWIDTH 8 0
BBX 9 13 0 0
BITMAP
0006161000
000E6E5000
0005858000
0000000000
003BEEB200
03FB44DA00
08F100AC00
06F7106500
01CFF30000
3EB5200000
9F10000000
7F943459B0
06CEFED930
ENDCHAR
STARTCHAR uni0205
ENCODING 517
SWIDTH 393 0
DWIDTH 4 0
BBX 6 10 0 0
BITMAP
333300
9C9C00
2F3F10
084840
000000
07EC10
5E4F30
9DAA14
7F74C8
1AED70
ENDCHAR
STARTCHAR uni0206
ENCODING 518
SWIDTH 686 0
DWIDTH 8 0
BBX 9 12 0 0
BITMAP
0003CEB200
000C83C900
0001001100
003BEEB200
03FB44DA00
08F100AC00
06F7106500
01CFF30000
3EB5200000
9F10000000
7F943459B0
06CEFED930
ENDCHAR
STARTCHAR uni0207
ENCODING 519
SWIDTH 393 0
DWIDTH 4 0
BBX 6 8 0 0
BITMAP
04DE80
1E75F3
180072
07EC10
5E4F30
9DAA14
7F74C8
1AED70
ENDCHAR
STARTCHAR uni0208
ENCODING 520
SWIDTH 495 0
DWIDTH 5 0
BBX 7 13 -1 0
BITMAP
00252400
005E5E00
000B3B20
00000000
00BFFFE0
0017F510
0007F100
000AE000
000CB000
000E9000
002F6000
016F6100
1FFFFA00
ENDCHAR
STARTCHAR uni0209
ENCODING 521
SWIDTH 246 0
DWIDTH 3 0
BBX 5 10 -1 0
BITMAP
434300
AABA00
3E4E00
093A30
000000
00D400
04F200
06E030
07E5D0
02EC30
ENDCHAR
STARTCHAR uni020A
ENCODING 522
SWIDTH 495 0
DWIDTH 5 0
BBX 8 12 -1 0
BITMAP
0007EE80
003E55F3
00010010
00BFFFE0
0017F510
0007F100
000AE000
000CB000
000E9000
002F6000
016F6100
1FFFFA00
ENDCHAR
STARTCHAR uni020B
ENCODING 523
SWIDTH 246 0
DWIDTH 3 0
BBX 6 8 -1 0
BITMAP
05EE60
2F66F2
270081
00D400
04F200
06E030
07E5D0
02EC30
ENDCHAR
STARTCHAR uni020C
ENCODING 524
SWIDTH 816 0
DWIDTH 9 0
BBX 9 13 0 0
BITMAP
0005252000
000B8B8000
0003B3B000
0000000000
0019DEC400
01DC54BF30
09E1001F90
1E90000DB0
3F60000EA0
4F50002F70
2F80008F20
0BE638F600
019EEC4000
ENDCHAR
STARTCHAR uni020D
ENCODING 525
SWIDTH 451 0
DWIDTH 5 0
BBX 7 10 0 0
BITMAP
33430000
ABAB0000
3E4E1000
09493000
00000000
08EC2000
5F7F9210
9C0DFF50
7E4C8100
1BEA1000
ENDCHAR
STARTCHAR uni020E
ENCODING 526
SWIDTH 816 0
DWIDTH 9 0
BBX 9 12 0 0
BITMAP
0002BEC300
000AA3AB00
0001000100
0019DEC400
01DC54BF30
09E1001F90
1E90000DB0
3F60000EA0
4F50002F70
2F80008F20
0BE638F600
019EEC4000
ENDCHAR
STARTCHAR uni020F
ENCODING 527
SWIDTH 451 0
DWIDTH 5 0
BBX 7 8 0 0
BITMAP
05DE7000
1F66F200
17007200
08EC2000
5F7F9210
9C0DFF50
7E4C8100
1BEA1000
ENDCHAR
STARTCHAR uni0210
ENCODING 528
SWIDTH 880 0
DWIDTH 10 0
BBX 11 13 0 0
BITMAP
000242400000
0006D6D00000
0000C2C10000
000000000000
0017DEEA2000
01CB536FB000
09B2E60CD000
1F35F47F6000
4E2FFFC30000
5C0BD9F40000
5D0CA0DC0050
1E6F806F76D0
05DE200AEC20
ENDCHAR
STARTCHAR uni0211
ENCODING 529
SWIDTH 455 0
DWIDTH 5 0
BBX 7 10 0 0
BITMAP
15150000
5F6F1000
0D5D5000
04848000
00000000
1D4BE000
4FBBE340
6FA5FE40
7F402000
4D000000
ENDCHAR
STARTCHAR uni0212
ENCODING 530
SWIDTH 880 0
DWIDTH 10 0
BBX 11 12 0 0
BITMAP
00008ED70000
0005D46F1000
000010010000
0017DEEA2000
01CB536FB000
09B2E60CD000
1F35F47F6000
4E2FFFC30000
5C0BD9F40000
5D0CA0DC0050
1E6F806F76D0
05DE200AEC20
ENDCHAR
STARTCHAR uni0213
ENCODING 531
SWIDTH 455 0
DWIDTH 5 0
BBX 7 8 0 0
BITMAP
02CFB100
0BA4D700
07104400
1D4BE000
4FBBE340
6FA5FE40
7F402000
4D000000
ENDCHAR
STARTCHAR uni0214
ENCODING 532
SWIDTH 890 0
DWIDTH 10 0
BBX 12 13 0 0
BITMAP
000151500000
0003F4F20000
000095950000
000000000000
19ED1004E100
B96F5007F200
605F400AE000
008F100DC000
00BD003FA000
00E9009F7000
02F603BF5031
02FB7D5FB8E1
009EC409EC30
ENDCHAR
STARTCHAR uni0215
ENCODING 533
SWIDTH 462 0
DWIDTH 5 0
BBX 7 10 0 0
BITMAP
15150000
5F6F1000
0C6C5000
04948000
00000000
0D45B000
3F1B9000
6E2F6130
7ECF7C50
3E7BE600
ENDCHAR
STARTCHAR uni0216
ENCODING 534
SWIDTH 890 0
DWIDTH 10 0
BBX 12 12 0 0
BITMAP
00005DE90000
0001E64E5000
000010010000
19ED1004E100
B96F5007F200
605F400AE000
008F100DC000
00BD003FA000
00E9009F7000
02F603BF5031
02FB7D5FB8E1
009EC409EC30
ENDCHAR
STARTCHAR uni0217
ENCODING 535
SWIDTH 462 0
DWIDTH 5 0
BBX 7 8 0 0
BITMAP
01BFB100
0BA4D800
07104500
0D45B000
3F1B9000
6E2F6130
7ECF7C50
3E7BE600
ENDCHAR
STARTCHAR uni0218
ENCODING 536
SWIDTH 693 0
DWIDTH 8 0
BBX 8 12 0 -3
BITMAP
007DFD91
08E636E7
0CB000D8
09F71041
008EE910
13017ED1
9D0006F3
7E534CD0
08DFEA20
00010000
002F1000
003B0000
ENDCHAR
STARTCHAR uni0219
ENCODING 537
SWIDTH 427 0
DWIDTH 5 0
BBX 6 8 0 -3
BITMAP
01D400
07F400
2DBD15
C79FBE
36FFD3
01B100
03E000
03A000
ENDCHAR
STARTCHAR uni021A
ENCODING 538
SWIDTH 697 0
DWIDTH 8 0
BBX 10 12 0 -3
BITMAP
04ADEFFFEB
5E73AF3332
8B00BC0000
3900EA0000
0002F70000
0004F40000
0007F20000
0009F00000
0009B00000
0001000000
000B800000
000B400000
ENDCHAR
STARTCHAR uni021B
ENCODING 539
SWIDTH 393 0
DWIDTH 4 0
BBX 6 13 0 -3
BITMAP
003D70
00D9C0
04D5A0
08AA60
0BCB00
DFFFC0
2F7310
0F6003
0CB499
03DE90
00B200
02F100
02B000
ENDCHAR
STARTCHAR uni022A
ENCODING 554
SWIDTH 816 0
DWIDTH 9 0
BBX 9 14 0 0
BITMAP
0000EFF600
0000233000
0000000000
0005E2E500
0000202000
0019DEC400
01DC54BF30
09E1001F90
1E90000DB0
3F60000EA0
4F50002F70
2F80008F20
0BE638F600
019EEC4000
ENDCHAR
STARTCHAR uni022B
ENCODING 555
SWIDTH 451 0
DWIDTH 5 0
BBX 7 10 0 0
BITMAP
06FFD000
01332000
00000000
0B87C000
01011000
08EC2000
5F7F9210
9C0DFF50
7E4C8100
1BEA1000
ENDCHAR
STARTCHAR uni022C
ENCODING 556
SWIDTH 816 0
DWIDTH 9 0
BBX 9 14 0 0
BITMAP
0000DFF700
0000233000
0004E93C00
000B69E600
0000000000
0019DEC400
01DC54BF30
09E1001F90
1E90000DB0
3F60000EA0
4F50002F70
2F80008F20
0BE638F600
019EEC4000
ENDCHAR
STARTCHAR uni022D
ENCODING 557
SWIDTH 451 0
DWIDTH 5 0
BBX 7 10 0 0
BITMAP
06FFE000
01332000
0AD4A500
4B4CB000
00000000
08EC2000
5F7F9210
9C0DFF50
7E4C8100
1BEA1000
ENDCHAR
STARTCHAR uni0230
ENCODING 560
SWIDTH 816 0
DWIDTH 9 0
BBX 9 14 0 0
BITMAP
0000EFF600
0000233000
0000000000
00005E5000
0000020000
0019DEC400
01DC54BF30
09E1001F90
1E90000DB0
3F60000EA0
4F50002F70
2F80008F20
0BE638F600
019EEC4000
ENDCHAR
STARTCHAR uni0231
ENCODING 561
SWIDTH 451 0
DWIDTH 5 0
BBX 7 10 0 0
BITMAP
06FFD000
01332000
00000000
00CC0000
00110000
08EC2000
5F7F9210
9C0DFF50
7E4C8100
1BEA1000
ENDCHAR
STARTCHAR uni0232
ENCODING 562
SWIDTH 851 0
DWIDTH 9 0
BBX 11 15 0 -4
BITMAP
00008FFC0000
000013310000
09ED1003E200
AA6F5007F200
804F4009F000
007F200DD000
00AE003FB000
00DB00AF9000
00DC17AF6000
006FFB7FCD70
0002988F5100
000C50AC0000
004F25F60000
002EFF800000
000020000000
ENDCHAR
STARTCHAR uni0233
ENCODING 563
SWIDTH 479 0
DWIDTH 5 0
BBX 7 12 0 -5
BITMAP
06FFE000
01332000
0D45B000
3F1BA000
6E2F7220
7ECFAE40
3E9FC200
02CE0000
1CBB0000
A6B60000
F6E10000
BE500000
ENDCHAR
STARTCHAR uni0237
ENCODING 567
SWIDTH 254 0
DWIDTH 3 0
BBX 7 10 -3 -5
BITMAP
0001E400
0003F300
0005F140
0006EAC0
0008F800
005E8000
05BE4000
2D4E1000
7BB90000
4EC10000
ENDCHAR
STARTCHAR uni0259
ENCODING 601
SWIDTH 458 0
DWIDTH 5 0
BBX 5 5 0 0
BITMAP
2DFC20
143CA0
6FFFC0
7D6D90
1CFB10
ENDCHAR
STARTCHAR uni02BC
ENCODING 700
SWIDTH 600 0
DWIDTH 7 0
BBX 3 3 2 6
BITMAP
0A30
1F30
1C00
ENDCHAR
STARTCHAR circumflex
ENCODING 710
SWIDTH 600 0
DWIDTH 7 0
BBX 5 4 1 6
BITMAP
005200
06EA00
1E6E00
6A1E10
ENDCHAR
STARTCHAR caron
ENCODING 711
SWIDTH 600 0
DWIDTH 7 0
BBX 4 4 2 6
BITMAP
6034
E3D6
BBC0
6E30
ENDCHAR
STARTCHAR uni02C9
ENCODING 713
SWIDTH 600 0
DWIDTH 7 0
BBX 5 2 1 5
BITMAP
5FFF10
033200
ENDCHAR
STARTCHAR breve
ENCODING 728
SWIDTH 600 0
DWIDTH 7 0
BBX 5 4 1 5
BITMAP
210120
BA1AA0
4EFD20
012000
ENDCHAR
STARTCHAR dotaccent
ENCODING 729
SWIDTH 600 0
DWIDTH 7 0
BBX 3 2 2 5
BITMAP
6E40
0200
ENDCHAR
STARTCHAR ring
ENCODING 730
SWIDTH 600 0
DWIDTH 7 0
BBX 3 4 2 5
BITMAP
7E80
E6E0
BF90
0200
ENDCHAR
STARTCHAR ogonek
ENCODING 731
SWIDTH 600 0
DWIDTH 7 0
BBX 4 5 1 -4
BITMAP
0300
2D20
7B00
4FF4
0120
ENDCHAR
STARTCHAR tilde
ENCODING 732
SWIDTH 600 0
DWIDTH 7 0
BBX 5 2 1 6
BITMAP
5E84B0
B59E40
ENDCHAR
STARTCHAR hungarumlaut
ENCODING 733
SWIDTH 600 0
DWIDTH 7 0
BBX 4 4 2 6
BITMAP
1515
7E7E
C7C6
C1C0
ENDCHAR
STARTCHAR gravecomb
ENCODING 768
SWIDTH 0 0
DWIDTH 0 0
BBX 4 4 -6 6
BITMAP
0600
2F40
09B0
00B1
ENDCHAR
STARTCHAR acutecomb
ENCODING 769
SWIDTH 0 0
DWIDTH 0 0
BBX 3 3 -4 6
BITMAP
0990
2E40
8500
ENDCHAR
STARTCHAR uni0302
ENCODING 770
SWIDTH 0 0
DWIDTH 0 0
BBX 5 4 -6 6
BITMAP
003500
01EE10
099C50
1D2970
ENDCHAR
STARTCHAR tildecomb
ENCODING 771
SWIDTH 0 0
DWIDTH 0 0
BBX 6 2 -6 6
BITMAP
1CC2C2
696D90
ENDCHAR
STARTCHAR uni0304
ENCODING 772
SWIDTH 0 0
DWIDTH 0 0
BBX 4 2 -5 5
BITMAP
DFF6
2330
ENDCHAR
STARTCHAR uni0306
ENCODING 774
SWIDTH 0 0
DWIDTH 0 0
BBX 6 4 -6 5
BITMAP
130030
5E25F1
1BFF60
002100
ENDCHAR
STARTCHAR uni0307
ENCODING 775
SWIDTH 0 0
DWIDTH 0 0
BBX 3 2 -5 5
BITMAP
1D90
0200
ENDCHAR
STARTCHAR uni0308
ENCODING 776
SWIDTH 0 0
DWIDTH 0 0
BBX 4 2 -5 5
BITMAP
D5AA
2011
ENDCHAR
STARTCHAR hookabovecomb
ENCODING 777
SWIDTH 0 0
DWIDTH 0 0
BBX 4 4 -5 5
BITMAP
2ED2
03C5
0BD1
0100
ENDCHAR
STARTCHAR uni030A
ENCODING 778
SWIDTH 0 0
DWIDTH 0 0
BBX 4 4 -5 5
BITMAP
2DD1
89C5
5FE1
0100
ENDCHAR
STARTCHAR uni030B
ENCODING 779
SWIDTH 0 0
DWIDTH 0 0
BBX 5 4 -5 6
BITMAP
051510
1F6F50
6C6C00
848400
ENDCHAR
STARTCHAR uni030C
ENCODING 780
SWIDTH 0 0
DWIDTH 0 0
BBX 4 4 -5 6
BITMAP
4306
897C
5CD3
1D80
ENDCHAR
STARTCHAR uni030F
ENCODING 783
SWIDTH 0 0
DWIDTH 0 0
BBX 5 4 -6 6
BITMAP
525200
C8C800
5D5D00
0B1B10
ENDCHAR
STARTCHAR uni0311
ENCODING 785
SWIDTH 0 0
DWIDTH 0 0
BBX 5 3 -6 5
BITMAP
06EE50
4F58E0
360080
ENDCHAR
STARTCHAR uni0312
ENCODING 786
SWIDTH 0 0
DWIDTH 0 0
BBX 2 3 -4 6
BITMAP
57
A9
94
ENDCHAR
STARTCHAR uni031B
ENCODING 795
SWIDTH 0 0
DWIDTH 0 0
BBX 3 4 -4 3
BITMAP
0210
0B60
7D20
1000
ENDCHAR
STARTCHAR dotbelowcomb
ENCODING 803
SWIDTH 0 0
DWIDTH 0 0
BBX 3 2 -6 -3
BITMAP
1D90
0200
ENDCHAR
STARTCHAR uni0324
ENCODING 804
SWIDTH 0 0
DWIDTH 0 0
BBX 5 2 -7 -3
BITMAP
1E5A90
020110
ENDCHAR
STARTCHAR uni0326
ENCODING 806
SWIDTH 0 0
DWIDTH 0 0
BBX 2 3 -5 -3
BITMAP
85
C6
B1
ENDCHAR
STARTCHAR uni0327
ENCODING 807
SWIDTH 0 0
DWIDTH 0 0
BBX 4 4 -6 -4
BITMAP
3FB0
04F2
DFA0
1100
ENDCHAR
STARTCHAR uni0328
ENCODING 808
SWIDTH 0 0
DWIDTH 0 0
BBX 4 5 -6 -4
BITMAP
0130
0B60
1F20
0CFA
0020
ENDCHAR
STARTCHAR uni032E
ENCODING 814
SWIDTH 0 0
DWIDTH 0 0
BBX 5 4 -7 -4
BITMAP
120030
6D27E0
1CFE50
002100
ENDCHAR
STARTCHAR uni0331
ENCODING 817
SWIDTH 0 0
DWIDTH 0 0
BBX 4 2 -6 -3
BITMAP
CFF8
2331
ENDCHAR
STARTCHAR uni0394
ENCODING 916
SWIDTH 700 0
DWIDTH 8 0
BBX 7 10 0 0
BITMAP
0001D300
0007F700
000DEA00
004F6C00
00AA3F00
02F31F30
08C00E60
0D600B80
5F766CB0
8FFFFFC0
ENDCHAR
STARTCHAR uni03A9
ENCODING 937
SWIDTH 816 0
DWIDTH 9 0
BBX 10 10 -1 0
BITMAP
00018DEB30
000CFA8EE2
007F5004F8
00EB0000EB
02F70000DB
04F50000E9
03F60003F6
01E9000BD0
06CF408FA4
2FFF81FFFA
ENDCHAR
STARTCHAR uni03BC
ENCODING 956
SWIDTH 462 0
DWIDTH 5 0
BBX 7 9 0 -3
BITMAP
0C45B000
3F2AA000
5F0E7000
7D5F5560
8FDF9D30
9F7AE500
AA000000
AA000000
98000000
ENDCHAR
STARTCHAR pi
ENCODING 960
SWIDTH 496 0
DWIDTH 5 0
BBX 7 6 0 0
BITMAP
AFFFFE00
3F78E100
4F29C000
6E0BA070
8D0ACA90
8A05EA00
ENDCHAR
STARTCHAR uni0400
ENCODING 1024
SWIDTH 686 0
DWIDTH 8 0
BBX 9 13 0 0
BITMAP
0043000000
009F600000
0004C50000
0000000000
003BEEB200
03FB44DA00
08F100AC00
06F7106500
01CFF30000
3EB5200000
9F10000000
7F943459B0
06CEFED930
ENDCHAR
STARTCHAR uni0401
ENCODING 1025
SWIDTH 686 0
DWIDTH 8 0
BBX 9 11 0 0
BITMAP
0007D3E200
0001102000
003BEEB200
03FB44DA00
08F100AC00
06F7106500
01CFF30000
3EB5200000
9F10000000
7F943459B0
06CEFED930
ENDCHAR
STARTCHAR uni0402
ENCODING 1026
SWIDTH 974 0
DWIDTH 11 0
BBX 12 14 0 -5
BITMAP
039CEFFFEB00
4E63AF223200
8B00BC000000
5B00EA000000
0002F89EE600
0004FD73BF00
0007F5009F17
0009F000AEEA
0009B000DE60
0000001CF700
000001DDF300
000009B8D000
00000D8E6000
000009E90000
ENDCHAR
STARTCHAR uni0403
ENCODING 1027
SWIDTH 635 0
DWIDTH 7 0
BBX 10 13 0 0
BITMAP
0000005200
00000AF500
00009A2000
0000000010
05BEFFFFF5
5F7AF22210
9B0BC00000
490EA00000
002F700000
004F400000
007F200000
009F000000
008B000000
ENDCHAR
STARTCHAR uni0404
ENCODING 1028
SWIDTH 687 0
DWIDTH 8 0
BBX 9 9 0 0
BITMAP
0019DEB200
01DD43D900
09E200C900
1F90002100
3FFFFD0000
4F72210000
1FA0000000
08F94349B0
006CEED930
ENDCHAR
STARTCHAR uni0405
ENCODING 1029
SWIDTH 693 0
DWIDTH 8 0
BBX 8 9 0 0
BITMAP
007DFD91
08E636E7
0CB000D8
09F71041
008EE910
13017ED1
9D0006F3
7E534CD0
08DFEA20
ENDCHAR
STARTCHAR uni0406
ENCODING 1030
SWIDTH 495 0
DWIDTH 5 0
BBX 7 9 -1 0
BITMAP
00BFFFE0
0017F510
0007F100
000AE000
000CB000
000E9000
002F6000
016F6100
1FFFFA00
ENDCHAR
STARTCHAR uni0407
ENCODING 1031
SWIDTH 495 0
DWIDTH 5 0
BBX 7 11 -1 0
BITMAP
000D79B0
00020110
00BFFFE0
0017F510
0007F100
000AE000
000CB000
000E9000
002F6000
016F6100
1FFFFA00
ENDCHAR
STARTCHAR uni0408
ENCODING 1032
SWIDTH 743 0
DWIDTH 8 0
BBX 9 11 0 -2
BITMAP
029DEFEC30
1DB533CD10
3F3000DB00
1C3000F800
000029F600
0008EBF200
00AD28D000
03F30D8000
05F38E1000
01DFE40000
0002000000
ENDCHAR
STARTCHAR uni0409
ENCODING 1033
SWIDTH 1158 0
DWIDTH 13 0
BBX 13 9 0 0
BITMAP
000000CB000000
000004FC000000
000009FB000000
00001EDDBEE900
00006DBD538F60
0000C7BB001F80
6205F2AD003F60
CA4E705F73BE10
3DE80007DEB200
ENDCHAR
STARTCHAR uni040A
ENCODING 1034
SWIDTH 1182 0
DWIDTH 13 0
BBX 14 9 -1 0
BITMAP
01AEC100A90000
1D66F401F70000
1304F404F30000
0006F218FCEEB2
00CFFFFFD413EA
001DC20BB000CD
001F800AC001EA
004F5007F54BF3
004D10009EEB30
ENDCHAR
STARTCHAR uni040B
ENCODING 1035
SWIDTH 979 0
DWIDTH 11 0
BBX 13 9 0 0
BITMAP
039CEFFFEB0000
4E63AF22320000
8B00BC00000000
5B00EA00000000
0002F89EE70000
0004FD73BF0000
0007F5009F0200
0009F000BD4D10
0009C0008FC300
ENDCHAR
STARTCHAR uni040C
ENCODING 1036
SWIDTH 937 0
DWIDTH 10 0
BBX 12 13 0 0
BITMAP
000000002500
00000003EC00
0000002D6000
000000000000
04BEFD400C70
2F83AF206F30
3F20BC01EA00
0920DA4DB100
000BFFF60000
0004F8DC0000
4206F25F6004
AC4CC00DE6B8
2CFC3003DE90
ENDCHAR
STARTCHAR uni040D
ENCODING 1037
SWIDTH 890 0
DWIDTH 10 0
BBX 12 13 0 0
BITMAP
000610000000
001DD3000000
00017D100000
000000000000
19ED1004E100
B96F5007F200
605F400AE000
008F100DC000
00BD003FA000
00E9009F7000
02F603BF5031
02FB7D5FB8E1
009EC409EC30
ENDCHAR
STARTCHAR uni040E
ENCODING 1038
SWIDTH 824 0
DWIDTH 9 0
BBX 11 17 0 -4
BITMAP
000000051000
0000D43E0000
00008ED50000
000000000000
19EC1004E100
887F4009F100
006F200DD000
00AD006FA000
00BD05DE8000
005FFC3F6310
0001105FFF60
00004CFF5100
0008F9AD0000
003F40B90000
005F25F30000
001DFE500000
000020000000
ENDCHAR
STARTCHAR uni040F
ENCODING 1039
SWIDTH 890 0
DWIDTH 10 0
BBX 12 11 0 -2
BITMAP
19ED1004E100
B96F5007F200
605F400AE000
008F100DC000
00BD003FA000
00E9009F7000
02F603CF5031
03FB7D4FB8E1
00AFD409EC30
002F50000000
003E20000000
ENDCHAR
STARTCHAR uni0410
ENCODING 1040
SWIDTH 786 0
DWIDTH 9 0
BBX 10 9 0 0
BITMAP
00039DEEC2
006FC65770
04F8008F00
0DC000CC00
3F6001F900
5F4005F600
5F500CF404
1EC5ACF97D
04DEA1AFC2
ENDCHAR
STARTCHAR uni0411
ENCODING 1041
SWIDTH 917 0
DWIDTH 10 0
BBX 10 11 0 -1
BITMAP
0000000010
05BDFFFFF5
5E65F72210
9B05F40000
5C08F10000
002CFDEEA1
009FC435FA
000F8000CD
002F7002E9
004F549EC1
0018178400
ENDCHAR
STARTCHAR uni0412
ENCODING 1042
SWIDTH 827 0
DWIDTH 9 0
BBX 10 10 0 -1
BITMAP
038CEFEC50
9EA6435BF4
316A0002F7
00DA013BE2
01F65FF920
05F314BE20
07F1006F40
09E347ED10
0BFFEC8100
0440000000
ENDCHAR
STARTCHAR uni0413
ENCODING 1043
SWIDTH 635 0
DWIDTH 7 0
BBX 10 10 0 0
BITMAP
0000000010
05BEFFFFF5
5F7AF22210
9B0BC00000
490EA00000
002F700000
004F400000
007F200000
009F000000
008B000000
ENDCHAR
STARTCHAR uni0414
ENCODING 1044
SWIDTH 964 0
DWIDTH 11 0
BBX 11 9 0 0
BITMAP
0039DFEC6000
01EA5338F800
0001C4009F10
0008E0005F40
000DA0004F50
001F60006F30
5EEF3000BD00
C9BFD539F500
7ED45CFC5000
ENDCHAR
STARTCHAR uni0415
ENCODING 1045
SWIDTH 686 0
DWIDTH 8 0
BBX 9 9 0 0
BITMAP
003BEEB200
03FB44DA00
08F100AC00
06F7106500
01CFF30000
3EB5200000
9F10000000
7F943459B0
06CEFED930
ENDCHAR
STARTCHAR uni0416
ENCODING 1046
SWIDTH 1234 0
DWIDTH 14 0
BBX 15 9 0 0
BITMAP
01AEB007C008EC20
0364E70BC05F4930
00009C0DA0CA0000
00004F3E9AD20000
00001BFFFC100000
0001DC8F5E800000
0009E18F08E10020
9A5F60AD02EB3A60
4DE700A9005EE800
ENDCHAR
STARTCHAR uni0417
ENCODING 1047
SWIDTH 725 0
DWIDTH 8 0
BBX 8 9 0 0
BITMAP
006DFE70
05F739F2
07D005F1
01301C90
001DEDB1
030202F8
5F2003F8
3F934DE2
06DFEA20
ENDCHAR
STARTCHAR uni0418
ENCODING 1048
SWIDTH 890 0
DWIDTH 10 0
BBX 12 9 0 0
BITMAP
19ED1004E100
B96F5007F200
605F400AE000
008F100DC000
00BD003FA000
00E9009F7000
02F603BF5031
02FB7D5FB8E1
009EC409EC30
ENDCHAR
STARTCHAR uni0419
ENCODING 1049
SWIDTH 890 0
DWIDTH 10 0
BBX 12 13 0 0
BITMAP
000000041000
0000C62E2000
00006EE60000
000000000000
19ED1004E100
B96F5007F200
605F400AE000
008F100DC000
00BD003FA000
00E9009F7000
02F603BF5031
02FB7D5FB8E1
009EC409EC30
ENDCHAR
STARTCHAR uni041A
ENCODING 1050
SWIDTH 937 0
DWIDTH 10 0
BBX 12 9 0 0
BITMAP
04BEFD400C70
2F83AF206F30
3F20BC01EA00
0920DA4DB100
000BFFF60000
0004F8DC0000
4206F25F6004
AC4CC00DE6B8
2CFC3003DE90
ENDCHAR
STARTCHAR uni041B
ENCODING 1051
SWIDTH 861 0
DWIDTH 9 0
BBX 11 9 0 0
BITMAP
000000BB0000
000004FC0000
000009FB0000
00001EEB0000
00006EBB0000
0000C9BB0000
4106F3AD0040
C94E906F57B0
4DE9000BFB10
ENDCHAR
STARTCHAR uni041C
ENCODING 1052
SWIDTH 1133 0
DWIDTH 12 0
BBX 14 9 0 0
BITMAP
00002D8009D100
00006FB02FF100
0000AFA09FF000
0000DDB1EBD000
0002FAB6E9D000
0006E6DB99D000
410BA5EF38E004
CA7F33FD05F79B
4DE600D600AEA1
ENDCHAR
STARTCHAR uni041D
ENCODING 1053
SWIDTH 873 0
DWIDTH 10 0
BBX 12 10 -1 0
BITMAP
000000001BE2
01AEC1009C97
1D76F401F595
1303F405F2D1
0006F209ED60
00CFFFFFD300
002DC20CA000
001F800BB004
004F5008E47C
004D1001AEB2
ENDCHAR
STARTCHAR uni041E
ENCODING 1054
SWIDTH 816 0
DWIDTH 9 0
BBX 9 9 0 0
BITMAP
0019DEC400
01DC54BF30
09E1001F90
1E90000DB0
3F60000EA0
4F50002F70
2F80008F20
0BE638F600
019EEC4000
ENDCHAR
STARTCHAR uni041F
ENCODING 1055
SWIDTH 892 0
DWIDTH 10 0
BBX 12 9 0 0
BITMAP
039CEFFEECA1
4F89F426F761
8B0AE007F200
4A0CB00AE000
000F900DB000
003F601F7000
005F403F5021
007F202F94D2
007D0009ED40
ENDCHAR
STARTCHAR uni0420
ENCODING 1056
SWIDTH 805 0
DWIDTH 9 0
BBX 9 11 0 -2
BITMAP
0006CEEA10
00AD536FB0
07D1C70AF0
0E52F60BD0
4F16F68F60
6C5FFEB400
7B0AD00000
7C0DB00000
3F5F800000
09FF300000
0032000000
ENDCHAR
STARTCHAR uni0421
ENCODING 1057
SWIDTH 686 0
DWIDTH 8 0
BBX 9 9 0 0
BITMAP
0019DEB100
01DD54E900
0AE100CA00
1F90006300
3F60000000
4F60000000
1FA0000000
08F94359B0
006CEED930
ENDCHAR
STARTCHAR uni0422
ENCODING 1058
SWIDTH 697 0
DWIDTH 8 0
BBX 10 9 0 0
BITMAP
04ADEFFFEB
5E73AF3332
8B00BC0000
3900EA0000
0002F70000
0004F40000
0007F20000
0009F00000
0009B00000
ENDCHAR
STARTCHAR uni0423
ENCODING 1059
SWIDTH 824 0
DWIDTH 9 0
BBX 11 13 0 -4
BITMAP
19EC1004E100
887F4009F100
006F200DD000
00AD006FA000
00BD05DE8000
005FFC3F6310
0001105FFF60
00004CFF5100
0008F9AD0000
003F40B90000
005F25F30000
001DFE500000
000020000000
ENDCHAR
STARTCHAR uni0424
ENCODING 1060
SWIDTH 977 0
DWIDTH 11 0
BBX 11 14 0 -4
BITMAP
01A410000000
01CFFFE80000
000128E10000
008EDCB7EC10
08E56FEB4F60
1E900EC10F80
4F501F402F70
5F309F205F30
4F46FF51CC00
1DFC9EEFC200
0120C9020000
0A93F3000000
04EF80000000
001100000000
ENDCHAR
STARTCHAR uni0425
ENCODING 1061
SWIDTH 712 0
DWIDTH 8 0
BBX 11 9 -1 0
BITMAP
02BFB103E500
0C66F72EB000
0100BDDC1000
00007FD10000
0000AF700000
0009EEB00000
008F59E00210
06F703F85D20
1E80008ED400
ENDCHAR
STARTCHAR uni0426
ENCODING 1062
SWIDTH 890 0
DWIDTH 10 0
BBX 12 13 0 -4
BITMAP
19ED1004E100
A96F5007F200
705F400AF000
008F100DC000
00BD002FA000
00EA008F8000
02F602CF6000
02F94C4DB591
009EC407EE60
000001CEF300
000009D6E000
000007FF5000
000000210000
ENDCHAR
STARTCHAR uni0427
ENCODING 1063
SWIDTH 773 0
DWIDTH 9 0
BBX 8 9 1 0
BITMAP
3E3004E1
5F4007F1
7F200BE0
AE002FC0
BE34CEA0
5FFF7D80
01311F60
00003F40
00003E20
ENDCHAR
STARTCHAR uni0428
ENCODING 1064
SWIDTH 1272 0
DWIDTH 14 0
BBX 16 9 0 0
BITMAP
19ED1007C001E400
B96F500BD004F500
605F400DA007F300
008F102F600AF000
00BD006F301ED000
00E900CE006FA000
02F606DC01BE8022
03FB8D7E7C5ED7D4
00AEC32DE607ED60
ENDCHAR
STARTCHAR uni0429
ENCODING 1065
SWIDTH 1272 0
DWIDTH 14 0
BBX 16 13 0 -4
BITMAP
19ED1007C001E400
B96F500BD004F500
605F400DA007F200
008F102F600AF000
00BD006F301EC000
00E900CE006FA000
02F606DC01BE8000
03FB8D8E7C5BE9B4
00AEC32DE605ED60
0000000000AEE600
0000000006F4F200
0000000004FF8000
0000000000110000
ENDCHAR
STARTCHAR uni042A
ENCODING 1066
SWIDTH 863 0
DWIDTH 10 0
BBX 9 9 1 0
BITMAP
AFFFE00000
026F700000
00AE000000
02EEDED600
1FF933AF30
06F3004F50
03F4007F30
00EA36EA00
004CFD7000
ENDCHAR
STARTCHAR uni042B
ENCODING 1067
SWIDTH 1078 0
DWIDTH 12 0
BBX 12 9 0 0
BITMAP
00B8000000D6
01F7000002F6
05F3000004F4
08FCEEA207F1
8FD536FA09E0
2DA000DC0CB0
0BB001E90E90
08E44BE22F70
01AEEA202E40
ENDCHAR
STARTCHAR uni042C
ENCODING 1068
SWIDTH 721 0
DWIDTH 8 0
BBX 8 9 0 0
BITMAP
00B80000
01F70000
05F30000
08FCEEA2
8FD536FA
2DA000DC
0BB001E9
08E44BE2
01AEEA20
ENDCHAR
STARTCHAR uni042D
ENCODING 1069
SWIDTH 755 0
DWIDTH 8 0
BBX 9 9 0 0
BITMAP
018DFD7000
0CC439F700
040000CE00
0000009F10
009FFFFF00
001222CD00
6E0003F700
6F525DC000
09EFD81000
ENDCHAR
STARTCHAR uni042E
ENCODING 1070
SWIDTH 1246 0
DWIDTH 14 0
BBX 15 9 -1 0
BITMAP
01AEC1008C2EB200
1D88F408CE23DD00
1503F41EDD005F50
0006F48FE3002F70
00CFFEDF20003F60
001DB07F10006F30
001F805F5001DC00
004F500DD66CE300
004D1002BFEA2000
ENDCHAR
STARTCHAR uni042F
ENCODING 1071
SWIDTH 850 0
DWIDTH 9 0
BBX 11 9 0 0
BITMAP
0019EFDC9000
009E424EA000
00E9003F7000
00DC10AF5000
004DFFFF2000
00003ECF0000
6100AB7E0060
D83BD16F3980
4DE9101CE900
ENDCHAR
STARTCHAR uni0430
ENCODING 1072
SWIDTH 470 0
DWIDTH 5 0
BBX 7 5 0 0
BITMAP
03CC6000
2EABA000
7E0D7020
9D6F8B70
3EC7E800
ENDCHAR
STARTCHAR uni0431
ENCODING 1073
SWIDTH 473 0
DWIDTH 5 0
BBX 7 10 0 0
BITMAP
0049D200
08EA6000
09B00000
02E70000
004F3000
08EFA000
4F5ED120
8D0BFF80
7E4E8100
1CEA1000
ENDCHAR
STARTCHAR uni0432
ENCODING 1074
SWIDTH 473 0
DWIDTH 5 0
BBX 7 10 0 0
BITMAP
007E6000
03E9A000
0AA79000
0E6B4000
2F7A0000
5FDD3000
6F7ED110
5F09FF90
2F6AC100
08EC2000
ENDCHAR
STARTCHAR uni0433
ENCODING 1075
SWIDTH 380 0
DWIDTH 4 0
BBX 6 5 0 0
BITMAP
3CFB00
258E00
1AB302
8E35D7
4DFD70
ENDCHAR
STARTCHAR uni0434
ENCODING 1076
SWIDTH 479 0
DWIDTH 5 0
BBX 7 10 0 -5
BITMAP
03CC6000
2E9BA000
7E0D7120
9D6FAE40
3ECFD300
02CE1000
1DBB0000
A6B70000
E7E10000
AE500000
ENDCHAR
STARTCHAR uni0435
ENCODING 1077
SWIDTH 393 0
DWIDTH 4 0
BBX 6 5 0 0
BITMAP
07EC10
5E4F30
9DAA14
7F74C8
1AED70
ENDCHAR
STARTCHAR uni0436
ENCODING 1078
SWIDTH 717 0
DWIDTH 8 0
BBX 10 5 0 0
BITMAP
0CD4E4DD10
0A8EDD7D30
337EEF1331
B9CAFD65D2
7E94A4DD40
ENDCHAR
STARTCHAR uni0437
ENCODING 1079
SWIDTH 435 0
DWIDTH 5 0
BBX 7 10 -1 -5
BITMAP
00AED200
0173C500
0006D110
03E928D0
01BDC910
006F8000
07BD7000
2D2F4000
6B9C0000
3EC20000
ENDCHAR
STARTCHAR uni0438
ENCODING 1080
SWIDTH 462 0
DWIDTH 5 0
BBX 7 5 0 0
BITMAP
0D45B000
3F1B9000
6E2F6130
7ECF7C50
3E7BE600
ENDCHAR
STARTCHAR uni0439
ENCODING 1081
SWIDTH 462 0
DWIDTH 5 0
BBX 7 9 0 0
BITMAP
00002100
0952D300
08FF7000
00110000
0D45B000
3F1B9000
6E2F6130
7ECF7C50
3E7BE600
ENDCHAR
STARTCHAR uni043A
ENCODING 1082
SWIDTH 465 0
DWIDTH 5 0
BBX 7 5 0 0
BITMAP
1D5CE400
4FBAA700
6EF43220
7FE94C50
4D3CE700
ENDCHAR
STARTCHAR uni043B
ENCODING 1083
SWIDTH 549 0
DWIDTH 6 0
BBX 8 5 0 0
BITMAP
0009D000
002FF000
539CF032
E9E6F5D2
AE51DD50
ENDCHAR
STARTCHAR uni043C
ENCODING 1084
SWIDTH 734 0
DWIDTH 8 0
BBX 10 5 0 0
BITMAP
001D73E500
006F8CE600
63BCCDC612
E9E6F7C8B5
AE52D18E70
ENDCHAR
STARTCHAR uni043D
ENCODING 1085
SWIDTH 475 0
DWIDTH 5 0
BBX 7 5 0 0
BITMAP
1D43D000
4F17B000
6FEF8010
7D2D8980
4B0AE800
ENDCHAR
STARTCHAR uni043E
ENCODING 1086
SWIDTH 451 0
DWIDTH 5 0
BBX 7 5 0 0
BITMAP
08EC2000
5F7F9210
9C0DFF50
7E4C8100
1BEA1000
ENDCHAR
STARTCHAR uni043F
ENCODING 1087
SWIDTH 496 0
DWIDTH 5 0
BBX 7 5 0 0
BITMAP
1D4AE000
4FADE000
6FB8B040
7F5AB8A0
4D07EA10
ENDCHAR
STARTCHAR uni0440
ENCODING 1088
SWIDTH 481 0
DWIDTH 5 0
BBX 9 10 -2 -5
BITMAP
003E8E6000
004F8AD000
004F1AB030
00AF5F8A80
03EFECE900
09AE000000
0D7C000000
3B89000000
4CC5000000
1DB0000000
ENDCHAR
STARTCHAR uni0441
ENCODING 1089
SWIDTH 368 0
DWIDTH 4 0
BBX 6 5 0 0
BITMAP
08EB00
5F6F00
9C0312
8E45D5
1BED50
ENDCHAR
STARTCHAR uni0442
ENCODING 1090
SWIDTH 744 0
DWIDTH 8 0
BBX 10 5 0 0
BITMAP
1D4BC2CA00
4FBDDCEA00
6FB9F7C713
7F5AF1E8B6
4D08A0BE70
ENDCHAR
STARTCHAR uni0443
ENCODING 1091
SWIDTH 479 0
DWIDTH 5 0
BBX 7 10 0 -5
BITMAP
0D45B000
3F1BA000
6E2F7220
7ECFAE40
3E9FC200
02CE0000
1CBB0000
A6B60000
F6E10000
BE500000
ENDCHAR
STARTCHAR uni0444
ENCODING 1092
SWIDTH 721 0
DWIDTH 8 0
BBX 10 13 0 -4
BITMAP
0000430000
0000E60000
0002F30000
0005E00000
03CFCCD200
2E9BF4E700
7E0DB1F511
9D6FABE5D3
3EBDFCDD50
000E400000
000F400000
000F400000
0006100000
ENDCHAR
STARTCHAR uni0445
ENCODING 1093
SWIDTH 529 0
DWIDTH 6 0
BBX 8 5 0 0
BITMAP
0CE6CC00
0B9F8A00
237F1021
B9CF65D2
8E99EC30
ENDCHAR
STARTCHAR uni0446
ENCODING 1094
SWIDTH 501 0
DWIDTH 6 0
BBX 7 9 0 -4
BITMAP
0D45B000
3F1B9000
6E2F5000
7ECF8780
3E7AF910
008EA000
079C5000
08FB0000
00200000
ENDCHAR
STARTCHAR uni0447
ENCODING 1095
SWIDTH 555 0
DWIDTH 6 0
BBX 8 6 0 0
BITMAP
00C90000
03DDFF30
0994E700
3E4E5013
D46F35E5
202CFC50
ENDCHAR
STARTCHAR uni0448
ENCODING 1096
SWIDTH 693 0
DWIDTH 8 0
BBX 9 5 0 0
BITMAP
0D46A0C500
3F1C93F200
6E3F79E030
7ECECED5D0
3E89D5EB20
ENDCHAR
STARTCHAR uni0449
ENCODING 1097
SWIDTH 732 0
DWIDTH 8 0
BBX 10 9 0 -4
BITMAP
0D46A0C500
3F1C93F200
6E3F79D000
7ECECEE5B2
3E89D4EE50
00002CF300
0000D6D000
0001EE4000
0000110000
ENDCHAR
STARTCHAR uni044A
ENCODING 1098
SWIDTH 542 0
DWIDTH 6 0
BBX 8 5 0 0
BITMAP
4CF60000
0DDEC100
1FA5F433
1F87F7D2
07EDDD40
ENDCHAR
STARTCHAR uni044B
ENCODING 1099
SWIDTH 702 0
DWIDTH 8 0
BBX 10 5 0 0
BITMAP
0D5001D400
4FBE89F200
6F78FFE051
5F5AE9E6D0
0AEC32DC30
ENDCHAR
STARTCHAR uni044C
ENCODING 1100
SWIDTH 517 0
DWIDTH 6 0
BBX 7 5 0 0
BITMAP
0D500000
4FBE9000
6F78F060
5F5AE6D0
0AEDEC20
ENDCHAR
STARTCHAR uni044D
ENCODING 1101
SWIDTH 466 0
DWIDTH 5 0
BBX 7 5 0 0
BITMAP
1CFD4000
053BD120
12DFFF80
8A4CD200
3DFC3000
ENDCHAR
STARTCHAR uni044E
ENCODING 1102
SWIDTH 676 0
DWIDTH 7 0
BBX 9 5 0 0
BITMAP
1D43CE7000
4F1C9BF200
6FFF46FFC0
7D3F87E200
4B06ED4000
ENDCHAR
STARTCHAR uni044F
ENCODING 1103
SWIDTH 543 0
DWIDTH 6 0
BBX 8 5 0 0
BITMAP
00BED900
04E4D700
B6EFF455
E85DE5D2
8EC2AD40
ENDCHAR
STARTCHAR uni0450
ENCODING 1104
SWIDTH 393 0
DWIDTH 4 0
BBX 6 10 0 0
BITMAP
051000
0E7000
05E000
009400
000000
07EC10
5E4F30
9DAA14
7F74C8
1AED70
ENDCHAR
STARTCHAR uni0451
ENCODING 1105
SWIDTH 393 0
DWIDTH 4 0
BBX 6 7 0 0
BITMAP
0B87D0
011110
07EC10
5E4F30
9DAA14
7F74C8
1AED70
ENDCHAR
STARTCHAR uni0452
ENCODING 1106
SWIDTH 514 0
DWIDTH 6 0
BBX 7 14 0 -5
BITMAP
02E30000
06F10000
5FFFC000
0DA21000
1F69E100
3FADF100
5FC7D040
5F69DC90
3E1AE600
007F6000
08BF2000
4C5D0000
99C60000
5EA00000
ENDCHAR
STARTCHAR uni0453
ENCODING 1107
SWIDTH 380 0
DWIDTH 4 0
BBX 6 9 0 0
BITMAP
001D40
007C10
00B200
000000
3CFB00
258E00
1AB302
8E35D7
4DFD70
ENDCHAR
STARTCHAR uni0454
ENCODING 1108
SWIDTH 379 0
DWIDTH 4 0
BBX 6 5 0 0
BITMAP
09ED20
6F5940
9FF402
7E64B7
1AED70
ENDCHAR
STARTCHAR uni0455
ENCODING 1109
SWIDTH 427 0
DWIDTH 5 0
BBX 6 5 0 0
BITMAP
01D400
07F400
2DBD15
C79FBE
36FFD3
ENDCHAR
STARTCHAR uni0456
ENCODING 1110
SWIDTH 246 0
DWIDTH 3 0
BBX 4 7 0 0
BITMAP
0BD0
0110
0D40
4F20
6E03
7E5D
2EC3
ENDCHAR
STARTCHAR uni0457
ENCODING 1111
SWIDTH 246 0
DWIDTH 3 0
BBX 4 7 0 0
BITMAP
C78B
1011
0D40
4F20
6E03
7E5D
2EC3
ENDCHAR
STARTCHAR uni0458
ENCODING 1112
SWIDTH 254 0
DWIDTH 3 0
BBX 7 12 -3 -5
BITMAP
0001E900
00002000
0001E400
0003F300
0005F140
0006EAC0
0008F800
005E8000
05BE4000
2D4E1000
7BB90000
4EC10000
ENDCHAR
STARTCHAR uni0459
ENCODING 1113
SWIDTH 794 0
DWIDTH 9 0
BBX 11 5 0 0
BITMAP
0009E0000000
002FF9E90000
949BF77F1810
E9E4F69E7C00
9E509EDEC200
ENDCHAR
STARTCHAR uni045A
ENCODING 1114
SWIDTH 751 0
DWIDTH 8 0
BBX 10 5 0 0
BITMAP
1D44E00000
4F18CBE300
6FFFE4D915
7D2BB3E9A7
4B03DEDE80
ENDCHAR
STARTCHAR uni045B
ENCODING 1115
SWIDTH 502 0
DWIDTH 6 0
BBX 7 9 0 0
BITMAP
02E30000
06F10000
4FFEB000
0DA21000
1F69E100
3FADF100
5FC7C040
5F69C7B0
3E16EB10
ENDCHAR
STARTCHAR uni045C
ENCODING 1116
SWIDTH 465 0
DWIDTH 5 0
BBX 7 9 0 0
BITMAP
0002E200
000AB000
001B1000
00000000
1D5CE400
4FBAA700
6EF43220
7FE94C50
4D3CE700
ENDCHAR
STARTCHAR uni045D
ENCODING 1117
SWIDTH 462 0
DWIDTH 5 0
BBX 7 10 0 0
BITMAP
03300000
09C00000
02E30000
00580000
00000000
0D45B000
3F1B9000
6E2F6130
7ECF7C50
3E7BE600
ENDCHAR
STARTCHAR uni045E
ENCODING 1118
SWIDTH 479 0
DWIDTH 5 0
BBX 7 14 0 -5
BITMAP
00002100
0952D300
08FF7000
00110000
0D45B000
3F1BA000
6E2F7220
7ECFAE40
3E9FC200
02CE0000
1CBB0000
A6B60000
F6E10000
BE500000
ENDCHAR
STARTCHAR uni045F
ENCODING 1119
SWIDTH 600 0
DWIDTH 7 0
BBX 7 6 0 -1
BITMAP
0D45B000
3F1B9000
6E2F6130
7ECF7C50
2F7BE600
0C100000
ENDCHAR
STARTCHAR uni0462
ENCODING 1122
SWIDTH 721 0
DWIDTH 8 0
BBX 8 9 0 0
BITMAP
00C80000
3EFFC000
06F51000
08FCEEA2
7FD536FA
2DA000DC
0BB001E9
08E44BE2
01AEEA20
ENDCHAR
STARTCHAR uni0463
ENCODING 1123
SWIDTH 517 0
DWIDTH 6 0
BBX 8 7 0 0
BITMAP
07B00000
0CA00000
9FFB0000
4FAE9000
6F78F061
5F59E6D0
0AEDEC20
ENDCHAR
STARTCHAR uni046A
ENCODING 1130
SWIDTH 1234 0
DWIDTH 14 0
BBX 15 9 0 0
BITMAP
00BFFFFFFFFFFA00
0013EA22228F4000
00009C0000D90000
00003F402BD20000
00001BFFFC100000
0001DC8F5E800000
0009E18F08E10020
9A5F60AD02EB3A60
4DE700A9005EE800
ENDCHAR
STARTCHAR uni046B
ENCODING 1131
SWIDTH 788 0
DWIDTH 9 0
BBX 10 9 0 0
BITMAP
000007E100
00000EF100
00004DF000
00008BE000
006EE7ED90
0019D4F510
230CD8E003
B99DEDE65D
8EB2E76ED3
ENDCHAR
STARTCHAR uni0472
ENCODING 1138
SWIDTH 816 0
DWIDTH 9 0
BBX 9 9 0 0
BITMAP
0019DEC400
01DC43AF30
09D1001E90
1EDEA21EB0
3F939FFFA0
4F60014F70
2F90009F20
0BF638F600
019EEC4000
ENDCHAR
STARTCHAR uni0473
ENCODING 1139
SWIDTH 451 0
DWIDTH 5 0
BBX 7 5 0 0
BITMAP
08EC2000
5E4BA420
9FFFFF50
7E6D8000
1BEA1000
ENDCHAR
STARTCHAR uni0474
ENCODING 1140
SWIDTH 797 0
DWIDTH 9 0
BBX 10 9 1 0
BITMAP
3E20008FE9
7F2000DB44
8F1002F700
9F0006F300
9E000BC000
8F002F6000
6F30BD0000
1FCAF30000
07EC400000
ENDCHAR
STARTCHAR uni0475
ENCODING 1141
SWIDTH 420 0
DWIDTH 5 0
BBX 6 5 0 0
BITMAP
5C05ED
7E0C81
6E4E20
5FD800
1EB000
ENDCHAR
STARTCHAR uni048A
ENCODING 1162
SWIDTH 890 0
DWIDTH 10 0
BBX 12 15 0 -2
BITMAP
000000041000
0000C62E2000
00008FF80000
000001100000
19ED1004E100
B96F5007F200
605F400AE000
008F100DC000
00BD003FA000
00E9009F7000
02F603BF5031
02FB7D5FB8D1
009EC409FE30
00000003E400
0000000A8000
ENDCHAR
STARTCHAR uni048B
ENCODING 1163
SWIDTH 462 0
DWIDTH 5 0
BBX 7 10 0 -2
BITMAP
0B62B200
07FF7000
00110000
0D45B000
3F1B9000
6E2F6130
7ECF7C50
3E7AF800
000AA000
002D1000
ENDCHAR
STARTCHAR uni048C
ENCODING 1164
SWIDTH 721 0
DWIDTH 8 0
BBX 8 9 0 0
BITMAP
00C80000
3EFFC000
06F51000
08FCEEA2
7FD536FA
2DA000DC
0BB001E9
08E44BE2
01AEEA20
ENDCHAR
STARTCHAR uni048D
ENCODING 1165
SWIDTH 517 0
DWIDTH 6 0
BBX 8 7 0 0
BITMAP
07B00000
0CA00000
9FFB0000
4FAE9000
6F78F061
5F59E6D0
0AEDEC20
ENDCHAR
STARTCHAR uni048E
ENCODING 1166
SWIDTH 805 0
DWIDTH 9 0
BBX 10 11 0 -2
BITMAP
0006CEEA10
00AC536EB0
07D1C71AF0
0E52F69FE1
4F16F69FA9
6C5FFEB400
7B0AD00000
7C0DB00000
3F5F800000
09FF300000
0032000000
ENDCHAR
STARTCHAR uni048F
ENCODING 1167
SWIDTH 481 0
DWIDTH 5 0
BBX 9 10 -2 -5
BITMAP
003E9E6000
004F8AD000
004F29B010
009FAF8890
02EFECE910
09AE000000
0D7C000000
3B89000000
4CC5000000
1DB0000000
ENDCHAR
STARTCHAR uni0490
ENCODING 1168
SWIDTH 645 0
DWIDTH 7 0
BBX 10 12 0 0
BITMAP
0000000024
000000008C
00000000AA
05BEFFFFF5
5E7AF22210
9B0BC00000
490EA00000
002F700000
004F400000
007F200000
009F000000
008B000000
ENDCHAR
STARTCHAR uni0491
ENCODING 1169
SWIDTH 394 0
DWIDTH 4 0
BBX 5 7 0 0
BITMAP
000240
001890
1DFF50
4F3100
6E0000
7D0000
4B0000
ENDCHAR
STARTCHAR uni0492
ENCODING 1170
SWIDTH 635 0
DWIDTH 7 0
BBX 10 10 0 0
BITMAP
0000000010
05BEFFFFF5
5E7AF22210
9B0BC00000
490EA00000
03EFFD0000
006F610000
007F200000
009F000000
009C000000
ENDCHAR
STARTCHAR uni0493
ENCODING 1171
SWIDTH 380 0
DWIDTH 4 0
BBX 6 5 0 0
BITMAP
3CFB00
259E00
8CF502
8E67D7
4DFD70
ENDCHAR
STARTCHAR uni0494
ENCODING 1172
SWIDTH 884 0
DWIDTH 10 0
BBX 11 15 0 -5
BITMAP
000000001000
05BDFFFFF500
5F7AF2221000
9B0BD0000000
5B0EA0000000
002F89EE6000
004FD73BF000
007F5008F170
009F000AEEA0
008B000DE600
000001CF7000
00001DDF3000
00009B8D0000
0000C8E60000
00009E900000
ENDCHAR
STARTCHAR uni0495
ENCODING 1173
SWIDTH 441 0
DWIDTH 5 0
BBX 6 9 0 -4
BITMAP
3CFB00
258E00
19B300
7E355B
5EEFD4
04DE00
2D7A00
3FE200
010000
ENDCHAR
STARTCHAR uni0496
ENCODING 1174
SWIDTH 1234 0
DWIDTH 14 0
BBX 15 13 0 -4
BITMAP
01AEB007C008EC20
0364E70BC05F4930
00009C0DA0CA0000
00004F3E9AE20000
00001BFFFC200000
0001DC8F6E800000
0009E18F08F20000
9A5F60AD02EC76C0
4DE700A9003DF910
0000000001ADF000
000000000BA9B000
000000000BFE3000
0000000000200000
ENDCHAR
STARTCHAR uni0497
ENCODING 1175
SWIDTH 803 0
DWIDTH 9 0
BBX 10 9 0 -4
BITMAP
0CD4E4DD10
0A8EDD7D30
337EEF1300
B9CAFD644B
7E94A5EFC3
000004CE00
00002D8A00
00003FD200
0000010000
ENDCHAR
STARTCHAR uni0498
ENCODING 1176
SWIDTH 725 0
DWIDTH 8 0
BBX 8 13 0 -4
BITMAP
006DFE70
05F739F2
07D005F1
01301C90
001DEDB1
030202F8
5F2003F7
3F934DD1
06DFFD10
004DD900
02F5D500
02EFB000
00120000
ENDCHAR
STARTCHAR uni0499
ENCODING 1177
SWIDTH 445 0
DWIDTH 5 0
BBX 6 9 0 -4
BITMAP
1AED30
4A3E60
01CC10
774F9D
5EFFC3
04CD00
1E8A00
1FE300
011000
ENDCHAR
STARTCHAR uni049A
ENCODING 1178
SWIDTH 937 0
DWIDTH 10 0
BBX 12 13 0 -4
BITMAP
04BEFD400C70
1F83AF206F30
4F20BC01EA00
0920DA4DB100
000BFFF60000
0004F7DD0000
5206F25F6000
AC3CC00DE899
2BEC3003EF70
0000003DDB00
000001E6C700
000001EFB100
000000120000
ENDCHAR
STARTCHAR uni049B
ENCODING 1179
SWIDTH 531 0
DWIDTH 6 0
BBX 7 9 0 -4
BITMAP
1D5CE400
4FBAA700
6EF43100
7FE834B0
4D4DFD40
004CE000
02D8A000
03FE2000
00100000
ENDCHAR
STARTCHAR uni049C
ENCODING 1180
SWIDTH 937 0
DWIDTH 10 0
BBX 12 9 0 0
BITMAP
04BEFD400C70
1F83AF206F30
4F20BC81DA00
0920DAEDB100
000BFFF60000
0004FAFC0000
4206F7EF6004
AB3CC35DE6B8
2CFC3003DE90
ENDCHAR
STARTCHAR uni049D
ENCODING 1181
SWIDTH 485 0
DWIDTH 5 0
BBX 7 5 0 0
BITMAP
1D3AE700
4FAD7800
6FF80160
7FEC3A80
4B1CF900
ENDCHAR
STARTCHAR uni049E
ENCODING 1182
SWIDTH 937 0
DWIDTH 10 0
BBX 12 9 0 0
BITMAP
04BEFD400C70
1E83AE206F30
4F2EFFC1EA00
0922EB5DB100
000BFFF60000
0004F7DC0000
4206F25F6004
AB3CC00DE6B8
2CFC3003DE90
ENDCHAR
STARTCHAR uni049F
ENCODING 1183
SWIDTH 473 0
DWIDTH 5 0
BBX 7 9 0 0
BITMAP
02E30000
06F10000
5FFFB000
0DA21000
1F6BE500
3FAB9800
5FE62230
5FEA3B70
3E3CE800
ENDCHAR
STARTCHAR uni04A0
ENCODING 1184
SWIDTH 937 0
DWIDTH 10 0
BBX 12 10 0 0
BITMAP
011111000000
0EFFFF500C70
0133BE006F10
0000CC01E700
0000EA4D9000
000BFFF50000
0004F7DC0000
4206F25F6004
AB3CC00DE6B8
2CFC3003DE90
ENDCHAR
STARTCHAR uni04A1
ENCODING 1185
SWIDTH 555 0
DWIDTH 6 0
BBX 8 5 0 0
BITMAP
6FF5CE40
05FBAA70
06EF4322
07FE93B6
04D3CE70
ENDCHAR
STARTCHAR uni04A2
ENCODING 1186
SWIDTH 907 0
DWIDTH 10 0
BBX 13 14 -1 -4
BITMAP
000000001BD200
01AEC1009C9600
1D66F401F59500
1304F405F2D100
0006F209ED4000
00CFFFFFC20000
001DC20DA00000
001F800CC00000
004F5008FA7C40
004D1001AFD400
00000006DE6000
0000005F4F2000
0000005FF70000
00000001100000
ENDCHAR
STARTCHAR uni04A3
ENCODING 1187
SWIDTH 515 0
DWIDTH 6 0
BBX 7 9 0 -4
BITMAP
1D43D000
4F17B000
6FEF8000
7D2D8480
4B08FC40
006DC000
04BA8000
05FC1000
00200000
ENDCHAR
STARTCHAR uni04A4
ENCODING 1188
SWIDTH 873 0
DWIDTH 10 0
BBX 14 9 -1 0
BITMAP
01AEC1002CFED2
1D66F400CD3220
1404F404F60000
0006F208F10000
00CFFFFFC00000
001DC20CA00000
001F800BB00400
004F5008E46C00
004D1001AEB200
ENDCHAR
STARTCHAR uni04A5
ENCODING 1189
SWIDTH 475 0
DWIDTH 5 0
BBX 7 6 0 0
BITMAP
00001500
1D43E700
4F17B000
6FEF8010
7D2D8980
4B0AE800
ENDCHAR
STARTCHAR uni04A8
ENCODING 1192
SWIDTH 997 0
DWIDTH 11 0
BBX 13 9 0 0
BITMAP
002AE600000000
01DD529EFA1000
0AE10CE56FA000
1F904F500AF000
3F607F1008F000
4F607F200CC000
1F903F807F4000
09F95BFDF98D40
007CFECCEEB600
ENDCHAR
STARTCHAR uni04A9
ENCODING 1193
SWIDTH 574 0
DWIDTH 6 0
BBX 8 5 0 0
BITMAP
08E7D900
5E3E5F00
9C3E2E16
8E4FCAC7
1BEDED60
ENDCHAR
STARTCHAR uni04AA
ENCODING 1194
SWIDTH 781 0
DWIDTH 9 0
BBX 10 14 0 -5
BITMAP
0018DEB100
01DC43E900
09E100C900
1F90006300
3F60000000
4F60000000
2F80000303
0AE635CBB9
018DFDEE60
000008F500
00009BF100
0005B6B000
000A8D5000
0006E90000
ENDCHAR
STARTCHAR uni04AB
ENCODING 1195
SWIDTH 431 0
DWIDTH 5 0
BBX 6 9 0 -4
BITMAP
08EB00
5F5F00
9C0300
8E345A
1CFFC3
05DD00
3C9900
4FD100
010000
ENDCHAR
STARTCHAR uni04AC
ENCODING 1196
SWIDTH 697 0
DWIDTH 8 0
BBX 10 13 0 -4
BITMAP
04ADEFFFEB
5E63AF2232
8C00CC0000
3700F90000
0002F60000
0005F40000
0007F20000
000AF60000
0008FD0000
007DBA0000
01F5D60000
01EFB00000
0012000000
ENDCHAR
STARTCHAR uni04AD
ENCODING 1197
SWIDTH 784 0
DWIDTH 9 0
BBX 10 9 0 -4
BITMAP
1D4BC2CA00
4FADDCEA00
6FB9F7C700
7F5AF1E869
4D08A09FB2
000007EB00
00005BA700
00006FC100
0000020000
ENDCHAR
STARTCHAR uni04AE
ENCODING 1198
SWIDTH 677 0
DWIDTH 7 0
BBX 8 9 1 0
BITMAP
5E2007E1
2F802F80
0BE1BD00
04FBF300
00DF8000
007F1000
007E0000
008D0000
008B0000
ENDCHAR
STARTCHAR uni04AF
ENCODING 1199
SWIDTH 472 0
DWIDTH 5 0
BBX 7 9 0 -4
BITMAP
5C07D000
5F0DE110
3F2DFF80
1F9C2100
0FE30000
0D800000
0C900000
0BA00000
04300000
ENDCHAR
STARTCHAR uni04B0
ENCODING 1200
SWIDTH 677 0
DWIDTH 7 0
BBX 8 9 1 0
BITMAP
5E2007E1
2F803F70
0AE1CC00
03FCE200
00BF6000
0BFFF400
019E2000
008D0000
008B0000
ENDCHAR
STARTCHAR uni04B1
ENCODING 1201
SWIDTH 472 0
DWIDTH 5 0
BBX 7 9 0 -4
BITMAP
5C07D000
5F0DE110
3F2DFF80
1F9D1100
0FF40000
BFFB0000
1DA10000
0BA00000
04300000
ENDCHAR
STARTCHAR uni04B2
ENCODING 1202
SWIDTH 716 0
DWIDTH 8 0
BBX 11 13 -1 -4
BITMAP
02BFB104E500
0C65F82EA000
0000BDDB0000
00006FC10000
0000BF700000
000AEDB00000
008F48F10000
07F703FA5B20
1E80009FD500
000007DF5000
00006E5E1000
00006FF60000
000001100000
ENDCHAR
STARTCHAR uni04B3
ENCODING 1203
SWIDTH 601 0
DWIDTH 7 0
BBX 8 9 0 -4
BITMAP
0CE7CC00
0B8F7A00
237F1000
B9BF5358
8EACFFB2
0006DB00
005BA700
006FC100
00020000
ENDCHAR
STARTCHAR uni04B4
ENCODING 1204
SWIDTH 1040 0
DWIDTH 11 0
BBX 13 13 0 -4
BITMAP
04ADEFFD29A000
5E637F420CC000
9B00AE000F9000
4A00DA003F7000
0002F7008F4000
0005F400DF2000
0007F106CF0000
0008F56B6E9450
0002CEA12AFD50
00000005EEE000
0000000E8A9000
0000000CFD2000
00000000200000
ENDCHAR
STARTCHAR uni04B5
ENCODING 1205
SWIDTH 501 0
DWIDTH 6 0
BBX 7 11 0 -4
BITMAP
03EFE100
00222000
0D45B000
3F1B9000
6E2F5000
7ECF8780
3E7AF910
008EA000
079C5000
08FB0000
00200000
ENDCHAR
STARTCHAR uni04B6
ENCODING 1206
SWIDTH 804 0
DWIDTH 9 0
BBX 10 13 1 -4
BITMAP
3E3004E100
5F4007F100
7F200BE000
AE002FC000
BE34CEA000
5FFF7E7000
01311F7010
00001DFCE2
000007EB20
0001CBF300
0008D5E000
0006FF5000
0000110000
ENDCHAR
STARTCHAR uni04B7
ENCODING 1207
SWIDTH 631 0
DWIDTH 7 0
BBX 8 10 0 -4
BITMAP
00550000
01DDFF30
0794E700
2D4E5000
C56F355C
302DEFD4
0003CF10
001D7B00
002FE300
00011000
ENDCHAR
STARTCHAR uni04B8
ENCODING 1208
SWIDTH 773 0
DWIDTH 9 0
BBX 8 9 1 0
BITMAP
3E3003D1
5F4007F1
6F3209E0
9F2C0EC0
BD3B7FA0
AFBEDD80
2CFB2F60
00743F40
00003E20
ENDCHAR
STARTCHAR uni04B9
ENCODING 1209
SWIDTH 575 0
DWIDTH 6 0
BBX 9 6 -1 0
BITMAP
000C890000
003EDCE600
00995E9000
04E2E80170
1D43F66D70
0200AFD600
ENDCHAR
STARTCHAR uni04BA
ENCODING 1210
SWIDTH 755 0
DWIDTH 8 0
BBX 10 9 0 0
BITMAP
00D7000000
01F7000000
03F5000000
06F2000000
08E5CFC200
0BFB45F800
0ED001F803
1F8003F898
1E4001DE80
ENDCHAR
STARTCHAR uni04BB
ENCODING 1211
SWIDTH 502 0
DWIDTH 6 0
BBX 7 10 0 0
BITMAP
007E6000
02E8A000
09A78000
0D6C2000
1FB80000
4FBAE100
5F9DF100
6FC7C040
6F69C7B0
5D16EB10
ENDCHAR
STARTCHAR uni04BC
ENCODING 1212
SWIDTH 808 0
DWIDTH 9 0
BBX 11 9 0 0
BITMAP
00007DFC3000
000AE63BD000
004F5007F000
28AE0008E000
4FFFFFFFA000
01EB22220000
00BE10000000
004FC5347C30
0003BEFDB600
ENDCHAR
STARTCHAR uni04BD
ENCODING 1213
SWIDTH 483 0
DWIDTH 5 0
BBX 7 5 0 0
BITMAP
007EC100
05E4F300
BCDAA030
3BF74C80
01BED700
ENDCHAR
STARTCHAR uni04BE
ENCODING 1214
SWIDTH 808 0
DWIDTH 9 0
BBX 11 13 0 -4
BITMAP
00007DFC3000
000AE63BD000
004F5007F000
28AE0008E000
4FFFFFFFA000
01EB22220000
00BE10000000
004FC5347C30
0004EFFDB600
0003D1000000
0006C0000000
0002EF500000
000012000000
ENDCHAR
STARTCHAR uni04BF
ENCODING 1215
SWIDTH 483 0
DWIDTH 5 0
BBX 7 8 0 -3
BITMAP
008EC100
05E4F300
9BC9D010
6DF719A0
03EEEB10
002E4000
004D0000
001CE600
ENDCHAR
STARTCHAR uni04C0
ENCODING 1216
SWIDTH 495 0
DWIDTH 5 0
BBX 7 9 -1 0
BITMAP
00BFFFE0
0017F510
0007F100
000AE000
000CB000
000E9000
002F6000
016F6100
1FFFFA00
ENDCHAR
STARTCHAR uni04C1
ENCODING 1217
SWIDTH 1234 0
DWIDTH 14 0
BBX 15 13 0 0
BITMAP
0000000002400000
0000006B1B700000
0000002CEA100000
0000000000000000
01AEB007C008EC20
0364E70BC05F4930
00009C0DA0CA0000
00004F3E9AD20000
00001BFFFC100000
0001DC8F5E800000
0009E18F08E10020
9A5F60AD02EB3A60
4DE700A9005EE800
ENDCHAR
STARTCHAR uni04C2
ENCODING 1218
SWIDTH 717 0
DWIDTH 8 0
BBX 10 9 0 0
BITMAP
0000003000
003B16B000
001DFD2000
0000200000
0CD4E4DD10
0A8EDD7D30
337EEF1331
B9CAFD65D2
7E94A4DD40
ENDCHAR
STARTCHAR uni04C3
ENCODING 1219
SWIDTH 937 0
DWIDTH 10 0
BBX 12 13 0 -4
BITMAP
04BEFD400C70
1F83AF206F30
4F20BC01EA00
0920DA4DB100
000BFFF60000
0004F7DD0000
5206F25F6000
AC3CC00DE899
2BEC3003EF70
0000003DDB00
000001E6C700
000001EFB100
000000120000
ENDCHAR
STARTCHAR uni04C4
ENCODING 1220
SWIDTH 531 0
DWIDTH 6 0
BBX 7 9 0 -4
BITMAP
1D5CE400
4FBAA700
6EF43100
7FE834B0
4D4DFD40
004CE000
02D8A000
03FE2000
00100000
ENDCHAR
STARTCHAR uni04C5
ENCODING 1221
SWIDTH 861 0
DWIDTH 9 0
BBX 11 11 0 -2
BITMAP
000000BB0000
000004FC0000
000009FB0000
00001EEB0000
00006EBB0000
0000C9BB0000
4106F3AD0040
C94E906F57A0
4DE9000AFB10
00000008D100
0000001E4000
ENDCHAR
STARTCHAR uni04C6
ENCODING 1222
SWIDTH 549 0
DWIDTH 6 0
BBX 8 7 0 -2
BITMAP
0009D000
002FF000
539CF032
E8E6F5D2
AE51DF50
0000C800
0004C000
ENDCHAR
STARTCHAR uni04C7
ENCODING 1223
SWIDTH 907 0
DWIDTH 10 0
BBX 13 14 -1 -4
BITMAP
000000001BD200
01AEC1009C9600
1D66F401F59500
1304F405F2D100
0006F209ED4000
00CFFFFFC20000
001DC20DA00000
001F800CC00000
004F5008FA7C40
004D1001AFD400
00000006DE6000
0000005F4F2000
0000005FF70000
00000001100000
ENDCHAR
STARTCHAR uni04C8
ENCODING 1224
SWIDTH 515 0
DWIDTH 6 0
BBX 7 9 0 -4
BITMAP
1D43D000
4F17B000
6FEF8000
7D2D8480
4B08FC40
006DC000
04BA8000
05FC1000
00200000
ENDCHAR
STARTCHAR uni04C9
ENCODING 1225
SWIDTH 873 0
DWIDTH 10 0
BBX 12 13 -1 -3
BITMAP
000000001BD2
01AEC1009C96
1D66F401F595
1304F405F2D1
0006F209ED40
00CFFFFFC200
001DC20CA000
001F800BB006
004F5008F7AC
004D1001BFE2
000000004F30
00000000D900
000000005100
ENDCHAR
STARTCHAR uni04CA
ENCODING 1226
SWIDTH 475 0
DWIDTH 5 0
BBX 7 7 0 -2
BITMAP
1D43D000
4F17B000
6FEF8010
7D2D8980
4B09FB10
0008D100
000D3000
ENDCHAR
STARTCHAR uni04CB
ENCODING 1227
SWIDTH 773 0
DWIDTH 9 0
BBX 8 13 1 -4
BITMAP
3E3004E1
5F4007F1
7F200BE0
AE002FC0
BE34CEA0
5FFF7D80
01311F60
00006F40
0007FE20
03DCE000
0D9A9000
0CFD2000
00200000
ENDCHAR
STARTCHAR uni04CC
ENCODING 1228
SWIDTH 555 0
DWIDTH 6 0
BBX 8 7 0 -1
BITMAP
00C90000
03DDFF30
0994E700
3E4E5013
D46F35D4
202CFF50
00000C00
ENDCHAR
STARTCHAR uni04CD
ENCODING 1229
SWIDTH 1133 0
DWIDTH 12 0
BBX 14 11 0 -2
BITMAP
00002D8009D100
00006FB02FF100
00009FA09FF000
0000DDB1ECE000
0001FAB6E9D000
0006E6DB99D000
310BA5EF38E003
C95F33FD05F57A
5DE600D600AFC1
00000000008D10
0000000001E300
ENDCHAR
STARTCHAR uni04CE
ENCODING 1230
SWIDTH 734 0
DWIDTH 8 0
BBX 10 7 0 -2
BITMAP
001D73E500
006F8CE600
63BCCDC612
E9E6F7C8B5
AE52D18F90
000000AB00
000001D200
ENDCHAR
STARTCHAR uni04CF
ENCODING 1231
SWIDTH 222 0
DWIDTH 2 0
BBX 3 9 0 0
BITMAP
0170
06E0
0AC0
0D90
0F60
3F30
6F10
8D00
8A00
ENDCHAR
STARTCHAR uni04D0
ENCODING 1232
SWIDTH 786 0
DWIDTH 9 0
BBX 10 13 0 0
BITMAP
0000000050
00002E26C0
00000AEC30
0000000000
00039DEEC2
006FC65770
04F8008F00
0DC000CC00
3F6001F900
5F4005F600
5F500CF404
1EC5ACF97D
04DEA1AFC2
ENDCHAR
STARTCHAR uni04D1
ENCODING 1233
SWIDTH 470 0
DWIDTH 5 0
BBX 7 9 0 0
BITMAP
00001100
0761B500
05FF9000
00110000
03CC6000
2EABA000
7E0D7020
9D6F8B70
3EC7E800
ENDCHAR
STARTCHAR uni04D2
ENCODING 1234
SWIDTH 786 0
DWIDTH 9 0
BBX 10 11 0 0
BITMAP
00002E4C80
0000020100
00039DEEC2
006FC65770
04F8008F00
0DC000CC00
3F6001F900
5F4005F600
5F500CF404
1EC5ACF97D
04DEA1AFC2
ENDCHAR
STARTCHAR uni04D3
ENCODING 1235
SWIDTH 470 0
DWIDTH 5 0
BBX 7 7 0 0
BITMAP
04E2E500
00202000
03CC6000
2EABA000
7E0D7020
9D6F8B70
3EC7E800
ENDCHAR
STARTCHAR uni04D4
ENCODING 1236
SWIDTH 1015 0
DWIDTH 11 0
BBX 13 9 0 0
BITMAP
0004BE69FFFB00
007FB53F733100
05F8006F200000
0DC000BE000000
3F6001EFFFE000
5F4005F9332000
5F500BF7000000
1EC39CCE535B70
04DFB22AEEC810
ENDCHAR
STARTCHAR uni04D5
ENCODING 1237
SWIDTH 653 0
DWIDTH 7 0
BBX 9 5 0 0
BITMAP
04CEAEB000
2F99D5F100
8D0CCB8130
8D5FE65D60
3DD4BFD600
ENDCHAR
STARTCHAR uni04D6
ENCODING 1238
SWIDTH 686 0
DWIDTH 8 0
BBX 9 13 0 0
BITMAP
0000002400
0007A1B600
0003DEA000
0000000000
003BEEB200
03FB44DA00
08F100AC00
06F7106500
01CFF30000
3EB5200000
9F10000000
7F943459B0
06CEFED930
ENDCHAR
STARTCHAR uni04D7
ENCODING 1239
SWIDTH 393 0
DWIDTH 4 0
BBX 6 9 0 0
BITMAP
000030
1B24D0
0CFE40
002000
07EC10
5E4F30
9DAA14
7F74C8
1AED70
ENDCHAR
STARTCHAR uni04D8
ENCODING 1240
SWIDTH 792 0
DWIDTH 9 0
BBX 9 9 0 0
BITMAP
006CFEA200
06E735DD00
0210005F50
0000002F70
2EFFFFFF60
5F63338F40
3F7000CD00
0BE54BF400
019EEB3000
ENDCHAR
STARTCHAR uni04D9
ENCODING 1241
SWIDTH 455 0
DWIDTH 5 0
BBX 7 5 0 0
BITMAP
2CFC3000
143CB120
7FFFFF60
AA5DB200
4DEB2000
ENDCHAR
STARTCHAR uni04DA
ENCODING 1242
SWIDTH 792 0
DWIDTH 9 0
BBX 9 11 0 0
BITMAP
000AA6D000
0001101000
006CFEA200
06E735DD00
0210005F50
0000002F70
2EFFFFFF60
5F63338F40
3F7000CD00
0BE54BF400
019EEB3000
ENDCHAR
STARTCHAR uni04DB
ENCODING 1243
SWIDTH 455 0
DWIDTH 5 0
BBX 7 7 0 0
BITMAP
0B87C000
01011000
2CFC3000
143CB120
7FFFFF60
AA5DB200
4DEB2000
ENDCHAR
STARTCHAR uni04DC
ENCODING 1244
SWIDTH 1234 0
DWIDTH 14 0
BBX 15 11 0 0
BITMAP
0000007D3E300000
0000001102000000
01AEB007C008EC20
0364E70BC05F4930
00009C0DA0CA0000
00004F3E9AD20000
00001BFFFC100000
0001DC8F5E800000
0009E18F08E10020
9A5F60AD02EB3A60
4DE700A9005EE800
ENDCHAR
STARTCHAR uni04DD
ENCODING 1245
SWIDTH 717 0
DWIDTH 8 0
BBX 10 7 0 0
BITMAP
000D69A000
0002011000
0CD4E4DD10
0A8EDD7D30
337EEF1331
B9CAFD65D2
7E94A4DD40
ENDCHAR
STARTCHAR uni04DE
ENCODING 1246
SWIDTH 725 0
DWIDTH 8 0
BBX 8 11 0 0
BITMAP
000A96D0
00011010
006DFE70
05F739F2
07D005F1
01301C90
001DEDB1
030202F8
5F2003F8
3F934DE2
06DFEA20
ENDCHAR
STARTCHAR uni04DF
ENCODING 1247
SWIDTH 435 0
DWIDTH 5 0
BBX 7 12 -1 -5
BITMAP
02E3C700
00201000
00AED200
0173C500
0006D110
03E928D0
01BDC910
006F8000
07BD7000
2D2F4000
6B9C0000
3EC20000
ENDCHAR
STARTCHAR uni04E0
ENCODING 1248
SWIDTH 744 0
DWIDTH 8 0
BBX 9 9 0 0
BITMAP
008DFEDA20
06E434ED30
06E006F400
00203E8000
001DEDB100
030202F800
5F2003F800
3F934DE200
06DFEA2000
ENDCHAR
STARTCHAR uni04E1
ENCODING 1249
SWIDTH 435 0
DWIDTH 5 0
BBX 7 10 -1 -5
BITMAP
05FFFF10
003BD600
00BA1040
05F32BB0
008FE600
009F7000
09AC7000
3D2F3000
6B9C0000
3EC20000
ENDCHAR
STARTCHAR uni04E2
ENCODING 1250
SWIDTH 890 0
DWIDTH 10 0
BBX 12 11 0 0
BITMAP
0000BFF90000
000023310000
19ED1004E100
B96F5007F200
605F400AE000
008F100DC000
00BD003FA000
00E9009F7000
02F603BF5031
02FB7D5FB8E1
009EC409EC30
ENDCHAR
STARTCHAR uni04E3
ENCODING 1251
SWIDTH 462 0
DWIDTH 5 0
BBX 7 7 0 0
BITMAP
06FFE000
01332000
0D45B000
3F1B9000
6E2F6130
7ECF7C50
3E7BE600
ENDCHAR
STARTCHAR uni04E4
ENCODING 1252
SWIDTH 890 0
DWIDTH 10 0
BBX 12 11 0 0
BITMAP
0000C87C0000
000010110000
19ED1004E100
B96F5007F200
605F400AE000
008F100DC000
00BD003FA000
00E9009F7000
02F603BF5031
02FB7D5FB8E1
009EC409EC30
ENDCHAR
STARTCHAR uni04E5
ENCODING 1253
SWIDTH 462 0
DWIDTH 5 0
BBX 7 7 0 0
BITMAP
06D3E300
01102000
0D45B000
3F1B9000
6E2F6130
7ECF7C50
3E7BE600
ENDCHAR
STARTCHAR uni04E6
ENCODING 1254
SWIDTH 816 0
DWIDTH 9 0
BBX 9 11 0 0
BITMAP
0005E2E500
0000202000
0019DEC400
01DC54BF30
09E1001F90
1E90000DB0
3F60000EA0
4F50002F70
2F80008F20
0BE638F600
019EEC4000
ENDCHAR
STARTCHAR uni04E7
ENCODING 1255
SWIDTH 451 0
DWIDTH 5 0
BBX 7 7 0 0
BITMAP
0B87C000
01011000
08EC2000
5F7F9210
9C0DFF50
7E4C8100
1BEA1000
ENDCHAR
STARTCHAR uni04E8
ENCODING 1256
SWIDTH 816 0
DWIDTH 9 0
BBX 9 9 0 0
BITMAP
0019DEC400
01DD53BF30
09E2002F90
1E90000DB0
3FFFFFFFA0
4F72223F70
2F80008F20
0BE638F600
019EEC4000
ENDCHAR
STARTCHAR uni04E9
ENCODING 1257
SWIDTH 451 0
DWIDTH 5 0
BBX 7 5 0 0
BITMAP
08EC2000
5F4CA310
9FFFFF50
7E6D8000
1BEA1000
ENDCHAR
STARTCHAR uni04EA
ENCODING 1258
SWIDTH 816 0
DWIDTH 9 0
BBX 9 11 0 0
BITMAP
0005E2E500
0000202000
0019DEC400
01DD53BF30
09E2002F90
1E90000DB0
3FFFFFFFA0
4F72223F70
2F80008F20
0BE638F600
019EEC4000
ENDCHAR
STARTCHAR uni04EB
ENCODING 1259
SWIDTH 451 0
DWIDTH 5 0
BBX 7 7 0 0
BITMAP
0C77C000
01011000
08EC2000
5F4CA310
9FFFFF50
7E6D8000
1BEA1000
ENDCHAR
STARTCHAR uni04EC
ENCODING 1260
SWIDTH 755 0
DWIDTH 8 0
BBX 9 11 0 0
BITMAP
000B97D000
0001111000
018DFD7000
0CC439F700
040000CE00
0000009F10
009FFFFF00
001222CD00
6E0003F700
6F525DC000
09EFD81000
ENDCHAR
STARTCHAR uni04ED
ENCODING 1261
SWIDTH 466 0
DWIDTH 5 0
BBX 7 7 0 0
BITMAP
09A5E100
01101000
1CFD4000
053BD120
12DFFF80
8A4CD200
3DFC3000
ENDCHAR
STARTCHAR uni04EE
ENCODING 1262
SWIDTH 824 0
DWIDTH 9 0
BBX 11 15 0 -4
BITMAP
0000DFF70000
000023300000
19EC1004E100
887F4009F100
006F200DD000
00AD006FA000
00BD05DE8000
005FFC3F6310
0001105FFF60
00004CFF5100
0008F9AD0000
003F40B90000
005F25F30000
001DFE500000
000020000000
ENDCHAR
STARTCHAR uni04EF
ENCODING 1263
SWIDTH 479 0
DWIDTH 5 0
BBX 7 12 0 -5
BITMAP
06FFE000
01332000
0D45B000
3F1BA000
6E2F7220
7ECFAE40
3E9FC200
02CE0000
1CBB0000
A6B60000
F6E10000
BE500000
ENDCHAR
STARTCHAR uni04F0
ENCODING 1264
SWIDTH 824 0
DWIDTH 9 0
BBX 11 15 0 -4
BITMAP
0000D69A0000
000020110000
19EC1004E100
887F4009F100
006F200DD000
00AD006FA000
00BD05DE8000
005FFC3F6310
0001105FFF60
00004CFF5100
0008F9AD0000
003F40B90000
005F25F30000
001DFE500000
000020000000
ENDCHAR
STARTCHAR uni04F1
ENCODING 1265
SWIDTH 479 0
DWIDTH 5 0
BBX 7 12 0 -5
BITMAP
06D3E300
01102000
0D45B000
3F1BA000
6E2F7220
7ECFAE40
3E9FC200
02CE0000
1CBB0000
A6B60000
F6E10000
BE500000
ENDCHAR
STARTCHAR uni04F2
ENCODING 1266
SWIDTH 824 0
DWIDTH 9 0
BBX 11 17 0 -4
BITMAP
000006060000
00005E5E0000
000086860000
000000000000
19EC1004E100
887F4009F100
006F200DD000
00AD006FA000
00BD05DE8000
005FFC3F6310
0001105FFF60
00004CFF5100
0008F9AD0000
003F40B90000
005F25F30000
001DFE500000
000020000000
ENDCHAR
STARTCHAR uni04F3
ENCODING 1267
SWIDTH 479 0
DWIDTH 5 0
BBX 7 15 0 -5
BITMAP
00252500
008D8C00
00D5D500
01B1B000
00000000
0D45B000
3F1BA000
6E2F7220
7ECFAE40
3E9FC200
02CE0000
1CBB0000
A6B60000
F6E10000
BE500000
ENDCHAR
STARTCHAR uni04F4
ENCODING 1268
SWIDTH 773 0
DWIDTH 9 0
BBX 8 11 1 0
BITMAP
00A96D00
00110100
3E3004E1
5F4007F1
7F200BE0
AE002FC0
BE34CEA0
5FFF7D80
01311F60
00003F40
00003E20
ENDCHAR
STARTCHAR uni04F5
ENCODING 1269
SWIDTH 555 0
DWIDTH 6 0
BBX 8 7 0 0
BITMAP
000D59A0
00CB0110
03DDFF30
0994E700
3E4E5013
D46F35E5
202CFC50
ENDCHAR
STARTCHAR uni04F6
ENCODING 1270
SWIDTH 600 0
DWIDTH 7 0
BBX 10 14 0 -4
BITMAP
0000000010
05BEFFFFF5
6E7BF22210
9C0BC00000
380E900000
002F600000
005F400000
007F200000
009F600000
008FD00000
06DBA00000
1F6D600000
1EFB000000
0020000000
ENDCHAR
STARTCHAR uni04F7
ENCODING 1271
SWIDTH 441 0
DWIDTH 5 0
BBX 6 9 0 -4
BITMAP
3CFB00
258E00
19B300
7E355B
5EEFD4
04DE00
2D7A00
3FE200
010000
ENDCHAR
STARTCHAR uni04F8
ENCODING 1272
SWIDTH 1078 0
DWIDTH 12 0
BBX 12 11 0 0
BITMAP
000009A5E100
000001101000
00B8000000D6
01F7000002F6
05F3000004F4
08FCEEA207F1
8FD536FA09E0
2DA000DC0CB0
0BB001E90E90
08E44BE22F70
01AEEA202E40
ENDCHAR
STARTCHAR uni04F9
ENCODING 1273
SWIDTH 702 0
DWIDTH 8 0
BBX 10 7 0 0
BITMAP
002E3C8000
0002010000
0D5001D400
4FBE89F200
6F78FFE051
5F5AE9E6D0
0AEC32DC30
ENDCHAR
STARTCHAR uni04FA
ENCODING 1274
SWIDTH 635 0
DWIDTH 7 0
BBX 11 15 -1 -5
BITMAP
000000000100
005BEFFFFF50
05E7AF222100
09B0BC000000
0490EA000000
003EFFD00000
0005F6100000
0006F3000000
0008F1000000
000AD0000000
000DA0000000
002F60000000
678E10000000
8FF500000000
021000000000
ENDCHAR
STARTCHAR uni04FB
ENCODING 1275
SWIDTH 441 0
DWIDTH 5 0
BBX 6 9 0 -4
BITMAP
3CFB00
259E00
8CF500
8E775B
4EEFC4
04DE00
2D7A00
3FE200
010000
ENDCHAR
STARTCHAR uni04FC
ENCODING 1276
SWIDTH 716 0
DWIDTH 8 0
BBX 11 13 -1 -4
BITMAP
02BFB104E500
0C65F82EA000
0000BDDB0000
00006FC10000
0000BF700000
000AEDB00000
008F48F10000
07F703FA5B20
1E80009FD500
000007DF5000
00006E5E1000
00006FF60000
000001100000
ENDCHAR
STARTCHAR uni04FD
ENCODING 1277
SWIDTH 601 0
DWIDTH 7 0
BBX 8 9 0 -4
BITMAP
0CE7CC00
0B8F7A00
237F1000
B9BF5358
8EACFFB2
0006DB00
005BA700
006FC100
00020000
ENDCHAR
STARTCHAR uni04FE
ENCODING 1278
SWIDTH 712 0
DWIDTH 8 0
BBX 11 9 -1 0
BITMAP
02BFB103E500
0C65F72EC000
0100CDCD1000
00007FE30000
003EFFFF1000
0006FFA20000
004E8AE00100
04F904F74D20
1E90009ED500
ENDCHAR
STARTCHAR uni04FF
ENCODING 1279
SWIDTH 529 0
DWIDTH 6 0
BBX 8 5 0 0
BITMAP
0CE7CC00
0B9F8A00
23EFD021
B9CF65D2
8E99ED40
ENDCHAR
STARTCHAR uni0510
ENCODING 1296
SWIDTH 706 0
DWIDTH 8 0
BBX 8 9 0 0
BITMAP
005DFD70
02F838F4
04F201F3
01E80020
06DDE600
4F501020
6F4001F5
3FD43AF2
04CEEB40
ENDCHAR
STARTCHAR uni0511
ENCODING 1297
SWIDTH 392 0
DWIDTH 4 0
BBX 6 5 0 0
BITMAP
0AEB00
3E3600
2EE001
AD55C7
6EFD70
ENDCHAR
STARTCHAR uni0512
ENCODING 1298
SWIDTH 884 0
DWIDTH 10 0
BBX 12 13 0 -4
BITMAP
000000BB0000
000004FC0000
000009FB0000
00001EEB0000
00006EBB0000
0000C9BB0000
4106F3AD0000
CA4E906F75B1
4DE9000BFC40
0000008DF400
000008D5E000
000007FF5000
000000210000
ENDCHAR
STARTCHAR uni0513
ENCODING 1299
SWIDTH 631 0
DWIDTH 7 0
BBX 8 9 0 -4
BITMAP
0009D000
002FF000
529DE000
E8E7F33A
AE62EFD5
0002BF10
001C8C00
002FE300
00011000
ENDCHAR
STARTCHAR uni051A
ENCODING 1306
SWIDTH 816 0
DWIDTH 9 0
BBX 10 13 0 -4
BITMAP
0019DEC400
01DD54BF30
0AE1001F90
1F90000DB0
3F60000EA0
4F60002F70
2FA000AE10
09F97BF500
006CFD3000
0000AF3001
00002FC169
000006FFC1
0000001200
ENDCHAR
STARTCHAR uni051B
ENCODING 1307
SWIDTH 500 0
DWIDTH 6 0
BBX 7 11 0 -5
BITMAP
00007100
03CEF100
2EAAC000
7E0D8000
8D6F8FD0
3EDF7910
006E5800
007D6700
007EA400
003FD000
00021000
ENDCHAR
STARTCHAR uni051C
ENCODING 1308
SWIDTH 1217 0
DWIDTH 13 0
BBX 14 9 1 0
BITMAP
3E2002E403DE40
7F2006F40B8CA0
9F0009F20C5B90
AE000DF108CF50
AD003FF100BFFD
9E009CF101E721
7F12E4F309D000
3FAD90DBAE3000
09E9005EC30000
ENDCHAR
STARTCHAR uni051D
ENCODING 1309
SWIDTH 700 0
DWIDTH 8 0
BBX 10 5 0 0
BITMAP
5C0881D600
7E1EA5F720
6E6FA6FFE1
5FDADE5200
1E93E70000
ENDCHAR
STARTCHAR uni0524
ENCODING 1316
SWIDTH 892 0
DWIDTH 10 0
BBX 12 13 0 -4
BITMAP
039CEFFEECA1
4F89F426F761
8B0AE007F200
390CB00AE000
000F900DA000
003F601F7000
005F403F5000
007F202FE892
007D0005EE70
0000008DF400
000007E5E100
000007FF6000
000000110000
ENDCHAR
STARTCHAR uni0525
ENCODING 1317
SWIDTH 536 0
DWIDTH 6 0
BBX 7 9 0 -4
BITMAP
1D4AE000
4FADE000
6EB8B000
7F5AC4B0
4D05FD40
004DF100
01D7B000
02FE3000
00110000
ENDCHAR
STARTCHAR uni0526
ENCODING 1318
SWIDTH 818 0
DWIDTH 9 0
BBX 11 13 0 -4
BITMAP
00A900000000
00E900000000
03F600000000
06F300000000
08F4CFC20000
0BFB55F80000
0DD100F80000
1F9002FD6630
1E6001EFF910
000004BE7000
00004F4F3000
00005FF80000
000001100000
ENDCHAR
STARTCHAR uni0527
ENCODING 1319
SWIDTH 542 0
DWIDTH 6 0
BBX 8 14 0 -4
BITMAP
007E6000
02E8A000
09A78000
0D6C2000
1FB80000
4FBAE100
5F9DF000
6FC7C000
6F69C4B1
5D14FD50
003CF100
01E7C000
02FE3000
00110000
ENDCHAR
STARTCHAR uni0528
ENCODING 1320
SWIDTH 873 0
DWIDTH 10 0
BBX 13 14 -2 -4
BITMAP
0000000001BD20
001AEC1009C960
01D66F401F5950
01304F405F2D10
00006F209ED600
000CFFFFFD3000
0001DC20CA0000
0000F900BB0040
0003F6008E46C0
0006F2001AEB20
000BD000000000
1B3F7000000000
2EFB1000000000
01200000000000
ENDCHAR
STARTCHAR uni0529
ENCODING 1321
SWIDTH 475 0
DWIDTH 5 0
BBX 9 9 -2 -4
BITMAP
001D43D000
004F17B000
006FEF8010
006D2D8980
006D0AE800
005E000000
196D000000
1EF7000000
0110000000
ENDCHAR
STARTCHAR uni052E
ENCODING 1326
SWIDTH 884 0
DWIDTH 10 0
BBX 12 13 0 -4
BITMAP
000000BB0000
000004FC0000
000009FB0000
00001EEB0000
00006EBB0000
0000C9BB0000
4106F3AD0000
CA4E906F75B1
4DE9000BFC40
0000008DF400
000008D5E000
000007FF5000
000000210000
ENDCHAR
STARTCHAR uni052F
ENCODING 1327
SWIDTH 631 0
DWIDTH 7 0
BBX 8 9 0 -4
BITMAP
0009D000
002FF000
529DE000
E8E7F33A
AE62EFD5
0002BF10
001C8C00
002FE300
00011000
ENDCHAR
STARTCHAR Wgrave
ENCODING 7808
SWIDTH 1217 0
DWIDTH 13 0
BBX 14 13 1 0
BITMAP
00006100000000
0002EC20000000
000017C0000000
00000000000000
3E2002E403DE40
7F2006F40B8CA0
9F0009F20C5B90
AE000DF108CF50
AD003FF100BFFD
9E009CF101E721
7F12E4F309D000
3FAD90DBAE3000
09E9005EC30000
ENDCHAR
STARTCHAR wgrave
ENCODING 7809
SWIDTH 700 0
DWIDTH 8 0
BBX 10 10 0 0
BITMAP
0042000000
00AB000000
003E200000
0006700000
0000000000
5C0881D600
7E1EA5F720
6E6FA6FFE1
5FDADE5200
1E93E70000
ENDCHAR
STARTCHAR Wacute
ENCODING 7810
SWIDTH 1217 0
DWIDTH 13 0
BBX 14 13 1 0
BITMAP
00000000430000
00000008F70000
0000007B300000
00000000000000
3E2002E403DE40
7F2006F40B8CA0
9F0009F20C5B90
AE000DF108CF50
AD003FF100BFFD
9E009CF101E721
7F12E4F309D000
3FAD90DBAE3000
09E9005EC30000
ENDCHAR
STARTCHAR wacute
ENCODING 7811
SWIDTH 700 0
DWIDTH 8 0
BBX 10 9 0 0
BITMAP
00003E1000
0000AA0000
0001B00000
0000000000
5C0881D600
7E1EA5F720
6E6FA6FFE1
5FDADE5200
1E93E70000
ENDCHAR
STARTCHAR Wdieresis
ENCODING 7812
SWIDTH 1217 0
DWIDTH 13 0
BBX 14 11 1 0
BITMAP
00000D69B00000
00000201100000
3E2002E403DE40
7F2006F40B8CA0
9F0009F20C5B90
AE000DF108CF50
AD003FF100BFFD
9E009CF101E721
7F12E4F309D000
3FAD90DBAE3000
09E9005EC30000
ENDCHAR
STARTCHAR wdieresis
ENCODING 7813
SWIDTH 700 0
DWIDTH 8 0
BBX 10 7 0 0
BITMAP
007C3E2000
0011020000
5C0881D600
7E1EA5F720
6E6FA6FFE1
5FDADE5200
1E93E70000
ENDCHAR
STARTCHAR uni1E9E
ENCODING 7838
SWIDTH 843 0
DWIDTH 9 0
BBX 8 10 1 -1
BITMAP
0C82AED4
2F8D74ED
5FC501DB
8FB16DB1
AF55EE81
CF1005F8
EC0000FA
F90007F6
E506CF70
00056100
ENDCHAR
STARTCHAR uni1EA0
ENCODING 7840
SWIDTH 786 0
DWIDTH 9 0
BBX 10 12 0 -3
BITMAP
00039DEEC2
006FC65770
04F8008F00
0DC000CC00
3F6001F900
5F4005F600
5F500CF404
1EC5ACF97D
04DEA1AFC2
0000000000
000CC00000
0001100000
ENDCHAR
STARTCHAR uni1EA1
ENCODING 7841
SWIDTH 470 0
DWIDTH 5 0
BBX 7 8 0 -3
BITMAP
03CC6000
2EABA000
7E0D7020
9D6F8B70
3EC7E800
00000000
0AD00000
01100000
ENDCHAR
STARTCHAR uni1EA2
ENCODING 7842
SWIDTH 786 0
DWIDTH 9 0
BBX 10 13 0 0
BITMAP
000004EC10
0000013E30
000000DD10
0000002000
00039DEEC2
006FC65770
04F8008F00
0DC000CC00
3F6001F900
5F4005F600
5F500CF404
1EC5ACF97D
04DEA1AFC2
ENDCHAR
STARTCHAR uni1EA3
ENCODING 7843
SWIDTH 470 0
DWIDTH 5 0
BBX 7 9 0 0
BITMAP
006FA000
0014F000
001F9000
00020000
03CC6000
2EABA000
7E0D7020
9D6F8B70
3EC7E800
ENDCHAR
STARTCHAR uni1EA4
ENCODING 7844
SWIDTH 786 0
DWIDTH 9 0
BBX 10 17 0 0
BITMAP
0000000025
00000005EA
0000003C50
0000000000
000002DB00
00000B9F30
00003D1A60
0000000000
00039DEEC2
006FC65770
04F8008F00
0DC000CC00
3F6001F900
5F4005F600
5F500CF404
1EC5ACF97D
04DEA1AFC2
ENDCHAR
STARTCHAR uni1EA5
ENCODING 7845
SWIDTH 470 0
DWIDTH 5 0
BBX 7 10 0 0
BITMAP
00000250
00001C70
006D9000
04C2D200
00000000
03CC6000
2EABA000
7E0D7020
9D6F8B70
3EC7E800
ENDCHAR
STARTCHAR uni1EA6
ENCODING 7846
SWIDTH 786 0
DWIDTH 9 0
BBX 10 17 0 0
BITMAP
0000520000
0000CE4000
000006D200
0000000000
000002DB00
00000B9F30
00003D1A60
0000000000
00039DEEC2
006FC65770
04F8008F00
0DC000CC00
3F6001F900
5F4005F600
5F500CF404
1EC5ACF97D
04DEA1AFC2
ENDCHAR
STARTCHAR uni1EA7
ENCODING 7847
SWIDTH 470 0
DWIDTH 5 0
BBX 7 10 0 0
BITMAP
25000000
3C600000
006D9000
04C2D200
00000000
03CC6000
2EABA000
7E0D7020
9D6F8B70
3EC7E800
ENDCHAR
STARTCHAR uni1EA8
ENCODING 7848
SWIDTH 786 0
DWIDTH 9 0
BBX 10 17 0 0
BITMAP
000000BE50
00000029A0
0000007F50
0000001100
000002DB00
00000B9F30
00003D1A60
0000000000
00039DEEC2
006FC65770
04F8008F00
0DC000CC00
3F6001F900
5F4005F600
5F500CF404
1EC5ACF97D
04DEA1AFC2
ENDCHAR
STARTCHAR uni1EA9
ENCODING 7849
SWIDTH 470 0
DWIDTH 5 0
BBX 7 9 0 0
BITMAP
00003E90
000004D0
005E9D90
04E7F400
04DC7000
2EABA000
7E0D7020
9D6F8B70
3EC7E800
ENDCHAR
STARTCHAR uni1EAA
ENCODING 7850
SWIDTH 786 0
DWIDTH 9 0
BBX 10 16 0 0
BITMAP
000009D578
00002D4CD2
0000000000
000002DB00
00000B9F30
00003D1A60
0000000000
00039DEEC2
006FC65770
04F8008F00
0DC000CC00
3F6001F900
5F4005F600
5F500CF404
1EC5ACF97D
04DEA1AFC2
ENDCHAR
STARTCHAR uni1EAB
ENCODING 7851
SWIDTH 470 0
DWIDTH 5 0
BBX 7 10 0 0
BITMAP
00CC5B00
02559200
008EB000
04D2D200
00000000
03CC6000
2EABA000
7E0D7020
9D6F8B70
3EC7E800
ENDCHAR
STARTCHAR uni1EAC
ENCODING 7852
SWIDTH 786 0
DWIDTH 9 0
BBX 10 16 0 -3
BITMAP
000002DB00
00000B9F30
00003D1A60
0000000000
00039DEEC2
006FC65770
04F8008F00
0DC000CC00
3F6001F900
5F4005F600
5F500CF404
1EC5ACF97D
04DEA1AFC2
0000000000
000CC00000
0001100000
ENDCHAR
STARTCHAR uni1EAD
ENCODING 7853
SWIDTH 470 0
DWIDTH 5 0
BBX 7 13 0 -3
BITMAP
00053000
005EB000
01D6F100
05B0D200
00000000
03CC6000
2EABA000
7E0D7020
9D6F8B70
3EC7E800
00000000
0AD00000
01100000
ENDCHAR
STARTCHAR uni1EAE
ENCODING 7854
SWIDTH 786 0
DWIDTH 9 0
BBX 10 13 0 0
BITMAP
0000002C50
00005936A0
00002DFF80
0000002000
00039DEEC2
006FC65770
04F8008F00
0DC000CC00
3F6001F900
5F4005F600
5F500CF404
1EC5ACF97D
04DEA1AFC2
ENDCHAR
STARTCHAR uni1EAF
ENCODING 7855
SWIDTH 470 0
DWIDTH 5 0
BBX 7 9 0 0
BITMAP
0003D300
07747800
05EFE500
00020000
03CC6000
2EABA000
7E0D7020
9D6F8B70
3EC7E800
ENDCHAR
STARTCHAR uni1EB0
ENCODING 7856
SWIDTH 786 0
DWIDTH 9 0
BBX 10 13 0 0
BITMAP
0000099000
00004844A0
00002DFE70
0000001000
00039DEEC2
006FC65770
04F8008F00
0DC000CC00
3F6001F900
5F4005F600
5F500CF404
1EC5ACF97D
04DEA1AFC2
ENDCHAR
STARTCHAR uni1EB1
ENCODING 7857
SWIDTH 470 0
DWIDTH 5 0
BBX 7 9 0 0
BITMAP
00C70000
07754800
04EEE500
00010000
03CC6000
2EABA000
7E0D7020
9D6F8B70
3EC7E800
ENDCHAR
STARTCHAR uni1EB2
ENCODING 7858
SWIDTH 786 0
DWIDTH 9 0
BBX 10 14 0 0
BITMAP
000002FB00
000001DC10
00007C36E0
00002DFF60
0000002100
00039DEEC2
006FC65770
04F8008F00
0DC000CC00
3F6001F900
5F4005F600
5F500CF404
1EC5ACF97D
04DEA1AFC2
ENDCHAR
STARTCHAR uni1EB3
ENCODING 7859
SWIDTH 470 0
DWIDTH 5 0
BBX 7 10 0 0
BITMAP
005F8000
011F9100
0A938B00
03EFE400
00020000
03CC6000
2EABA000
7E0D7020
9D6F8B70
3EC7E800
ENDCHAR
STARTCHAR uni1EB4
ENCODING 7860
SWIDTH 786 0
DWIDTH 9 0
BBX 10 14 0 0
BITMAP
000009B4B1
0000172850
00005A03C0
00002CFE60
0000001000
00039DEEC2
006FC65770
04F8008F00
0DC000CC00
3F6001F900
5F4005F600
5F500CF404
1EC5ACF97D
04DEA1AFC2
ENDCHAR
STARTCHAR uni1EB5
ENCODING 7861
SWIDTH 470 0
DWIDTH 5 0
BBX 7 10 0 0
BITMAP
01BA4A00
03538300
08705A00
04EFD400
00010000
03CC6000
2EABA000
7E0D7020
9D6F8B70
3EC7E800
ENDCHAR
STARTCHAR uni1EB6
ENCODING 7862
SWIDTH 786 0
DWIDTH 9 0
BBX 10 15 0 -3
BITMAP
00005914B0
00002DFF70
0000002000
00039DEEC2
006FC65770
04F8008F00
0DC000CC00
3F6001F900
5F4005F600
5F500CF404
1EC5ACF97D
04DEA1AFC2
0000000000
000CC00000
0001100000
ENDCHAR
STARTCHAR uni1EB7
ENCODING 7863
SWIDTH 470 0
DWIDTH 5 0
BBX 7 12 0 -3
BITMAP
02100300
0AB19B00
03EFD300
00020000
03CC6000
2EABA000
7E0D7020
9D6F8B70
3EC7E800
00000000
0AD00000
01100000
ENDCHAR
STARTCHAR uni1EB8
ENCODING 7864
SWIDTH 686 0
DWIDTH 8 0
BBX 9 12 0 -3
BITMAP
003BEEB200
03FB44DA00
08F100AC00
06F7106500
01CFF30000
3EB5200000
9F10000000
7F943459B0
06CEFED930
0000000000
001DB00000
0002100000
ENDCHAR
STARTCHAR uni1EB9
ENCODING 7865
SWIDTH 393 0
DWIDTH 4 0
BBX 6 8 0 -3
BITMAP
07EC10
5E4F30
9DAA14
7F74C8
1AED70
000000
06E300
002000
ENDCHAR
STARTCHAR uni1EBA
ENCODING 7866
SWIDTH 686 0
DWIDTH 8 0
BBX 9 13 0 0
BITMAP
00009E8000
000027D000
00004F8000
0000020000
003BEEB200
03FB44DA00
08F100AC00
06F7106500
01CFF30000
3EB5200000
9F10000000
7F943459B0
06CEFED930
ENDCHAR
STARTCHAR uni1EBB
ENCODING 7867
SWIDTH 393 0
DWIDTH 4 0
BBX 6 9 0 0
BITMAP
00DE40
002A80
008E30
001100
07EC10
5E4F30
9DAA14
7F74C8
1AED70
ENDCHAR
STARTCHAR uni1EBC
ENCODING 7868
SWIDTH 686 0
DWIDTH 8 0
BBX 9 12 0 0
BITMAP
0007E75A00
000D5BE300
0000000000
003BEEB200
03FB44DA00
08F100AC00
06F7106500
01CFF30000
3EB5200000
9F10000000
7F943459B0
06CEFED930
ENDCHAR
STARTCHAR uni1EBD
ENCODING 7869
SWIDTH 393 0
DWIDTH 4 0
BBX 6 8 0 0
BITMAP
0AD496
3C4CC1
000000
07EC10
5E4F30
9DAA14
7F74C8
1AED70
ENDCHAR
STARTCHAR uni1EBE
ENCODING 7870
SWIDTH 686 0
DWIDTH 8 0
BBX 9 14 0 0
BITMAP
0000000330
0000003C50
00008D7000
0007B3D000
0000000000
003BEEB200
03FB44DA00
08F100AC00
06F7106500
01CFF30000
3EB5200000
9F10000000
7F943459B0
06CEFED930
ENDCHAR
STARTCHAR uni1EBF
ENCODING 7871
SWIDTH 393 0
DWIDTH 4 0
BBX 7 10 0 0
BITMAP
00000520
00007B20
01BD3000
0A76A000
00000000
07EC1000
5E4F3000
9DAA1400
7F74C800
1AED7000
ENDCHAR
STARTCHAR uni1EC0
ENCODING 7872
SWIDTH 686 0
DWIDTH 8 0
BBX 9 14 0 0
BITMAP
0033000000
004C300000
00008D7000
0007B3D000
0000000000
003BEEB200
03FB44DA00
08F100AC00
06F7106500
01CFF30000
3EB5200000
9F10000000
7F943459B0
06CEFED930
ENDCHAR
STARTCHAR uni1EC1
ENCODING 7873
SWIDTH 393 0
DWIDTH 4 0
BBX 6 10 0 0
BITMAP
520000
7C1000
01BD30
0A76A0
000000
07EC10
5E4F30
9DAA14
7F74C8
1AED70
ENDCHAR
STARTCHAR uni1EC2
ENCODING 7874
SWIDTH 686 0
DWIDTH 8 0
BBX 9 13 0 0
BITMAP
0000006E60
00000016B0
00008E8F60
0006E8E200
003CFEC200
03FB44DA00
08F100AC00
06F7106500
01CFF30000
3EB5200000
9F10000000
7F943459B0
06CEFED930
ENDCHAR
STARTCHAR uni1EC3
ENCODING 7875
SWIDTH 393 0
DWIDTH 4 0
BBX 7 9 0 0
BITMAP
00009E30
00002970
01BE8F30
0ABAB100
09ED2000
5E4F3000
9DAA1400
7F74C800
1AED7000
ENDCHAR
STARTCHAR uni1EC4
ENCODING 7876
SWIDTH 686 0
DWIDTH 8 0
BBX 9 14 0 0
BITMAP
0002DA6800
0003468100
0000BE9000
0007B3D000
0000000000
003BEEB200
03FB44DA00
08F100AC00
06F7106500
01CFF30000
3EB5200000
9F10000000
7F943459B0
06CEFED930
ENDCHAR
STARTCHAR uni1EC5
ENCODING 7877
SWIDTH 393 0
DWIDTH 4 0
BBX 6 10 0 0
BITMAP
05E894
053870
02DE50
0B76A0
000000
07EC10
5E4F30
9DAA14
7F74C8
1AED70
ENDCHAR
STARTCHAR uni1EC6
ENCODING 7878
SWIDTH 686 0
DWIDTH 8 0
BBX 9 16 0 -3
BITMAP
00006E5000
0002E9C000
000992E100
0000000000
003BEEB200
03FB44DA00
08F100AC00
06F7106500
01CFF30000
3EB5200000
9F10000000
7F943459B0
06CEFED930
0000000000
001DB00000
0002100000
ENDCHAR
STARTCHAR uni1EC7
ENCODING 7879
SWIDTH 393 0
DWIDTH 4 0
BBX 6 13 0 -3
BITMAP
001600
00CE40
06C980
0C46A0
000000
07EC10
5E4F30
9DAA14
7F74C8
1AED70
000000
06E300
002000
ENDCHAR
STARTCHAR uni1EC8
ENCODING 7880
SWIDTH 495 0
DWIDTH 5 0
BBX 7 13 -1 0
BITMAP
0001ED30
00003C60
0000AE20
00001100
00BFFFE0
0017F510
0007F100
000AE000
000CB000
000E9000
002F6000
016F6100
1FFFFA00
ENDCHAR
STARTCHAR uni1EC9
ENCODING 7881
SWIDTH 246 0
DWIDTH 3 0
BBX 4 9 0 0
BITMAP
1ED3
03B6
0AE2
0100
0D40
4F20
6E03
7E5D
2EC3
ENDCHAR
STARTCHAR uni1ECA
ENCODING 7882
SWIDTH 495 0
DWIDTH 5 0
BBX 7 12 -1 -3
BITMAP
00BFFFE0
0017F510
0007F100
000AE000
000CB000
000E9000
002F6000
016F6100
1FFFFA00
00000000
009E2000
00110000
ENDCHAR
STARTCHAR uni1ECB
ENCODING 7883
SWIDTH 246 0
DWIDTH 3 0
BBX 4 10 0 -3
BITMAP
0BD0
0110
0D40
4F20
6E03
7E5D
2EC3
0000
BD00
1100
ENDCHAR
STARTCHAR uni1ECC
ENCODING 7884
SWIDTH 816 0
DWIDTH 9 0
BBX 9 12 0 -3
BITMAP
0019DEC400
01DC54BF30
09E1001F90
1E90000DB0
3F60000EA0
4F50002F70
2F80008F20
0BE638F600
019EEC4000
0000000000
000DC00000
0001100000
ENDCHAR
STARTCHAR uni1ECD
ENCODING 7885
SWIDTH 451 0
DWIDTH 5 0
BBX 7 8 0 -3
BITMAP
08EC2000
5F7F9210
9C0DFF50
7E4C8100
1BEA1000
00000000
08E10000
01100000
ENDCHAR
STARTCHAR uni1ECE
ENCODING 7886
SWIDTH 816 0
DWIDTH 9 0
BBX 9 13 0 0
BITMAP
00006FA000
000015F000
00002FA000
0000020000
0019DEC400
01DC54BF30
09E1001F90
1E90000DB0
3F60000EA0
4F50002F70
2F80008F20
0BE638F600
019EEC4000
ENDCHAR
STARTCHAR uni1ECF
ENCODING 7887
SWIDTH 451 0
DWIDTH 5 0
BBX 7 9 0 0
BITMAP
00DE3000
002B7000
009E2000
00110000
08EC2000
5F7F9210
9C0DFF50
7E4C8100
1BEA1000
ENDCHAR
STARTCHAR uni1ED0
ENCODING 7888
SWIDTH 816 0
DWIDTH 9 0
BBX 9 14 0 0
BITMAP
0000000250
0000001C70
00006D9000
0004C2D200
0000000000
0019DEC400
01DC54BF30
09E1001F90
1E90000DB0
3F60000EA0
4F50002F70
2F80008F20
0BE638F600
019EEC4000
ENDCHAR
STARTCHAR uni1ED1
ENCODING 7889
SWIDTH 451 0
DWIDTH 5 0
BBX 7 10 0 0
BITMAP
00000510
00007B20
01BD3000
0B679000
00000000
08EC2000
5F7F9210
9C0DFF50
7E4C8100
1BEA1000
ENDCHAR
STARTCHAR uni1ED2
ENCODING 7890
SWIDTH 816 0
DWIDTH 9 0
BBX 9 14 0 0
BITMAP
0025000000
003C600000
00006D9000
0004C2D200
0000000000
0019DEC400
01DC54BF30
09E1001F90
1E90000DB0
3F60000EA0
4F50002F70
2F80008F20
0BE638F600
019EEC4000
ENDCHAR
STARTCHAR uni1ED3
ENCODING 7891
SWIDTH 451 0
DWIDTH 5 0
BBX 7 10 0 0
BITMAP
51000000
8C000000
01BD3000
0B679000
00000000
08EC2000
5F7F9210
9C0DFF50
7E4C8100
1BEA1000
ENDCHAR
STARTCHAR uni1ED4
ENCODING 7892
SWIDTH 816 0
DWIDTH 9 0
BBX 9 13 0 0
BITMAP
0000003E90
00000004D0
00005E9D90
0004E7F400
0019EED400
01DC54BF30
09E1001F90
1E90000DB0
3F60000EA0
4F50002F70
2F80008F20
0BE638F600
019EEC4000
ENDCHAR
STARTCHAR uni1ED5
ENCODING 7893
SWIDTH 451 0
DWIDTH 5 0
BBX 7 9 0 0
BITMAP
0000AE30
00002A60
01BE8E20
0BBBA100
0AED3000
5F7F9210
9C0DFF50
7E4C8100
1BEA1000
ENDCHAR
STARTCHAR uni1ED6
ENCODING 7894
SWIDTH 816 0
DWIDTH 9 0
BBX 9 14 0 0
BITMAP
0000CC5B00
0002559200
00008EB000
0004D2D200
0000000000
0019DEC400
01DC54BF30
09E1001F90
1E90000DB0
3F60000EA0
4F50002F70
2F80008F20
0BE638F600
019EEC4000
ENDCHAR
STARTCHAR uni1ED7
ENCODING 7895
SWIDTH 451 0
DWIDTH 5 0
BBX 7 10 0 0
BITMAP
05E7A400
06386000
02DE4000
0C679000
00000000
08EC2000
5F7F9210
9C0DFF50
7E4C8100
1BEA1000
ENDCHAR
STARTCHAR uni1ED8
ENCODING 7896
SWIDTH 816 0
DWIDTH 9 0
BBX 9 16 0 -3
BITMAP
00004E8000
0001D9E100
0006B0D300
0000000000
0019DEC400
01DC54BF30
09E1001F90
1E90000DB0
3F60000EA0
4F50002F70
2F80008F20
0BE638F600
019EEC4000
0000000000
000DC00000
0001100000
ENDCHAR
STARTCHAR uni1ED9
ENCODING 7897
SWIDTH 451 0
DWIDTH 5 0
BBX 7 13 0 -3
BITMAP
00260000
00CE4000
06C98000
0D369000
00000000
08EC2000
5F7F9210
9C0DFF50
7E4C8100
1BEA1000
00000000
08E10000
01100000
ENDCHAR
STARTCHAR uni1EDA
ENCODING 7898
SWIDTH 816 0
DWIDTH 9 0
BBX 10 13 0 0
BITMAP
0000001600
000002CE20
00000C81A5
00000003F5
0019DFFFC0
01DC54BF30
09E1001F90
1E90000DB0
3F60000EA0
4F50002F70
2F80008F20
0BE638F600
019EEB4000
ENDCHAR
STARTCHAR uni1EDB
ENCODING 7899
SWIDTH 451 0
DWIDTH 5 0
BBX 7 9 0 0
BITMAP
000A8000
003E3000
00853200
0000B600
08EFC100
5F7F9210
9C0DFF50
7E4C8100
1BEA1000
ENDCHAR
STARTCHAR uni1EDC
ENCODING 7900
SWIDTH 816 0
DWIDTH 9 0
BBX 10 13 0 0
BITMAP
0034000000
006F800000
0003A700A5
00000003F5
0019DFFFC0
01DC54BF30
09E1001F90
1E90000DB0
3F60000EA0
4F50002F70
2F80008F20
0BE638F600
019EEB4000
ENDCHAR
STARTCHAR uni1EDD
ENCODING 7901
SWIDTH 451 0
DWIDTH 5 0
BBX 7 10 0 0
BITMAP
15000000
3F300000
09A00000
01C03200
0000B600
08EFC100
5F7F9210
9C0DFF50
7E4C8100
1BEA1000
ENDCHAR
STARTCHAR uni1EDE
ENCODING 7902
SWIDTH 816 0
DWIDTH 9 0
BBX 10 13 0 0
BITMAP
00006FA000
000014F000
00001FB0A5
00000203F5
0019DFFFC0
01DC54BF30
09E1001F90
1E90000DB0
3F60000EA0
4F50002F70
2F80008F20
0BE638F600
019EEB4000
ENDCHAR
STARTCHAR uni1EDF
ENCODING 7903
SWIDTH 451 0
DWIDTH 5 0
BBX 7 9 0 0
BITMAP
03EC1000
003D4000
00CD4200
0020B600
08EFC100
5F7F9210
9C0DFF50
7E4C8100
1BEA1000
ENDCHAR
STARTCHAR uni1EE0
ENCODING 7904
SWIDTH 816 0
DWIDTH 9 0
BBX 10 12 0 0
BITMAP
0004E93C00
000B69E6A5
00000003F5
0019DFFFC0
01DC54BF30
09E1001F90
1E90000DB0
3F60000EA0
4F50002F70
2F80008F20
0BE638F600
019EEB4000
ENDCHAR
STARTCHAR uni1EE1
ENCODING 7905
SWIDTH 451 0
DWIDTH 5 0
BBX 7 8 0 0
BITMAP
0AB3A000
2B6E8200
0000B600
08EFC100
5F6F9210
9C0DFF50
7E3C8000
1BEA1000
ENDCHAR
STARTCHAR uni1EE2
ENCODING 7906
SWIDTH 816 0
DWIDTH 9 0
BBX 10 14 0 -3
BITMAP
00000000A5
00000003F5
0019DFFFC0
01DC54BF30
09E1001F90
1E90000DB0
3F60000EA0
4F50002F70
2F80008F20
0BE638F600
019EEB4000
0000000000
000DC00000
0001100000
ENDCHAR
STARTCHAR uni1EE3
ENCODING 7907
SWIDTH 451 0
DWIDTH 5 0
BBX 7 10 0 -3
BITMAP
00003200
0000B600
08EFC100
5F7F9210
9C0DFF50
7E4C8100
1BEA1000
00000000
08E10000
01100000
ENDCHAR
STARTCHAR uni1EE4
ENCODING 7908
SWIDTH 890 0
DWIDTH 10 0
BBX 12 12 0 -3
BITMAP
19ED1004E100
B96F5007F200
605F400AE000
008F100DC000
00BD003FA000
00E9009F7000
02F603BF5031
02FB7D5FB8E1
009EC409EC30
000000000000
0004E7000000
000020000000
ENDCHAR
STARTCHAR uni1EE5
ENCODING 7909
SWIDTH 462 0
DWIDTH 5 0
BBX 7 8 0 -3
BITMAP
0D45B000
3F1B9000
6E2F6130
7ECF7C50
3E7BE600
00000000
07E30000
00200000
ENDCHAR
STARTCHAR uni1EE6
ENCODING 7910
SWIDTH 890 0
DWIDTH 10 0
BBX 12 13 0 0
BITMAP
00000DE40000
000002A90000
000008F40000
000001100000
19ED1004E100
B96F5007F200
605F400AE000
008F100DC000
00BD003FA000
00E9009F7000
02F603BF5031
02FB7D5FB8E1
009EC409EC30
ENDCHAR
STARTCHAR uni1EE7
ENCODING 7911
SWIDTH 462 0
DWIDTH 5 0
BBX 7 9 0 0
BITMAP
009E7000
0016D000
004F7000
00010000
0D45B000
3F1B9000
6E2F6130
7ECF7C50
3E7BE600
ENDCHAR
STARTCHAR uni1EE8
ENCODING 7912
SWIDTH 890 0
DWIDTH 10 0
BBX 12 13 0 0
BITMAP
000000034000
0000006F9000
000004C404C0
000000000AB0
19ED1004FB20
B96F5007F100
605F400AE000
008F100DB000
00BD003F9000
00E9009F7000
02F603BF5031
02FB7D5FB8E1
009EC409EC30
ENDCHAR
STARTCHAR uni1EE9
ENCODING 7913
SWIDTH 512 0
DWIDTH 6 0
BBX 7 9 0 0
BITMAP
0002E200
0009B000
001C1510
00001E20
0D45F900
3F1B9000
6E2F6030
7ECF76D0
3E7AEB10
ENDCHAR
STARTCHAR uni1EEA
ENCODING 7914
SWIDTH 890 0
DWIDTH 10 0
BBX 12 13 0 0
BITMAP
000610000000
000DE3000000
00006D1004C0
000000000AB0
19ED1004FB20
B96F5007F100
605F400AE000
008F100DB000
00BD003F9000
00E9009F7000
02F603BF5031
02FB7D5FB8E1
009EC409EC30
ENDCHAR
STARTCHAR uni1EEB
ENCODING 7915
SWIDTH 512 0
DWIDTH 6 0
BBX 7 10 0 0
BITMAP
03300000
09C00000
02E30000
00580510
00001E20
0D45F900
3F1B9000
6E2F6030
7ECF76D0
3E7AEB10
ENDCHAR
STARTCHAR uni1EEC
ENCODING 7916
SWIDTH 890 0
DWIDTH 10 0
BBX 12 13 0 0
BITMAP
00000DE40000
000002A90000
000008F404C0
000001100AB0
19ED1004FB20
B96F5007F100
605F400AE000
008F100DB000
00BD003F9000
00E9009F7000
02F603BF5031
02FB7D5FB8E1
009EC409EC30
ENDCHAR
STARTCHAR uni1EED
ENCODING 7917
SWIDTH 512 0
DWIDTH 6 0
BBX 7 9 0 0
BITMAP
009E7000
0016D000
004F7510
00011E20
0D45F900
3F1B9000
6E2F6030
7ECF76D0
3E7AEB10
ENDCHAR
STARTCHAR uni1EEE
ENCODING 7918
SWIDTH 890 0
DWIDTH 10 0
BBX 12 12 0 0
BITMAP
0000AD496000
0003C5CC14C0
000000000AB0
19ED1004FB20
B96F5007F100
605F400AE000
008F100DB000
00BD003F9000
00E9009F7000
02F603BF5031
02FB7D5FB8E1
009EC409EC30
ENDCHAR
STARTCHAR uni1EEF
ENCODING 7919
SWIDTH 512 0
DWIDTH 6 0
BBX 7 8 0 0
BITMAP
03E68400
096BC510
00001E20
0D45F900
3F1B9000
6E2F6040
7ECF77D0
3E7AEB10
ENDCHAR
STARTCHAR uni1EF0
ENCODING 7920
SWIDTH 890 0
DWIDTH 10 0
BBX 12 14 0 -3
BITMAP
0000000004C0
000000000AB0
19ED1004FB20
B96F5007F100
605F400AE000
008F100DB000
00BD003F9000
00E9009F7000
02F603BF5031
02FB7D5FB8E1
009EC409EC30
000000000000
0004E7000000
000020000000
ENDCHAR
STARTCHAR uni1EF1
ENCODING 7921
SWIDTH 512 0
DWIDTH 6 0
BBX 7 10 0 -3
BITMAP
00000510
00001E20
0D45F900
3F1B9000
6E2F6030
7ECF76D0
3E7AEB10
00000000
07E30000
00200000
ENDCHAR
STARTCHAR Ygrave
ENCODING 7922
SWIDTH 851 0
DWIDTH 9 0
BBX 11 17 0 -4
BITMAP
000520000000
000BE5000000
00005C300000
000000000000
09ED1003E200
AA6F5007F200
804F4009F000
007F200DD000
00AE003FB000
00DB00AF9000
00DC17AF6000
006FFB7FCD70
0002988F5100
000C50AC0000
004F25F60000
002EFF800000
000020000000
ENDCHAR
STARTCHAR ygrave
ENCODING 7923
SWIDTH 479 0
DWIDTH 5 0
BBX 7 15 0 -5
BITMAP
03300000
09C00000
02E30000
00580000
00000000
0D45B000
3F1BA000
6E2F7220
7ECFAE40
3E9FC200
02CE0000
1CBB0000
A6B60000
F6E10000
BE500000
ENDCHAR
STARTCHAR uni1EF4
ENCODING 7924
SWIDTH 851 0
DWIDTH 9 0
BBX 11 13 0 -4
BITMAP
09ED1003E200
AA6F5007F200
804F4009F000
007F200DD000
00AE003FB000
00DB00AF9000
00DC17AF6000
006FFB7FCD70
0002988F5100
000C50AC0000
004F25F60000
002EFF88E300
000020012000
ENDCHAR
STARTCHAR uni1EF5
ENCODING 7925
SWIDTH 479 0
DWIDTH 5 0
BBX 7 10 0 -5
BITMAP
0D45B000
3F1BA000
6E2F7220
7ECFAE40
3E9FC200
02CE0000
1CBB0000
A6B60000
F6EAE100
BE511000
ENDCHAR
STARTCHAR uni1EF6
ENCODING 7926
SWIDTH 851 0
DWIDTH 9 0
BBX 11 17 0 -4
BITMAP
00000BE60000
0000028B0000
000006F60000
000001100000
09ED1003E200
AA6F5007F200
804F4009F000
007F200DD000
00AE003FB000
00DB00AF9000
00DC17AF6000
006FFB7FCD70
0002988F5100
000C50AC0000
004F25F60000
002EFF800000
000020000000
ENDCHAR
STARTCHAR uni1EF7
ENCODING 7927
SWIDTH 479 0
DWIDTH 5 0
BBX 7 14 0 -5
BITMAP
009E7000
0016D000
004F7000
00010000
0D45B000
3F1BA000
6E2F7220
7ECFAE40
3E9FC200
02CE0000
1CBB0000
A6B60000
F6E10000
BE500000
ENDCHAR
STARTCHAR uni1EF8
ENCODING 7928
SWIDTH 851 0
DWIDTH 9 0
BBX 11 16 0 -4
BITMAP
00008E678000
0001D4BD2000
000000000000
09ED1003E200
AA6F5007F200
804F4009F000
007F200DD000
00AE003FB000
00DB00AF9000
00DC17AF6000
006FFB7FCD70
0002988F5100
000C50AC0000
004F25F60000
002EFF800000
000020000000
ENDCHAR
STARTCHAR uni1EF9
ENCODING 7929
SWIDTH 479 0
DWIDTH 5 0
BBX 7 13 0 -5
BITMAP
06E75A00
0C4AE300
00000000
0D45B000
3F1BA000
6E2F7220
7ECFAE40
3E9FC200
02CE0000
1CBB0000
A6B60000
F6E10000
BE500000
ENDCHAR
STARTCHAR endash
ENCODING 8211
SWIDTH 484 0
DWIDTH 5 0
BBX 5 2 0 2
BITMAP
4FFFC0
023310
ENDCHAR
STARTCHAR emdash
ENCODING 8212
SWIDTH 620 0
DWIDTH 7 0
BBX 7 2 0 2
BITMAP
4FFFFF40
02333200
ENDCHAR
STARTCHAR quoteleft
ENCODING 8216
SWIDTH 237 0
DWIDTH 3 0
BBX 3 4 1 6
BITMAP
1D10
7E00
CD00
4400
ENDCHAR
STARTCHAR quoteright
ENCODING 8217
SWIDTH 236 0
DWIDTH 3 0
BBX 3 4 1 6
BITMAP
4E20
8F10
A900
4100
ENDCHAR
STARTCHAR quotesinglbase
ENCODING 8218
SWIDTH 257 0
DWIDTH 3 0
BBX 3 4 0 -2
BITMAP
2600
8F10
AC00
B400
ENDCHAR
STARTCHAR quotedblleft
ENCODING 8220
SWIDTH 457 0
DWIDTH 5 0
BBX 5 4 1 6
BITMAP
1D1870
7E2F50
CD5F40
441600
ENDCHAR
STARTCHAR quotedblright
ENCODING 8221
SWIDTH 456 0
DWIDTH 5 0
BBX 5 4 1 6
BITMAP
4E2C80
8F2F70
A93E10
412400
ENDCHAR
STARTCHAR quotedblbase
ENCODING 8222
SWIDTH 477 0
DWIDTH 5 0
BBX 5 4 0 -2
BITMAP
260620
8F3F80
AC3F30
B45A00
ENDCHAR
STARTCHAR dagger
ENCODING 8224
SWIDTH 588 0
DWIDTH 6 0
BBX 6 8 1 2
BITMAP
005A00
009A00
6FFFF4
13D720
00F300
02F100
05E000
025000
ENDCHAR
STARTCHAR daggerdbl
ENCODING 8225
SWIDTH 588 0
DWIDTH 6 0
BBX 6 8 1 2
BITMAP
005A00
008A00
6FFFF4
13D620
CFFFD0
25F310
05D000
014000
ENDCHAR
STARTCHAR bullet
ENCODING 8226
SWIDTH 512 0
DWIDTH 6 0
BBX 4 3 1 1
BITMAP
6ED3
CFF7
7ED2
ENDCHAR
STARTCHAR ellipsis
ENCODING 8230
SWIDTH 777 0
DWIDTH 9 0
BBX 8 2 0 0
BITMAP
7E39D1BC
7E39D1BC
ENDCHAR
STARTCHAR perthousand
ENCODING 8240
SWIDTH 1277 0
DWIDTH 14 0
BBX 14 8 0 0
BITMAP
09E80069000000
5D7F26F5000000
6D3FEFB0000000
1BE83E20000000
0000C75ED33DD5
0007D1E4A9C77C
002F41F4A9D77B
007A008EB15ED3
ENDCHAR
STARTCHAR guilsinglleft
ENCODING 8249
SWIDTH 350 0
DWIDTH 4 0
BBX 4 4 0 0
BITMAP
05D3
7E60
6F60
04D2
ENDCHAR
STARTCHAR guilsinglright
ENCODING 8250
SWIDTH 350 0
DWIDTH 4 0
BBX 4 4 0 0
BITMAP
4D30
08F4
07F5
5C30
ENDCHAR
STARTCHAR fraction
ENCODING 8260
SWIDTH 200 0
DWIDTH 2 0
BBX 5 7 -1 1
BITMAP
000880
003F40
00CA00
06E100
1E7000
9C0000
C40000
ENDCHAR
STARTCHAR uni2074
ENCODING 8308
SWIDTH 450 0
DWIDTH 5 0
BBX 5 5 1 4
BITMAP
0A6000
4E7900
B7B800
FEFE10
12D300
ENDCHAR
STARTCHAR colonmonetary
ENCODING 8353
SWIDTH 517 0
DWIDTH 6 0
BBX 7 8 0 -1
BITMAP
0037BA20
06FEF900
1F7BB800
5F87B200
6EAB2000
3FAA9400
2CFE9000
97600000
ENDCHAR
STARTCHAR franc
ENCODING 8355
SWIDTH 750 0
DWIDTH 8 0
BBX 9 6 0 0
BITMAP
1EFFFF9000
0D7002C700
1FEEACF800
4F27EC9C10
6E08F40000
6B06C00000
ENDCHAR
STARTCHAR lira
ENCODING 8356
SWIDTH 525 0
DWIDTH 6 0
BBX 6 6 0 0
BITMAP
01BED4
0AC488
7FFF10
AFFE00
3F8431
AFFFF6
ENDCHAR
STARTCHAR uni20A6
ENCODING 8358
SWIDTH 672 0
DWIDTH 7 0
BBX 8 7 0 0
BITMAP
02500340
08F409C0
0BED1B90
8FFFFFF2
AFFFFFF1
3F53CF40
2E103D10
ENDCHAR
STARTCHAR peseta
ENCODING 8359
SWIDTH 1085 0
DWIDTH 12 0
BBX 12 7 0 0
BITMAP
3CEC30A60000
3E8AC0E50000
0F55FFFFB4D0
3F28D6F31BB0
5FBE46D04EF5
7E3006E4D5BA
7A0001CE5AE4
ENDCHAR
STARTCHAR uni20A9
ENCODING 8361
SWIDTH 775 0
DWIDTH 9 0
BBX 9 6 0 0
BITMAP
8FFFFFFFB0
1C86F67D10
9FFFFFFFA0
1B9CE6E610
09CCCBC000
05E48D3000
ENDCHAR
STARTCHAR dong
ENCODING 8363
SWIDTH 463 0
DWIDTH 5 0
BBX 6 10 0 -2
BITMAP
0001E5
0EFFFC
0237F2
05DED0
3F8CA0
8D0E70
9C7F60
4E9E40
DFFFC0
233320
ENDCHAR
STARTCHAR Euro
ENCODING 8364
SWIDTH 552 0
DWIDTH 6 0
BBX 6 6 0 0
BITMAP
019EE7
09D47E
9FFE15
BFFD00
1DB458
03CEC3
ENDCHAR
STARTCHAR uni20AD
ENCODING 8365
SWIDTH 590 0
DWIDTH 6 0
BBX 7 7 0 0
BITMAP
02500610
09B06E10
0B86D300
9FFFED20
2F4E8000
4F27F510
4D00BE70
ENDCHAR
STARTCHAR uni20AE
ENCODING 8366
SWIDTH 513 0
DWIDTH 6 0
BBX 6 6 0 0
BITMAP
2DEFFA
038C31
05CC40
07DC70
06F300
01E100
ENDCHAR
STARTCHAR uni20B1
ENCODING 8369
SWIDTH 557 0
DWIDTH 6 0
BBX 7 7 0 0
BITMAP
03762000
1EECE200
9FFFFF20
DFFFFF10
2EBDB200
1F840000
2E100000
ENDCHAR
STARTCHAR uni20B2
ENCODING 8370
SWIDTH 599 0
DWIDTH 7 0
BBX 7 10 0 -2
BITMAP
00041000
000A2000
03CFD500
1DAC8B00
5F2B2300
6E38BF30
3FB88F30
07EEBF10
00A31C00
00400000
ENDCHAR
STARTCHAR uni20B4
ENCODING 8372
SWIDTH 570 0
DWIDTH 6 0
BBX 6 6 0 0
BITMAP
06DFB1
0954F5
3FFFFD
8FFFFD
1E9496
09EEB2
ENDCHAR
STARTCHAR uni20B5
ENCODING 8373
SWIDTH 517 0
DWIDTH 6 0
BBX 6 10 0 -2
BITMAP
000920
003D60
07EEE6
2F4CA8
5E2A21
6F4800
3FB895
06EE90
00A300
004000
ENDCHAR
STARTCHAR uni20B8
ENCODING 8376
SWIDTH 522 0
DWIDTH 6 0
BBX 6 6 0 0
BITMAP
2EFFF9
5FFFF6
13B931
00C500
00E300
01E100
ENDCHAR
STARTCHAR uni20B9
ENCODING 8377
SWIDTH 511 0
DWIDTH 6 0
BBX 6 7 0 0
BITMAP
4DEEDB
008E00
5DEFD9
018D00
9FD200
02DB10
003DE5
ENDCHAR
STARTCHAR uni20BA
ENCODING 8378
SWIDTH 452 0
DWIDTH 5 0
BBX 5 7 0 0
BITMAP
034000
0AB500
0CE700
7FCA00
5F7000
6F47C0
1EEA20
ENDCHAR
STARTCHAR uni20BC
ENCODING 8380
SWIDTH 673 0
DWIDTH 7 0
BBX 7 8 0 0
BITMAP
00005000
0001C000
006EF900
06FAAE60
1E875AA0
5F2948C0
9D0B28D0
B80C08A0
ENDCHAR
STARTCHAR uni20BD
ENCODING 8381
SWIDTH 505 0
DWIDTH 6 0
BBX 6 7 0 0
BITMAP
0AEE80
0BC5F4
0AA0F5
0D88E2
9FFC40
BFFC00
4E3200
ENDCHAR
STARTCHAR uni2116
ENCODING 8470
SWIDTH 1198 0
DWIDTH 13 0
BBX 13 9 0 0
BITMAP
00D55CEA01CE60
03F9D58F39A7E0
05FE305F3B95E0
07F9008F15FF50
0AF300AD001100
0CE000DA3FFF70
0EA001F8023200
1F8003F6000000
1E4003E3000000
ENDCHAR
STARTCHAR trademark
ENCODING 8482
SWIDTH 1150 0
DWIDTH 13 0
BBX 12 5 1 4
BITMAP
BEFF6BBE5DD0
08807E3BC2F1
0B509A0C63D0
0E30B60E25B0
060052060240
ENDCHAR
STARTCHAR partialdiff
ENCODING 8706
SWIDTH 451 0
DWIDTH 5 0
BBX 5 10 0 -1
BITMAP
0C7000
03DB00
002E70
0009C0
08EEF0
5F49E0
9C08C0
8D1D70
1DFB10
001000
ENDCHAR
STARTCHAR product
ENCODING 8719
SWIDTH 700 0
DWIDTH 8 0
BBX 8 10 0 -1
BITMAP
02FFFFF7
05F433F6
07E002F4
09C004F1
0BA006E0
0D8008C0
0F500BA0
2F300D80
4F100E50
02000200
ENDCHAR
STARTCHAR summation
ENCODING 8721
SWIDTH 700 0
DWIDTH 8 0
BBX 8 10 0 -1
BITMAP
04FFFFF7
01DD4331
002EA000
0003F800
00008F10
0005F700
007F6000
08E50000
4FFFFF70
03333310
ENDCHAR
STARTCHAR minus
ENCODING 8722
SWIDTH 700 0
DWIDTH 8 0
BBX 6 2 1 2
BITMAP
EFFFFC
233331
ENDCHAR
STARTCHAR uni2215
ENCODING 8725
SWIDTH 700 0
DWIDTH 8 0
BBX 7 11 1 0
BITMAP
00000600
00005F10
0000D900
0006F200
000D9000
007E1000
01E80000
07E10000
1E700000
8E100000
B6000000
ENDCHAR
STARTCHAR uni2219
ENCODING 8729
SWIDTH 700 0
DWIDTH 8 0
BBX 3 2 2 2
BITMAP
0750
1DA0
ENDCHAR
STARTCHAR radical
ENCODING 8730
SWIDTH 700 0
DWIDTH 8 0
BBX 9 11 0 -1
BITMAP
0000000400
0000003E10
000000A900
000002F200
000008A000
5EC01E3000
02E36C0000
00A8D50000
005ED00000
001E600000
0001000000
ENDCHAR
STARTCHAR infinity
ENCODING 8734
SWIDTH 700 0
DWIDTH 8 0
BBX 8 6 0 0
BITMAP
00200000
2DFB9EB1
8C2EC2E6
8B1DC1E6
3EF9DFC1
00100200
ENDCHAR
STARTCHAR integral
ENCODING 8747
SWIDTH 700 0
DWIDTH 8 0
BBX 8 14 0 -4
BITMAP
00005DF4
0001FA30
0004F300
0005F100
0007E000
0009D000
000BB000
000D9000
000F7000
002F5000
004F3000
008F1000
5FF70000
02100000
ENDCHAR
STARTCHAR approxequal
ENCODING 8776
SWIDTH 700 0
DWIDTH 8 0
BBX 8 6 0 0
BITMAP
00630061
08EEA7E1
0D419E50
02610150
1DDE7BA0
4C14CD20
ENDCHAR
STARTCHAR notequal
ENCODING 8800
SWIDTH 700 0
DWIDTH 8 0
BBX 7 7 0 0
BITMAP
00006700
0CFFFFE0
023AB320
000D5000
2EFFFFA0
02D73310
00810000
ENDCHAR
STARTCHAR lessequal
ENCODING 8804
SWIDTH 700 0
DWIDTH 8 0
BBX 8 8 0 -1
BITMAP
00000030
0015AEE2
09FC8400
0AFC8300
0016BFA0
00000110
3FFFFFA0
03333310
ENDCHAR
STARTCHAR greaterequal
ENCODING 8805
SWIDTH 700 0
DWIDTH 8 0
BBX 7 8 0 -1
BITMAP
01200000
08FC7200
0027CFC0
0048CEA0
1EE95100
03100000
3FFFFFA0
03333310
ENDCHAR
STARTCHAR lozenge
ENCODING 9674
SWIDTH 700 0
DWIDTH 8 0
BBX 6 11 1 0
BITMAP
000520
003F90
00BBD0
05E1E3
0D60A8
6D006C
5D00C8
1F25D1
0B7D60
06EC00
01E400
ENDCHAR
STARTCHAR fi
ENCODING 64257
SWIDTH 633 0
DWIDTH 7 0
BBX 9 14 0 -4
BITMAP
000AE20000
008CB50000
01E5C30000
05E4C7E200
09ED311000
9FFFFF6000
1F843F5000
1F5D3F2120
2F4D5F5D30
2F4D2CE500
1F5D000000
0E8C000000
09F5000000
0020000000
ENDCHAR
STARTCHAR fl
ENCODING 64258
SWIDTH 688 0
DWIDTH 8 0
BBX 9 14 0 -4
BITMAP
002DC07E50
00C8F5E9A0
04F2FA97A0
09B5AE5960
0D8C5F3E20
1FD65F9900
4F706FD100
5FAFFF1030
6EB44F57C0
6F8509EB10
5F76000000
3F96000000
0DE1000000
0110000000
ENDCHAR
STARTCHAR .notdef
ENCODING -1
SWIDTH 265 0
DWIDTH 3 0
BBX 1 1 0 0
BITMAP
00
ENDCHAR
STARTCHAR Iacute_J.loclNLD
ENCODING -1
SWIDTH 776 0
DWIDTH 9 0
BBX 10 13 1 0
BITMAP
0003400052
006F800AF5
05B4009A20
0000000000
3E3003E100
6F3007F100
8F100AF000
AE002FD000
BE34CEB000
5FFF7D9000
01422F5000
B734CD0000
7DED910000
ENDCHAR
STARTCHAR A.ss01
ENCODING -1
SWIDTH 780 0
DWIDTH 9 0
BBX 9 9 0 0
BITMAP
00039DEEC0
007FB54620
05F8007F10
0DC000BC00
3F7001F900
5F4005F600
5F500BF400
1FB38EF300
05DFA7E100
ENDCHAR
STARTCHAR Aacute.ss01
ENCODING -1
SWIDTH 780 0
DWIDTH 9 0
BBX 10 13 0 0
BITMAP
0000000052
0000001AF4
000000A920
0000000000
00039DEEC0
007FB54620
05F8007F10
0DC000BC00
3F7001F900
5F4005F600
5F500BF400
1FB38EF300
05DFA7E100
ENDCHAR
STARTCHAR Abreve.ss01
ENCODING -1
SWIDTH 780 0
DWIDTH 9 0
BBX 9 12 0 0
BITMAP
00005914B0
00002DFF70
0000002000
00039DEEC0
007FB54620
05F8007F10
0DC000BC00
3F7001F900
5F4005F600
5F500BF400
1FB38EF300
05DFA7E100
ENDCHAR
STARTCHAR uni1EAE.ss01
ENCODING -1
SWIDTH 780 0
DWIDTH 9 0
BBX 9 13 0 0
BITMAP
0000002C50
00005936A0
00002DFF80
0000002000
00039DEEC0
007FB54620
05F8007F10
0DC000BC00
3F7001F900
5F4005F600
5F500BF400
1FB38EF300
05DFA7E100
ENDCHAR
STARTCHAR uni1EB6.ss01
ENCODING -1
SWIDTH 780 0
DWIDTH 9 0
BBX 9 15 0 -3
BITMAP
00005914B0
00002DFF70
0000002000
00039DEEC0
007FB54620
05F8007F10
0DC000BC00
3F7001F900
5F4005F600
5F500BF400
1FB38EF300
05DFA7E100
0000000000
000CC00000
0001100000
ENDCHAR
STARTCHAR uni1EB0.ss01
ENCODING -1
SWIDTH 780 0
DWIDTH 9 0
BBX 9 13 0 0
BITMAP
0000099000
00004844A0
00002DFE70
0000001000
00039DEEC0
007FB54620
05F8007F10
0DC000BC00
3F7001F900
5F4005F600
5F500BF400
1FB38EF300
05DFA7E100
ENDCHAR
STARTCHAR uni1EB2.ss01
ENCODING -1
SWIDTH 780 0
DWIDTH 9 0
BBX 9 14 0 0
BITMAP
000002FB00
000001DC10
00007C36E0
00002DFF60
0000002100
00039DEEC0
007FB54620
05F8007F10
0DC000BC00
3F7001F900
5F4005F600
5F500BF400
1FB38EF300
05DFA7E100
ENDCHAR
STARTCHAR uni1EB4.ss01
ENCODING -1
SWIDTH 780 0
DWIDTH 9 0
BBX 10 14 0 0
BITMAP
000009B4B1
0000172850
00005A03C0
00002CFE60
0000001000
00039DEEC0
007FB54620
05F8007F10
0DC000BC00
3F7001F900
5F4005F600
5F500BF400
1FB38EF300
05DFA7E100
ENDCHAR
STARTCHAR Acircumflex.ss01
ENCODING -1
SWIDTH 780 0
DWIDTH 9 0
BBX 9 13 0 0
BITMAP
000002DB00
00000B9F30
00003D1A60
0000000000
00039DEEC0
007FB54620
05F8007F10
0DC000BC00
3F7001F900
5F4005F600
5F500BF400
1FB38EF300
05DFA7E100
ENDCHAR
STARTCHAR uni1EA4.ss01
ENCODING -1
SWIDTH 780 0
DWIDTH 9 0
BBX 10 14 0 0
BITMAP
0000000016
00000000B9
000004CC00
00002D3B50
0000000000
00039DEEC0
007FB54620
05F8007F10
0DC000BC00
3F7001F900
5F4005F600
5F500BF400
1FB38EF300
05DFA7E100
ENDCHAR
STARTCHAR uni1EAC.ss01
ENCODING -1
SWIDTH 780 0
DWIDTH 9 0
BBX 9 16 0 -3
BITMAP
000002DB00
00000B9F30
00003D1A60
0000000000
00039DEEC0
007FB54620
05F8007F10
0DC000BC00
3F7001F900
5F4005F600
5F500BF400
1FB38EF300
05DFA7E100
0000000000
000CC00000
0001100000
ENDCHAR
STARTCHAR uni1EA6.ss01
ENCODING -1
SWIDTH 780 0
DWIDTH 9 0
BBX 9 14 0 0
BITMAP
0001600000
0001A90000
000004CC00
00002D3B50
0000000000
00039DEEC0
007FB54620
05F8007F10
0DC000BC00
3F7001F900
5F4005F600
5F500BF400
1FB38EF300
05DFA7E100
ENDCHAR
STARTCHAR uni1EA8.ss01
ENCODING -1
SWIDTH 780 0
DWIDTH 9 0
BBX 11 13 0 0
BITMAP
00000001EC00
000000003D10
000003DCBC00
00001E8E6000
00039EEFC000
007FB5462000
05F8007F1000
0DC000BC0000
3F7001F90000
5F4005F60000
5F500BF40000
1FB38EF30000
05DFA7E10000
ENDCHAR
STARTCHAR uni1EAA.ss01
ENCODING -1
SWIDTH 780 0
DWIDTH 9 0
BBX 9 14 0 0
BITMAP
000009D5C0
0000073940
000005EE10
00002E3B50
0000000000
00039DEEC0
007FB54620
05F8007F10
0DC000BC00
3F7001F900
5F4005F600
5F500BF400
1FB38EF300
05DFA7E100
ENDCHAR
STARTCHAR uni0200.ss01
ENCODING -1
SWIDTH 780 0
DWIDTH 9 0
BBX 9 13 0 0
BITMAP
0000333300
00008B8B00
00001C1C00
0000000000
00039DEEC0
007FB54620
05F8007F10
0DC000BC00
3F7001F900
5F4005F600
5F500BF400
1FB38EF300
05DFA7E100
ENDCHAR
STARTCHAR Adieresis.ss01
ENCODING -1
SWIDTH 780 0
DWIDTH 9 0
BBX 9 11 0 0
BITMAP
00002E4C80
0000020100
00039DEEC0
007FB54620
05F8007F10
0DC000BC00
3F7001F900
5F4005F600
5F500BF400
1FB38EF300
05DFA7E100
ENDCHAR
STARTCHAR uni1EA0.ss01
ENCODING -1
SWIDTH 780 0
DWIDTH 9 0
BBX 9 12 0 -3
BITMAP
00039DEEC0
007FB54620
05F8007F10
0DC000BC00
3F7001F900
5F4005F600
5F500BF400
1FB38EF300
05DFA7E100
0000000000
000CC00000
0001100000
ENDCHAR
STARTCHAR Agrave.ss01
ENCODING -1
SWIDTH 780 0
DWIDTH 9 0
BBX 9 13 0 0
BITMAP
0001600000
0004FB1000
000029A000
0000000000
00039DEEC0
007FB54620
05F8007F10
0DC000BC00
3F7001F900
5F4005F600
5F500BF400
1FB38EF300
05DFA7E100
ENDCHAR
STARTCHAR uni1EA2.ss01
ENCODING -1
SWIDTH 780 0
DWIDTH 9 0
BBX 9 13 0 0
BITMAP
000004EC10
0000013E30
000000DD10
0000002000
00039DEEC0
007FB54620
05F8007F10
0DC000BC00
3F7001F900
5F4005F600
5F500BF400
1FB38EF300
05DFA7E100
ENDCHAR
STARTCHAR uni0202.ss01
ENCODING -1
SWIDTH 780 0
DWIDTH 9 0
BBX 9 12 0 0
BITMAP
000019ED50
00007C47E0
0000110010
00039DEEC0
007FB54620
05F8007F10
0DC000BC00
3F7001F900
5F4005F600
5F500BF400
1FB38EF300
05DFA7E100
ENDCHAR
STARTCHAR Amacron.ss01
ENCODING -1
SWIDTH 780 0
DWIDTH 9 0
BBX 9 11 0 0
BITMAP
00001EFF40
0000023200
00039DEEC0
007FB54620
05F8007F10
0DC000BC00
3F7001F900
5F4005F600
5F500BF400
1FB38EF300
05DFA7E100
ENDCHAR
STARTCHAR Aogonek.ss01
ENCODING -1
SWIDTH 780 0
DWIDTH 9 0
BBX 9 13 0 -4
BITMAP
00039DEEC0
007FB54620
05F8007F10
0DC000BC00
3F7001F900
5F4005F600
5F500BF400
1FB38EF300
05DFA8F100
00001D4000
00003E1000
00001DF800
0000002000
ENDCHAR
STARTCHAR Aring.ss01
ENCODING -1
SWIDTH 780 0
DWIDTH 9 0
BBX 9 13 0 0
BITMAP
000003EC10
00000A8D30
000006FD10
0000002000
00039DEEC0
007FB54620
05F8007F10
0DC000BC00
3F7001F900
5F4005F600
5F500BF400
1FB38EF300
05DFA7E100
ENDCHAR
STARTCHAR Aringacute.ss01
ENCODING -1
SWIDTH 780 0
DWIDTH 9 0
BBX 11 14 0 0
BITMAP
000000000990
000003DC7920
00000A8D3000
000006FD1000
000000200000
00039DEEC000
007FB5462000
05F8007F1000
0DC000BC0000
3F7001F90000
5F4005F60000
5F500BF40000
1FB38EF30000
05DFA7E10000
ENDCHAR
STARTCHAR Atilde.ss01
ENCODING -1
SWIDTH 780 0
DWIDTH 9 0
BBX 10 12 0 0
BITMAP
00002DB2D1
0000987E80
0000000000
00039DEEC0
007FB54620
05F8007F10
0DC000BC00
3F7001F900
5F4005F600
5F500BF400
1FB38EF300
05DFA7E100
ENDCHAR
STARTCHAR AE.ss01
ENCODING -1
SWIDTH 1057 0
DWIDTH 12 0
BBX 12 9 0 0
BITMAP
0004BE69FFFB
007FB53F7331
05F8006F2000
0DC000BE0000
3F6001EFFFE0
5F4005F93320
5F500BF70000
1EC39DCE5353
04DFB22AEFD5
ENDCHAR
STARTCHAR AEacute.ss01
ENCODING -1
SWIDTH 1057 0
DWIDTH 12 0
BBX 12 13 0 0
BITMAP
000000000430
000000007F70
00000006B300
000000000000
0004BE69FFFB
007FB53F7331
05F8006F2000
0DC000BE0000
3F6001EFFFE0
5F4005F93320
5F500BF70000
1EC39DCE5353
04DFB22AEFD5
ENDCHAR
STARTCHAR B.ss01
ENCODING -1
SWIDTH 826 0
DWIDTH 9 0
BBX 8 9 1 0
BITMAP
19DFFD81
185337FA
0B5000CD
4F4027F7
7F1BFE50
AD025DD0
DA0009F1
EA348FB0
CEFEC700
ENDCHAR
STARTCHAR C.ss01
ENCODING -1
SWIDTH 704 0
DWIDTH 8 0
BBX 8 9 0 0
BITMAP
0018DEB1
01DD54E9
09E100C9
1F900063
3F600000
4F600000
2F900003
0AF735C8
018DFC60
ENDCHAR
STARTCHAR Cacute.ss01
ENCODING -1
SWIDTH 704 0
DWIDTH 8 0
BBX 9 13 0 0
BITMAP
0000001600
000002CE20
00000C8100
0000000000
0018DEB100
01DD54E900
09E100C900
1F90006300
3F60000000
4F60000000
2F90000300
0AF735C800
018DFC6000
ENDCHAR
STARTCHAR Ccaron.ss01
ENCODING -1
SWIDTH 704 0
DWIDTH 8 0
BBX 8 13 0 0
BITMAP
00016043
0001E5E3
00006E50
00000000
0018DEB1
01DD54E9
09E100C9
1F900063
3F600000
4F600000
2F900003
0AF735C8
018DFC60
ENDCHAR
STARTCHAR Ccedilla.ss01
ENCODING -1
SWIDTH 704 0
DWIDTH 8 0
BBX 8 13 0 -4
BITMAP
0018DEB1
01DD54E9
09E200CA
1F900073
3F600000
4F500000
1F800002
09E413A8
007FFB50
0003D500
0001C600
00AFC100
00120000
ENDCHAR
STARTCHAR Ccircumflex.ss01
ENCODING -1
SWIDTH 704 0
DWIDTH 8 0
BBX 8 13 0 0
BITMAP
00004E70
0001D9E1
0006B0D3
00000000
0018DEB1
01DD54E9
09E100C9
1F900063
3F600000
4F600000
2F900003
0AF735C8
018DFC60
ENDCHAR
STARTCHAR Cdotaccent.ss01
ENCODING -1
SWIDTH 704 0
DWIDTH 8 0
BBX 8 11 0 0
BITMAP
00005E50
00000200
0018DEB1
01DD54E9
09E100C9
1F900063
3F600000
4F600000
2F900003
0AF735C8
018DFC60
ENDCHAR
STARTCHAR D.ss01
ENCODING -1
SWIDTH 810 0
DWIDTH 9 0
BBX 8 9 1 0
BITMAP
19DFD910
28547ED1
0A5004F7
3F4000FA
7F1000F9
AD0003F7
DB000BE1
FA46CE40
DFED9200
ENDCHAR
STARTCHAR uni01C4.ss01
ENCODING -1
SWIDTH 1455 0
DWIDTH 16 0
BBX 16 13 1 0
BITMAP
0000000000060340
00000000000D6E30
000000000005E600
0000000000000000
19DFD9103DFFFFD2
28547ED102333EE1
0A5004F70000AF40
3F4000FA0006F800
7F1000F9004FB000
AD0003F702ED1000
DB000BE11CE30000
FA46CE40BF832200
DFED9202FFFFFF90
ENDCHAR
STARTCHAR Eth.ss01
ENCODING -1
SWIDTH 821 0
DWIDTH 9 0
BBX 9 9 0 0
BITMAP
003EFEA200
008E35DE20
00CA002F90
01F6000DC0
AFFFF50DB0
1AE3301F80
0CC000AE20
0EB35BF500
0CEFD92000
ENDCHAR
STARTCHAR Dcaron.ss01
ENCODING -1
SWIDTH 810 0
DWIDTH 9 0
BBX 8 13 1 0
BITMAP
00340610
004D6C00
000AD200
00000000
19DFD910
28547ED1
0A5004F7
3F4000FA
7F1000F9
AD0003F7
DB000BE1
FA46CE40
DFED9200
ENDCHAR
STARTCHAR Dcroat.ss01
ENCODING -1
SWIDTH 821 0
DWIDTH 9 0
BBX 9 9 0 0
BITMAP
003EFEA200
008E35DE20
00CA002F90
01F6000DC0
AFFFF50DB0
1AE3301F80
0CC000AE20
0EB35BF500
0CEFD92000
ENDCHAR
STARTCHAR E.ss01
ENCODING -1
SWIDTH 720 0
DWIDTH 8 0
BBX 8 9 0 0
BITMAP
005BEEB2
05F934DB
0BE000AC
07F50065
01CFF300
1DC52000
7F300003
5FA436C9
06DFEC60
ENDCHAR
STARTCHAR Eacute.ss01
ENCODING -1
SWIDTH 720 0
DWIDTH 8 0
BBX 8 13 0 0
BITMAP
00000025
000004EC
00002D60
00000000
005BEEB2
05F934DB
0BE000AC
07F50065
01CFF300
1DC52000
7F300003
5FA436C9
06DFEC60
ENDCHAR
STARTCHAR Ebreve.ss01
ENCODING -1
SWIDTH 720 0
DWIDTH 8 0
BBX 8 12 0 0
BITMAP
000B4186
0008FFD2
00001200
005BEEB2
05F934DB
0BE000AC
07F50065
01CFF300
1DC52000
7F300003
5FA436C9
06DFEC60
ENDCHAR
STARTCHAR Ecaron.ss01
ENCODING -1
SWIDTH 720 0
DWIDTH 8 0
BBX 8 13 0 0
BITMAP
00024051
0003E6D1
00009D20
00000000
005BEEB2
05F934DB
0BE000AC
07F50065
01CFF300
1DC52000
7F300003
5FA436C9
06DFEC60
ENDCHAR
STARTCHAR Ecircumflex.ss01
ENCODING -1
SWIDTH 720 0
DWIDTH 8 0
BBX 8 13 0 0
BITMAP
00007E40
0003E9B0
000A82D0
00000000
005BEEB2
05F934DB
0BE000AC
07F50065
01CFF300
1DC52000
7F300003
5FA436C9
06DFEC60
ENDCHAR
STARTCHAR uni1EBE.ss01
ENCODING -1
SWIDTH 720 0
DWIDTH 8 0
BBX 9 14 0 0
BITMAP
0000000430
0000004C40
00009D6000
0008A4C000
0000000000
005BEEB200
05F934DB00
0BE000AC00
07F5006500
01CFF30000
1DC5200000
7F30000300
5FA436C900
06DFEC6000
ENDCHAR
STARTCHAR uni1EC6.ss01
ENCODING -1
SWIDTH 720 0
DWIDTH 8 0
BBX 8 16 0 -3
BITMAP
00007E40
0003E9B0
000A82D0
00000000
005BEEB2
05F934DB
0BE000AC
07F50065
01CFF300
1DC52000
7F300003
5FA436C9
06DFEC60
00000000
003E7000
00020000
ENDCHAR
STARTCHAR uni1EC0.ss01
ENCODING -1
SWIDTH 720 0
DWIDTH 8 0
BBX 8 14 0 0
BITMAP
00430000
005C2000
00009D60
0008A4C0
00000000
005BEEB2
05F934DB
0BE000AC
07F50065
01CFF300
1DC52000
7F300003
5FA436C9
06DFEC60
ENDCHAR
STARTCHAR uni1EC2.ss01
ENCODING -1
SWIDTH 720 0
DWIDTH 8 0
BBX 9 13 0 0
BITMAP
0000007E50
0000001790
00009E8F50
0007D8D200
005DFEC200
05F934DB00
0BE000AC00
07F5006500
01CFF30000
1DC5200000
7F30000300
5FA436C900
06DFEC6000
ENDCHAR
STARTCHAR uni1EC4.ss01
ENCODING -1
SWIDTH 720 0
DWIDTH 8 0
BBX 8 14 0 0
BITMAP
0003DA77
00043781
0001CE70
0008A4D0
00000000
005BEEB2
05F934DB
0BE000AC
07F50065
01CFF300
1DC52000
7F300003
5FA436C9
06DFEC60
ENDCHAR
STARTCHAR uni0204.ss01
ENCODING -1
SWIDTH 720 0
DWIDTH 8 0
BBX 8 13 0 0
BITMAP
00060600
001E5E40
00067670
00000000
005BEEB2
05F934DB
0BE000AC
07F50065
01CFF300
1DC52000
7F300003
5FA436C9
06DFEC60
ENDCHAR
STARTCHAR Edieresis.ss01
ENCODING -1
SWIDTH 720 0
DWIDTH 8 0
BBX 8 11 0 0
BITMAP
0008B4E1
00011020
005BEEB2
05F934DB
0BE000AC
07F50065
01CFF300
1DC52000
7F300003
5FA436C9
06DFEC60
ENDCHAR
STARTCHAR Edotaccent.ss01
ENCODING -1
SWIDTH 720 0
DWIDTH 8 0
BBX 8 11 0 0
BITMAP
00009E20
00001100
005BEEB2
05F934DB
0BE000AC
07F50065
01CFF300
1DC52000
7F300003
5FA436C9
06DFEC60
ENDCHAR
STARTCHAR uni1EB8.ss01
ENCODING -1
SWIDTH 720 0
DWIDTH 8 0
BBX 8 12 0 -3
BITMAP
005BEEB2
05F934DB
0BE000AC
07F50065
01CFF300
1DC52000
7F300003
5FA436C9
06DFEC60
00000000
003E7000
00020000
ENDCHAR
STARTCHAR Egrave.ss01
ENCODING -1
SWIDTH 720 0
DWIDTH 8 0
BBX 8 13 0 0
BITMAP
00530000
00AE5000
0005C400
00000000
005BEEB2
05F934DB
0BE000AC
07F50065
01CFF300
1DC52000
7F300003
5FA436C9
06DFEC60
ENDCHAR
STARTCHAR uni1EBA.ss01
ENCODING -1
SWIDTH 720 0
DWIDTH 8 0
BBX 8 13 0 0
BITMAP
0000AE60
000028B0
00005F60
00001200
005BEEB2
05F934DB
0BE000AC
07F50065
01CFF300
1DC52000
7F300003
5FA436C9
06DFEC60
ENDCHAR
STARTCHAR uni0206.ss01
ENCODING -1
SWIDTH 720 0
DWIDTH 8 0
BBX 8 12 0 0
BITMAP
0004DEB1
000E74C7
00010010
005BEEB2
05F934DB
0BE000AC
07F50065
01CFF300
1DC52000
7F300003
5FA436C9
06DFEC60
ENDCHAR
STARTCHAR Emacron.ss01
ENCODING -1
SWIDTH 720 0
DWIDTH 8 0
BBX 8 11 0 0
BITMAP
0008FFC0
00013310
005BEEB2
05F934DB
0BE000AC
07F50065
01CFF300
1DC52000
7F300003
5FA436C9
06DFEC60
ENDCHAR
STARTCHAR Eogonek.ss01
ENCODING -1
SWIDTH 720 0
DWIDTH 8 0
BBX 8 13 0 -4
BITMAP
005BEEB2
05F934DB
0BE000AC
07F50065
01CFF300
1DC52000
7F300003
5FA436CA
06DFFF91
0005D200
0008B000
0004EF40
00001200
ENDCHAR
STARTCHAR uni1EBC.ss01
ENCODING -1
SWIDTH 720 0
DWIDTH 8 0
BBX 8 12 0 0
BITMAP
0008E669
001D4BD3
00000000
005BEEB2
05F934DB
0BE000AC
07F50065
01CFF300
1DC52000
7F300003
5FA436C9
06DFEC60
ENDCHAR
STARTCHAR F.ss01
ENCODING -1
SWIDTH 671 0
DWIDTH 7 0
BBX 9 10 0 0
BITMAP
0000011100
0DFFFFFE10
018F422000
009E000000
00CB000000
3FFFFF9000
05F7330000
05F3000000
07F1000000
07D0000000
ENDCHAR
STARTCHAR G.ss01
ENCODING -1
SWIDTH 811 0
DWIDTH 9 0
BBX 9 12 0 -3
BITMAP
0018DFC400
01DD53BD00
09E2007E00
1F90003500
3F60000000
4F600BFF40
1FA0015F40
08F9438F20
006CEEDF00
0000009D00
000000BA00
0000004200
ENDCHAR
STARTCHAR Gbreve.ss01
ENCODING -1
SWIDTH 811 0
DWIDTH 9 0
BBX 9 15 0 -3
BITMAP
0006914B00
0003EFF700
0000020000
0018DFC400
01DD53BD00
09E2007E00
1F90003500
3F60000000
4F600BFF40
1FA0015F40
08F9438F20
006CEEDF00
0000009D00
000000BA00
0000004200
ENDCHAR
STARTCHAR Gcaron.ss01
ENCODING -1
SWIDTH 811 0
DWIDTH 9 0
BBX 9 16 0 -3
BITMAP
0000602400
0000C7D500
00003E7000
0000000000
0018DFC400
01DD53BD00
09E2007E00
1F90003500
3F60000000
4F600BFF40
1FA0015F40
08F9438F20
006CEEDF00
0000009D00
000000BA00
0000004200
ENDCHAR
STARTCHAR Gcircumflex.ss01
ENCODING -1
SWIDTH 811 0
DWIDTH 9 0
BBX 9 16 0 -3
BITMAP
00002DA000
0000C9F200
0004D1B500
0000000000
0018DFC400
01DD53BD00
09E2007E00
1F90003500
3F60000000
4F600BFF40
1FA0015F40
08F9438F20
006CEEDF00
0000009D00
000000BA00
0000004200
ENDCHAR
STARTCHAR uni0122.ss01
ENCODING -1
SWIDTH 811 0
DWIDTH 9 0
BBX 9 12 0 -3
BITMAP
0018DFC400
01DD53BD00
09E2007E00
1F90003500
3F60000000
4F600BFF40
1FA0015F40
08F9438F20
006CEEDF00
0000109D00
0004E0BA00
0004A04200
ENDCHAR
STARTCHAR Gdotaccent.ss01
ENCODING -1
SWIDTH 811 0
DWIDTH 9 0
BBX 9 14 0 -3
BITMAP
00003E7000
0000020000
0018DFC400
01DD53BD00
09E2007E00
1F90003500
3F60000000
4F600BFF40
1FA0015F40
08F9438F20
006CEEDF00
0000009D00
000000BA00
0000004200
ENDCHAR
STARTCHAR H.ss01
ENCODING -1
SWIDTH 846 0
DWIDTH 9 0
BBX 10 9 0 0
BITMAP
00A9000A90
00EA000EA0
01F8001F80
03F5003F50
4FFFFFFFF2
0AF3339F20
0BC000BD00
0EA000DB00
0D7000D700
ENDCHAR
STARTCHAR Hbar.ss01
ENCODING -1
SWIDTH 856 0
DWIDTH 9 0
BBX 10 9 0 0
BITMAP
00BA000AB0
0DFFFFFFF8
03F8223F81
03F6002F60
4FFFFFFFF3
09F3339F30
0AD000AE00
0DB000CB00
0C8000C800
ENDCHAR
STARTCHAR Hcircumflex.ss01
ENCODING -1
SWIDTH 846 0
DWIDTH 9 0
BBX 10 13 0 0
BITMAP
00001CB000
0000AAE400
0002D29600
0000000000
00A9000A90
00EA000EA0
01F8001F80
03F5003F50
4FFFFFFFF2
0AF3339F20
0BC000BD00
0EA000DB00
0D7000D700
ENDCHAR
STARTCHAR I.ss01
ENCODING -1
SWIDTH 357 0
DWIDTH 4 0
BBX 4 9 0 0
BITMAP
00D7
01F7
03F5
06F2
08F0
0BC0
0EA0
1F80
1E50
ENDCHAR
STARTCHAR Iacute.ss01
ENCODING -1
SWIDTH 357 0
DWIDTH 4 0
BBX 6 13 0 0
BITMAP
000034
0005FA
004C50
000000
00D700
01F700
03F500
06F200
08F000
0BC000
0EA000
1F8000
1E5000
ENDCHAR
STARTCHAR Iacute_J.loclNLD.ss01
ENCODING -1
SWIDTH 776 0
DWIDTH 9 0
BBX 10 13 1 0
BITMAP
0003400052
006F800AF5
05B4009A20
0000000000
3E3003E100
6F3007F100
8F100AF000
AE002FD000
BE34CEB000
5FFF7D9000
01422F5000
B734CD0000
7DED910000
ENDCHAR
STARTCHAR Ibreve.ss01
ENCODING -1
SWIDTH 357 0
DWIDTH 4 0
BBX 6 12 0 0
BITMAP
1B31A4
0AFFC1
001100
00D700
01F700
03F500
06F200
08F000
0BC000
0EA000
1F8000
1E5000
ENDCHAR
STARTCHAR Icircumflex.ss01
ENCODING -1
SWIDTH 357 0
DWIDTH 4 0
BBX 5 13 0 0
BITMAP
009E20
05EA90
0C55B0
000000
00D700
01F700
03F500
06F200
08F000
0BC000
0EA000
1F8000
1E5000
ENDCHAR
STARTCHAR uni0208.ss01
ENCODING -1
SWIDTH 357 0
DWIDTH 4 0
BBX 5 13 0 0
BITMAP
161500
3F4F20
085950
000000
00D700
01F700
03F500
06F200
08F000
0BC000
0EA000
1F8000
1E5000
ENDCHAR
STARTCHAR Idieresis.ss01
ENCODING -1
SWIDTH 357 0
DWIDTH 4 0
BBX 5 11 0 0
BITMAP
0B96D0
011110
00D700
01F700
03F500
06F200
08F000
0BC000
0EA000
1F8000
1E5000
ENDCHAR
STARTCHAR Idotaccent.ss01
ENCODING -1
SWIDTH 357 0
DWIDTH 4 0
BBX 4 11 0 0
BITMAP
00BD
0011
00D7
01F7
03F5
06F2
08F0
0BC0
0EA0
1F80
1E50
ENDCHAR
STARTCHAR uni1ECA.ss01
ENCODING -1
SWIDTH 357 0
DWIDTH 4 0
BBX 4 12 0 -3
BITMAP
00D7
01F7
03F5
06F2
08F0
0BC0
0EA0
1F80
1E50
0000
7E40
0200
ENDCHAR
STARTCHAR Igrave.ss01
ENCODING -1
SWIDTH 357 0
DWIDTH 4 0
BBX 4 13 0 0
BITMAP
5200
CE30
06D2
0000
00D7
01F7
03F5
06F2
08F0
0BC0
0EA0
1F80
1E50
ENDCHAR
STARTCHAR uni1EC8.ss01
ENCODING -1
SWIDTH 357 0
DWIDTH 4 0
BBX 5 13 0 0
BITMAP
00DE40
002A90
008F40
001100
00D700
01F700
03F500
06F200
08F000
0BC000
0EA000
1F8000
1E5000
ENDCHAR
STARTCHAR uni020A.ss01
ENCODING -1
SWIDTH 357 0
DWIDTH 4 0
BBX 6 12 0 0
BITMAP
05DE91
1E64E5
010010
00D700
01F700
03F500
06F200
08F000
0BC000
0EA000
1F8000
1E5000
ENDCHAR
STARTCHAR Imacron.ss01
ENCODING -1
SWIDTH 357 0
DWIDTH 4 0
BBX 5 11 0 0
BITMAP
0AFFA0
013310
00D700
01F700
03F500
06F200
08F000
0BC000
0EA000
1F8000
1E5000
ENDCHAR
STARTCHAR Iogonek.ss01
ENCODING -1
SWIDTH 357 0
DWIDTH 4 0
BBX 4 13 0 -4
BITMAP
00C7
01F7
03F5
05F3
08F0
0AD0
0DB0
0F90
2F70
4D10
A900
7FF2
0110
ENDCHAR
STARTCHAR Itilde.ss01
ENCODING -1
SWIDTH 357 0
DWIDTH 4 0
BBX 6 12 0 0
BITMAP
0AD487
3C4CC1
000000
00D700
01F700
03F500
06F200
08F000
0BC000
0EA000
1F8000
1E5000
ENDCHAR
STARTCHAR J.ss01
ENCODING -1
SWIDTH 716 0
DWIDTH 8 0
BBX 8 9 0 0
BITMAP
029DEED9
0DB436F7
2F4006F3
0B4008F1
00000AD0
00000CA0
06001F60
1F93AE10
05DFC300
ENDCHAR
STARTCHAR Jcircumflex.ss01
ENCODING -1
SWIDTH 716 0
DWIDTH 8 0
BBX 8 13 0 0
BITMAP
00009E30
0005EA90
000B64C0
00000000
029DEED9
0DB436F7
2F4006F3
0B4008F1
00000AD0
00000CA0
06001F60
1F93AE10
05DFC300
ENDCHAR
STARTCHAR K.ss01
ENCODING -1
SWIDTH 779 0
DWIDTH 9 0
BBX 9 9 0 0
BITMAP
00C8002D50
00F8008E10
03F603E700
05F35D9000
2EFFE40000
0BD4EA0000
0DB08F3000
0F901EC310
0D5004EE60
ENDCHAR
STARTCHAR uni0136.ss01
ENCODING -1
SWIDTH 779 0
DWIDTH 9 0
BBX 9 12 0 -3
BITMAP
00C8002D50
00F8008E10
03F603E700
05F35D9000
2EFFE40000
0BD4EA0000
0DB08F3000
0F901EC310
0D5004EE60
0001000000
000B700000
000B300000
ENDCHAR
STARTCHAR L.ss01
ENCODING -1
SWIDTH 625 0
DWIDTH 7 0
BBX 7 9 0 0
BITMAP
00D70000
02F70000
04F40000
07F20000
09E00000
0CC00000
0EA00000
1FA55530
1EFFFF80
ENDCHAR
STARTCHAR uni01C7.ss01
ENCODING -1
SWIDTH 1291 0
DWIDTH 14 0
BBX 15 9 0 0
BITMAP
00D700007CEFDB20
02F70009D533EC10
04F4000C9001F800
07F200078003F600
09E000000005F300
0CC000000007F100
0EA00005100BB000
1FA5553BC46F4000
1EFFFF82BED60000
ENDCHAR
STARTCHAR Lacute.ss01
ENCODING -1
SWIDTH 625 0
DWIDTH 7 0
BBX 7 13 0 0
BITMAP
00003400
0006F900
005C4000
00000000
00D70000
02F70000
04F40000
07F20000
09E00000
0CC00000
0EA00000
1FA55530
1EFFFF80
ENDCHAR
STARTCHAR Lcaron.ss01
ENCODING -1
SWIDTH 625 0
DWIDTH 7 0
BBX 7 10 0 0
BITMAP
00000340
00D70A80
02F70A30
04F40000
07F20000
09E00000
0CC00000
0EA00000
1FA55530
1EFFFF80
ENDCHAR
STARTCHAR uni013B.ss01
ENCODING -1
SWIDTH 625 0
DWIDTH 7 0
BBX 7 12 0 -3
BITMAP
00D70000
02F70000
04F40000
07F20000
09E00000
0CC00000
0EA00000
1FA55530
1EFFFF80
00010000
000E3000
001D0000
ENDCHAR
STARTCHAR Ldot.ss01
ENCODING -1
SWIDTH 625 0
DWIDTH 7 0
BBX 7 9 0 0
BITMAP
00D70000
02F70000
04F40000
07F20000
09E06E30
0CC00200
0EA00000
1FA55530
1EFFFF80
ENDCHAR
STARTCHAR uni01C8.ss01
ENCODING -1
SWIDTH 854 0
DWIDTH 9 0
BBX 10 14 0 -5
BITMAP
00D7000000
02F7000000
04F40002E8
07F2000020
09E00002E2
0CC00005F1
0EA00007E0
1FA55538B0
1EFFFF8A90
0000006F60
000007BF30
00003C5D00
000089C700
00005EA000
ENDCHAR
STARTCHAR Lslash.ss01
ENCODING -1
SWIDTH 625 0
DWIDTH 7 0
BBX 7 9 0 0
BITMAP
00D60000
02F70100
04F8D700
07FE6000
7FE10000
3DC00000
0EA00000
1FA55530
1EFFFF80
ENDCHAR
STARTCHAR M.ss01
ENCODING -1
SWIDTH 1139 0
DWIDTH 13 0
BBX 12 9 0 0
BITMAP
00D57ED23CE8
03F9B4E8D5BF
05FD10DE609E
07F800FD00CC
0AF202F900E9
0CD005F502F7
0EA008F204F4
1F800AE007F2
1E4009B006D0
ENDCHAR
STARTCHAR N.ss01
ENCODING -1
SWIDTH 799 0
DWIDTH 9 0
BBX 9 9 0 0
BITMAP
00D55CEA00
03F8D58F30
05FE305F30
07F9008F10
0AF300AD00
0CE000DA00
0EA001F800
1F8003F600
1E4003E300
ENDCHAR
STARTCHAR uni01CA.ss01
ENCODING -1
SWIDTH 1515 0
DWIDTH 17 0
BBX 17 9 0 0
BITMAP
00D55CEA003ADFEC70
03F8D58F32F9439F40
05FE305F35F0009F00
07F9008F12B100BD00
0AF300AD000000DA00
0CE000DA000000F700
0EA001F8024004F300
1F8003F604F64CB000
1E4003E3007DEA1000
ENDCHAR
STARTCHAR Nacute.ss01
ENCODING -1
SWIDTH 799 0
DWIDTH 9 0
BBX 9 13 0 0
BITMAP
0000001600
000002CE20
00000C8100
0000000000
00D55CEA00
03F8D58F30
05FE305F30
07F9008F10
0AF300AD00
0CE000DA00
0EA001F800
1F8003F600
1E4003E300
ENDCHAR
STARTCHAR Ncaron.ss01
ENCODING -1
SWIDTH 799 0
DWIDTH 9 0
BBX 9 13 0 0
BITMAP
0001604300
0001E5E300
00006E5000
0000000000
00D55CEA00
03F8D58F30
05FE305F30
07F9008F10
0AF300AD00
0CE000DA00
0EA001F800
1F8003F600
1E4003E300
ENDCHAR
STARTCHAR uni0145.ss01
ENCODING -1
SWIDTH 799 0
DWIDTH 9 0
BBX 9 12 0 -3
BITMAP
00D55CEA00
03F8D58F30
05FE305F30
07F9008F10
0AF300AD00
0CE000DA00
0EA001F800
1F8003F600
1E4003E300
0001000000
000B700000
000B300000
ENDCHAR
STARTCHAR Eng.ss01
ENCODING -1
SWIDTH 792 0
DWIDTH 9 0
BBX 9 14 0 -5
BITMAP
00D64CE900
03F8D59F20
05FE307F20
07FA009F00
0AF300DC00
0CE001F800
0EB004F500
1F8007F100
1E400AC000
00000E8000
02003F3000
0E81AB0000
06EFC20000
0012000000
ENDCHAR
STARTCHAR uni01CB.ss01
ENCODING -1
SWIDTH 1008 0
DWIDTH 11 0
BBX 12 14 0 -5
BITMAP
00D55CEA0000
03F8D58F3000
05FE305F36E4
07F9008F1020
0AF300AD06C0
0CE000DA0AB0
0EA001F80B90
1F8003F60D70
1E4003E30F40
00000001AF10
0000000BBD00
00000088A800
000000D7E200
0000009E7000
ENDCHAR
STARTCHAR Ntilde.ss01
ENCODING -1
SWIDTH 799 0
DWIDTH 9 0
BBX 9 12 0 0
BITMAP
0005E84C00
000C59E500
0000000000
00D55CEA00
03F8D58F30
05FE305F30
07F9008F10
0AF300AD00
0CE000DA00
0EA001F800
1F8003F600
1E4003E300
ENDCHAR
STARTCHAR OE.ss01
ENCODING -1
SWIDTH 1166 0
DWIDTH 13 0
BBX 13 9 0 0
BITMAP
0019DFC47FFFE0
01DC54BFEA3310
09E1001FF50000
1E90000DF20000
3F60000EFFFF30
4F50002FB33200
2F80008FA00000
0BE638FCF73450
019EFC419EFD70
ENDCHAR
STARTCHAR P.ss01
ENCODING -1
SWIDTH 662 0
DWIDTH 7 0
BBX 8 9 0 0
BITMAP
06CEEB30
07EC4CE1
00E905F5
02F606F3
04F44EB0
5FFFE810
0AE10000
0CB00000
0C800000
ENDCHAR
STARTCHAR Thorn.ss01
ENCODING -1
SWIDTH 658 0
DWIDTH 7 0
BBX 8 9 0 0
BITMAP
00AB0000
04EFEA10
0AF96EC0
03F509F1
05F30AE0
07F25F80
6FFFE700
0CC20000
0C800000
ENDCHAR
STARTCHAR Q.ss01
ENCODING -1
SWIDTH 816 0
DWIDTH 9 0
BBX 9 13 0 -4
BITMAP
0018DEC400
01DC54BF30
09E1001F90
0E90000DB0
3F60000EB0
4F50001F80
2F80008F30
0CE527F900
02CFFE7000
0004DC1000
00004F9000
000009F100
0000001000
ENDCHAR
STARTCHAR R.ss01
ENCODING -1
SWIDTH 744 0
DWIDTH 8 0
BBX 8 9 1 0
BITMAP
6CEEB400
8EB4CF10
0F807F20
3F65DA00
EFFD6000
9F8F6000
BC0CD000
DB05F920
B7008ED2
ENDCHAR
STARTCHAR Racute.ss01
ENCODING -1
SWIDTH 744 0
DWIDTH 8 0
BBX 8 13 1 0
BITMAP
00000520
00009F50
0008A300
00000000
6CEEB400
8EB4CF10
0F807F20
3F65DA00
EFFD6000
9F8F6000
BC0CD000
DB05F920
B7008ED2
ENDCHAR
STARTCHAR Rcaron.ss01
ENCODING -1
SWIDTH 744 0
DWIDTH 8 0
BBX 8 13 1 0
BITMAP
00512500
00A8B700
002D9000
00000000
6CEEB400
8EB4CF10
0F807F20
3F65DA00
EFFD6000
9F8F6000
BC0CD000
DB05F920
B7008ED2
ENDCHAR
STARTCHAR uni0156.ss01
ENCODING -1
SWIDTH 744 0
DWIDTH 8 0
BBX 8 12 1 -3
BITMAP
6CEEB400
8EB4CF10
0F807F20
3F65DA00
EFFD6000
9F8F6000
BC0CD000
DB05F920
B7008ED2
00100000
00C60000
00C20000
ENDCHAR
STARTCHAR uni0210.ss01
ENCODING -1
SWIDTH 744 0
DWIDTH 8 0
BBX 8 13 1 0
BITMAP
03434000
07D7D000
00C2C100
00000000
6CEEB400
8EB4CF10
0F807F20
3F65DA00
EFFD6000
9F8F6000
BC0CD000
DB05F920
B7008ED2
ENDCHAR
STARTCHAR uni0212.ss01
ENCODING -1
SWIDTH 744 0
DWIDTH 8 0
BBX 8 12 1 0
BITMAP
008ED700
05D46F10
00100100
6CEEB400
8EB4CF10
0F807F20
3F65DA00
EFFD6000
9F8F6000
BC0CD000
DB05F920
B7008ED2
ENDCHAR
STARTCHAR T.ss01
ENCODING -1
SWIDTH 631 0
DWIDTH 7 0
BBX 9 9 0 0
BITMAP
2DEFFFFD10
0339F33200
000AD00000
000DA00000
001F700000
003F500000
006F300000
008F100000
007C000000
ENDCHAR
STARTCHAR Tbar.ss01
ENCODING -1
SWIDTH 631 0
DWIDTH 7 0
BBX 9 9 0 0
BITMAP
2DEFFFFD10
0339F33200
000AD00000
000DA00000
0BFFFF4000
025F720000
005F300000
008F100000
007C000000
ENDCHAR
STARTCHAR Tcaron.ss01
ENCODING -1
SWIDTH 631 0
DWIDTH 7 0
BBX 9 13 0 0
BITMAP
0006125000
000B7D5000
0003E80000
0000000000
2DEFFFFD10
0339F33200
000AD00000
000DA00000
001F700000
003F500000
006F300000
008F100000
007C000000
ENDCHAR
STARTCHAR uni0162.ss01
ENCODING -1
SWIDTH 631 0
DWIDTH 7 0
BBX 9 13 0 -4
BITMAP
2DEFFFFD10
0339F33200
000AD00000
000DA00000
001F700000
004F400000
007F200000
009F000000
01EE100000
003D600000
001C500000
0AFB000000
0120000000
ENDCHAR
STARTCHAR uni021A.ss01
ENCODING -1
SWIDTH 631 0
DWIDTH 7 0
BBX 9 12 0 -3
BITMAP
2DEFFFFD10
0339F33200
000AD00000
000DA00000
001F700000
003F500000
006F300000
008F100000
007C000000
0001000000
008A000000
0096000000
ENDCHAR
STARTCHAR U.ss01
ENCODING -1
SWIDTH 800 0
DWIDTH 9 0
BBX 8 9 1 0
BITMAP
0D7001D5
2F7004F5
3F5006F3
6F200AF1
9E000EE0
BC006FC0
EA01DEA0
ED7D8F70
6ED71E40
ENDCHAR
STARTCHAR Uacute.ss01
ENCODING -1
SWIDTH 800 0
DWIDTH 9 0
BBX 8 13 1 0
BITMAP
00000160
00002CE2
0000C810
00000000
0D7001D5
2F7004F5
3F5006F3
6F200AF1
9E000EE0
BC006FC0
EA01DEA0
ED7D8F70
6ED71E40
ENDCHAR
STARTCHAR Ubreve.ss01
ENCODING -1
SWIDTH 800 0
DWIDTH 9 0
BBX 8 12 1 0
BITMAP
00771690
005EFE50
00002000
0D7001D5
2F7004F5
3F5006F3
6F200AF1
9E000EE0
BC006FC0
EA01DEA0
ED7D8F70
6ED71E40
ENDCHAR
STARTCHAR Ucircumflex.ss01
ENCODING -1
SWIDTH 800 0
DWIDTH 9 0
BBX 8 13 1 0
BITMAP
0004E800
001D9E10
006B0D30
00000000
0D7001D5
2F7004F5
3F5006F3
6F200AF1
9E000EE0
BC006FC0
EA01DEA0
ED7D8F70
6ED71E40
ENDCHAR
STARTCHAR uni0214.ss01
ENCODING -1
SWIDTH 800 0
DWIDTH 9 0
BBX 8 13 1 0
BITMAP
00525200
00B8B800
003B3B00
00000000
0D7001D5
2F7004F5
3F5006F3
6F200AF1
9E000EE0
BC006FC0
EA01DEA0
ED7D8F70
6ED71E40
ENDCHAR
STARTCHAR Udieresis.ss01
ENCODING -1
SWIDTH 800 0
DWIDTH 9 0
BBX 8 11 1 0
BITMAP
005E2E50
00020200
0D7001D5
2F7004F5
3F5006F3
6F200AF1
9E000EE0
BC006FC0
EA01DEA0
ED7D8F70
6ED71E40
ENDCHAR
STARTCHAR uni1EE4.ss01
ENCODING -1
SWIDTH 800 0
DWIDTH 9 0
BBX 8 12 1 -3
BITMAP
0D7001D5
2F7004F5
3F5006F3
6F200AF1
9E000EE0
BC006FC0
EA01DEA0
ED7D8F70
6ED71E40
00000000
00BD0000
00110000
ENDCHAR
STARTCHAR Ugrave.ss01
ENCODING -1
SWIDTH 800 0
DWIDTH 9 0
BBX 8 13 1 0
BITMAP
03400000
06F80000
003A7000
00000000
0D7001D5
2F7004F5
3F5006F3
6F200AF1
9E000EE0
BC006FC0
EA01DEA0
ED7D8F70
6ED71E40
ENDCHAR
STARTCHAR uni1EE6.ss01
ENCODING -1
SWIDTH 800 0
DWIDTH 9 0
BBX 8 13 1 0
BITMAP
0006FA00
00015F00
0002FA00
00002000
0D7001D5
2F7004F5
3F5006F3
6F200AF1
9E000EE0
BC006FC0
EA01DEA0
ED7D8F70
6ED71E40
ENDCHAR
STARTCHAR Uhorn.ss01
ENCODING -1
SWIDTH 800 0
DWIDTH 9 0
BBX 10 11 1 0
BITMAP
0000000060
00000005F1
0D7001DF90
2F7004F700
3F5006F300
6F200AF100
9E000EE000
BC006FC000
EA01DEA000
ED7D8F7000
6ED71E4000
ENDCHAR
STARTCHAR uni1EE8.ss01
ENCODING -1
SWIDTH 800 0
DWIDTH 9 0
BBX 10 13 1 0
BITMAP
0000016000
00002CE200
0000C81060
00000005F1
0D7001DF90
2F7004F700
3F5006F300
6F200AF100
9E000EE000
BC006FC000
EA01DEA000
ED7D8F7000
6ED71E4000
ENDCHAR
STARTCHAR uni1EF0.ss01
ENCODING -1
SWIDTH 800 0
DWIDTH 9 0
BBX 10 14 1 -3
BITMAP
0000000060
00000005F1
0D7001DF90
2F7004F700
3F5006F300
6F200AF100
9E000EE000
BC006FC000
EA01DEA000
ED7D8F7000
6ED71E4000
0000000000
00BD000000
0011000000
ENDCHAR
STARTCHAR uni1EEA.ss01
ENCODING -1
SWIDTH 800 0
DWIDTH 9 0
BBX 10 13 1 0
BITMAP
0340000000
06F8000000
003A700060
00000005F1
0D7001DF90
2F7004F700
3F5006F300
6F200AF100
9E000EE000
BC006FC000
EA01DEA000
ED7D8F7000
6ED71E4000
ENDCHAR
STARTCHAR uni1EEC.ss01
ENCODING -1
SWIDTH 800 0
DWIDTH 9 0
BBX 10 13 1 0
BITMAP
0006FA0000
00015F0000
0002FA0060
00002005F1
0D7001DF90
2F7004F700
3F5006F300
6F200AF100
9E000EE000
BC006FC000
EA01DEA000
ED7D8F7000
6ED71E4000
ENDCHAR
STARTCHAR uni1EEE.ss01
ENCODING -1
SWIDTH 800 0
DWIDTH 9 0
BBX 10 12 1 0
BITMAP
004E93C000
00B69E6060
00000005F1
0D7001DF90
2F7004F700
3F5006F300
6F200AF100
9E000EE000
BC006FC000
EA01DEA000
ED7D8F7000
6ED71E4000
ENDCHAR
STARTCHAR Uhungarumlaut.ss01
ENCODING -1
SWIDTH 800 0
DWIDTH 9 0
BBX 8 13 1 0
BITMAP
00034340
000B9B90
000C1C10
00000000
0D7001D5
2F7004F5
3F5006F3
6F200AF1
9E000EE0
BC006FC0
EA01DEA0
ED7D8F70
6ED71E40
ENDCHAR
STARTCHAR uni0216.ss01
ENCODING -1
SWIDTH 800 0
DWIDTH 9 0
BBX 8 12 1 0
BITMAP
002BEC30
00AA3AB0
00100010
0D7001D5
2F7004F5
3F5006F3
6F200AF1
9E000EE0
BC006FC0
EA01DEA0
ED7D8F70
6ED71E40
ENDCHAR
STARTCHAR Umacron.ss01
ENCODING -1
SWIDTH 800 0
DWIDTH 9 0
BBX 8 11 1 0
BITMAP
004FFF10
00033200
0D7001D5
2F7004F5
3F5006F3
6F200AF1
9E000EE0
BC006FC0
EA01DEA0
ED7D8F70
6ED71E40
ENDCHAR
STARTCHAR Uogonek.ss01
ENCODING -1
SWIDTH 800 0
DWIDTH 9 0
BBX 8 13 1 -4
BITMAP
0D7001D5
2F7004F6
3F5006F4
6F200AF2
9E000EE0
BC006FC0
EA01DEA0
ED7D8E80
6ED71F50
00007B00
0000C700
00007FE1
00000210
ENDCHAR
STARTCHAR Uring.ss01
ENCODING -1
SWIDTH 800 0
DWIDTH 9 0
BBX 8 13 1 0
BITMAP
0006E900
000D6F00
0009FA00
00002000
0D7001D5
2F7004F5
3F5006F3
6F200AF1
9E000EE0
BC006FC0
EA01DEA0
ED7D8F70
6ED71E40
ENDCHAR
STARTCHAR Utilde.ss01
ENCODING -1
SWIDTH 800 0
DWIDTH 9 0
BBX 8 12 1 0
BITMAP
004E93C0
00B69E60
00000000
0D7001D5
2F7004F5
3F5006F3
6F200AF1
9E000EE0
BC006FC0
EA01DEA0
ED7D8F70
6ED71E40
ENDCHAR
STARTCHAR V.ss01
ENCODING -1
SWIDTH 797 0
DWIDTH 9 0
BBX 8 9 1 0
BITMAP
3E30008D
7F3000DB
8F1002F7
9F0006F3
9E000BC0
8F002F60
6F30BD00
1FCAE300
07EC3000
ENDCHAR
STARTCHAR W.ss01
ENCODING -1
SWIDTH 1236 0
DWIDTH 14 0
BBX 13 9 1 0
BITMAP
3E2002E5000BA0
7F2006F4001F90
9F0009F3004F40
9E000DF2008E10
AE003FF100DA00
9E009DF204F400
7F22F5F40CB000
3FBDA0DCAE2000
08EA105EC30000
ENDCHAR
STARTCHAR Wacute.ss01
ENCODING -1
SWIDTH 1236 0
DWIDTH 14 0
BBX 13 13 1 0
BITMAP
00000000430000
00000008F70000
0000007B300000
00000000000000
3E2002E5000BA0
7F2006F4001F90
9F0009F3004F40
9E000DF2008E10
AE003FF100DA00
9E009DF204F400
7F22F5F40CB000
3FBDA0DCAE2000
08EA105EC30000
ENDCHAR
STARTCHAR Wcircumflex.ss01
ENCODING -1
SWIDTH 1236 0
DWIDTH 14 0
BBX 13 13 1 0
BITMAP
000001BD100000
000008CC600000
00001E37800000
00000000000000
3E2002E5000BA0
7F2006F4001F90
9F0009F3004F40
9E000DF2008E10
AE003FF100DA00
9E009DF204F400
7F22F5F40CB000
3FBDA0DCAE2000
08EA105EC30000
ENDCHAR
STARTCHAR Wdieresis.ss01
ENCODING -1
SWIDTH 1236 0
DWIDTH 14 0
BBX 13 11 1 0
BITMAP
00000D69B00000
00000201100000
3E2002E5000BA0
7F2006F4001F90
9F0009F3004F40
9E000DF2008E10
AE003FF100DA00
9E009DF204F400
7F22F5F40CB000
3FBDA0DCAE2000
08EA105EC30000
ENDCHAR
STARTCHAR Wgrave.ss01
ENCODING -1
SWIDTH 1236 0
DWIDTH 14 0
BBX 13 13 1 0
BITMAP
00006100000000
0002EC20000000
000017C0000000
00000000000000
3E2002E5000BA0
7F2006F4001F90
9F0009F3004F40
9E000DF2008E10
AE003FF100DA00
9E009DF204F400
7F22F5F40CB000
3FBDA0DCAE2000
08EA105EC30000
ENDCHAR
STARTCHAR X.ss01
ENCODING -1
SWIDTH 677 0
DWIDTH 7 0
BBX 10 9 -1 0
BITMAP
006E2007E1
002F906F60
0009E5F800
0002FF9000
0002EF1000
001DCF7000
01CD1AE100
0BE303F700
5E4000AB00
ENDCHAR
STARTCHAR Y.ss01
ENCODING -1
SWIDTH 776 0
DWIDTH 9 0
BBX 8 9 1 0
BITMAP
3E3003E1
6F3007F1
8F100AF0
AE002FD0
BE34CEB0
5FFF7D90
01422F50
B734CD00
7DED9100
ENDCHAR
STARTCHAR Yacute.ss01
ENCODING -1
SWIDTH 776 0
DWIDTH 9 0
BBX 8 13 1 0
BITMAP
00000250
00004EB0
0003D600
00000000
3E3003E1
6F3007F1
8F100AF0
AE002FD0
BE34CEB0
5FFF7D90
01422F50
B734CD00
7DED9100
ENDCHAR
STARTCHAR Ycircumflex.ss01
ENCODING -1
SWIDTH 776 0
DWIDTH 9 0
BBX 8 13 1 0
BITMAP
0007E400
004E9B00
00A73D00
00000000
3E3003E1
6F3007F1
8F100AF0
AE002FD0
BE34CEB0
5FFF7D90
01422F50
B734CD00
7DED9100
ENDCHAR
STARTCHAR Ydieresis.ss01
ENCODING -1
SWIDTH 776 0
DWIDTH 9 0
BBX 8 11 1 0
BITMAP
009B5E10
00110200
3E3003E1
6F3007F1
8F100AF0
AE002FD0
BE34CEB0
5FFF7D90
01422F50
B734CD00
7DED9100
ENDCHAR
STARTCHAR uni1EF4.ss01
ENCODING -1
SWIDTH 776 0
DWIDTH 9 0
BBX 8 12 1 -3
BITMAP
3E3003E1
6F3007F1
8F100AF0
AE002FD0
BE34CEB0
5FFF7D90
01422F50
B734CD00
7DED9100
00000000
04E60000
00200000
ENDCHAR
STARTCHAR Ygrave.ss01
ENCODING -1
SWIDTH 776 0
DWIDTH 9 0
BBX 8 13 1 0
BITMAP
05200000
0BE50000
005C3000
00000000
3E3003E1
6F3007F1
8F100AF0
AE002FD0
BE34CEB0
5FFF7D90
01422F50
B734CD00
7DED9100
ENDCHAR
STARTCHAR uni1EF6.ss01
ENCODING -1
SWIDTH 776 0
DWIDTH 9 0
BBX 8 13 1 0
BITMAP
000BE600
00028B00
0006F600
00011000
3E3003E1
6F3007F1
8F100AF0
AE002FD0
BE34CEB0
5FFF7D90
01422F50
B734CD00
7DED9100
ENDCHAR
STARTCHAR uni0232.ss01
ENCODING -1
SWIDTH 776 0
DWIDTH 9 0
BBX 8 11 1 0
BITMAP
008FFC00
00133100
3E3003E1
6F3007F1
8F100AF0
AE002FD0
BE34CEB0
5FFF7D90
01422F50
B734CD00
7DED9100
ENDCHAR
STARTCHAR uni1EF8.ss01
ENCODING -1
SWIDTH 776 0
DWIDTH 9 0
BBX 8 12 1 0
BITMAP
008E6780
01D4BD20
00000000
3E3003E1
6F3007F1
8F100AF0
AE002FD0
BE34CEB0
5FFF7D90
01422F50
B734CD00
7DED9100
ENDCHAR
STARTCHAR Z.ss01
ENCODING -1
SWIDTH 665 0
DWIDTH 7 0
BBX 8 9 0 0
BITMAP
0CEFFFE6
02333BF4
00005F90
0002EC00
001DE200
00BF4000
09F70000
6FC32210
CFFFFFD0
ENDCHAR
STARTCHAR Zacute.ss01
ENCODING -1
SWIDTH 665 0
DWIDTH 7 0
BBX 8 13 0 0
BITMAP
00000052
000008F6
00008A30
00000000
0CEFFFE6
02333BF4
00005F90
0002EC00
001DE200
00BF4000
09F70000
6FC32210
CFFFFFD0
ENDCHAR
STARTCHAR Zcaron.ss01
ENCODING -1
SWIDTH 665 0
DWIDTH 7 0
BBX 8 13 0 0
BITMAP
00052160
00099B80
0001DA00
00000000
0CEFFFE6
02333BF4
00005F90
0002EC00
001DE200
00BF4000
09F70000
6FC32210
CFFFFFD0
ENDCHAR
STARTCHAR Zdotaccent.ss01
ENCODING -1
SWIDTH 665 0
DWIDTH 7 0
BBX 8 11 0 0
BITMAP
0001EA00
00002000
0CEFFFE6
02333BF4
00005F90
0002EC00
001DE200
00BF4000
09F70000
6FC32210
CFFFFFD0
ENDCHAR
STARTCHAR i.loclTRK
ENCODING -1
SWIDTH 246 0
DWIDTH 3 0
BBX 4 7 0 0
BITMAP
0CB0
0110
0D40
4F20
6E03
7E5D
2EC3
ENDCHAR
STARTCHAR a.fina
ENCODING -1
SWIDTH 458 0
DWIDTH 5 0
BBX 5 5 0 0
BITMAP
03CEA0
2E9BA0
7E0D80
9D6F70
3E9D40
ENDCHAR
STARTCHAR aacute.fina
ENCODING -1
SWIDTH 458 0
DWIDTH 5 0
BBX 6 9 0 0
BITMAP
0001D4
0007D1
000B20
000000
03CEA0
2E9BA0
7E0D80
9D6F70
3E9D40
ENDCHAR
STARTCHAR abreve.fina
ENCODING -1
SWIDTH 458 0
DWIDTH 5 0
BBX 6 9 0 0
BITMAP
021003
0AB19B
03EFD3
000200
03CEA0
2E9BA0
7E0D80
9D6F70
3E9D40
ENDCHAR
STARTCHAR uni1EAF.fina
ENCODING -1
SWIDTH 458 0
DWIDTH 5 0
BBX 6 9 0 0
BITMAP
0003D3
077478
05EFE5
000200
03CEA0
2E9BA0
7E0D80
9D6F70
3E9D40
ENDCHAR
STARTCHAR uni1EB7.fina
ENCODING -1
SWIDTH 458 0
DWIDTH 5 0
BBX 6 12 0 -3
BITMAP
021003
0AB19B
03EFD3
000200
03CEA0
2E9BA0
7E0D80
9D6F70
3E9D40
000000
0AD000
011000
ENDCHAR
STARTCHAR uni1EB1.fina
ENCODING -1
SWIDTH 458 0
DWIDTH 5 0
BBX 6 9 0 0
BITMAP
00C700
077548
04EEE5
000100
03CEA0
2E9BA0
7E0D80
9D6F70
3E9D40
ENDCHAR
STARTCHAR uni1EB3.fina
ENCODING -1
SWIDTH 458 0
DWIDTH 5 0
BBX 6 10 0 0
BITMAP
005F80
011F91
0A938B
03EFE4
000200
03CEA0
2E9BA0
7E0D80
9D6F70
3E9D40
ENDCHAR
STARTCHAR uni1EB5.fina
ENCODING -1
SWIDTH 458 0
DWIDTH 5 0
BBX 6 10 0 0
BITMAP
01BA4A
035383
08705A
04EFD4
000100
03CEA0
2E9BA0
7E0D80
9D6F70
3E9D40
ENDCHAR
STARTCHAR acircumflex.fina
ENCODING -1
SWIDTH 458 0
DWIDTH 5 0
BBX 6 10 0 0
BITMAP
000530
005EB0
01D6F1
05B0D2
000000
03CEA0
2E9BA0
7E0D80
9D6F70
3E9D40
ENDCHAR
STARTCHAR uni1EA5.fina
ENCODING -1
SWIDTH 458 0
DWIDTH 5 0
BBX 7 10 0 0
BITMAP
00000250
00001C70
006D9000
04C2D200
00000000
03CEA000
2E9BA000
7E0D8000
9D6F7000
3E9D4000
ENDCHAR
STARTCHAR uni1EAD.fina
ENCODING -1
SWIDTH 458 0
DWIDTH 5 0
BBX 6 13 0 -3
BITMAP
000530
005EB0
01D6F1
05B0D2
000000
03CEA0
2E9BA0
7E0D80
9D6F70
3E9D40
000000
0AD000
011000
ENDCHAR
STARTCHAR uni1EA7.fina
ENCODING -1
SWIDTH 458 0
DWIDTH 5 0
BBX 6 10 0 0
BITMAP
250000
3C6000
006D90
04C2D2
000000
03CEA0
2E9BA0
7E0D80
9D6F70
3E9D40
ENDCHAR
STARTCHAR uni1EA9.fina
ENCODING -1
SWIDTH 458 0
DWIDTH 5 0
BBX 7 9 0 0
BITMAP
00003E90
000004D0
005E9D90
04E7F400
04DEC000
2E9BA000
7E0D8000
9D6F7000
3E9D4000
ENDCHAR
STARTCHAR uni1EAB.fina
ENCODING -1
SWIDTH 458 0
DWIDTH 5 0
BBX 6 10 0 0
BITMAP
00CC5B
025592
008EB0
04D2D2
000000
03CEA0
2E9BA0
7E0D80
9D6F70
3E9D40
ENDCHAR
STARTCHAR uni0201.fina
ENCODING -1
SWIDTH 458 0
DWIDTH 5 0
BBX 5 10 0 0
BITMAP
061600
2F6F30
0A8A80
02A2A0
000000
03CEA0
2E9BA0
7E0D80
9D6F70
3E9D40
ENDCHAR
STARTCHAR adieresis.fina
ENCODING -1
SWIDTH 458 0
DWIDTH 5 0
BBX 6 7 0 0
BITMAP
04E2E5
002020
03CEA0
2E9BA0
7E0D80
9D6F70
3E9D40
ENDCHAR
STARTCHAR uni1EA1.fina
ENCODING -1
SWIDTH 458 0
DWIDTH 5 0
BBX 5 8 0 -3
BITMAP
03CEA0
2E9BA0
7E0D80
9D6F70
3E9D40
000000
0AD000
011000
ENDCHAR
STARTCHAR agrave.fina
ENCODING -1
SWIDTH 458 0
DWIDTH 5 0
BBX 5 10 0 0
BITMAP
024000
07E000
01D600
003A00
000000
03CEA0
2E9BA0
7E0D80
9D6F70
3E9D40
ENDCHAR
STARTCHAR uni1EA3.fina
ENCODING -1
SWIDTH 458 0
DWIDTH 5 0
BBX 5 9 0 0
BITMAP
006FA0
0014F0
001F90
000200
03CEA0
2E9BA0
7E0D80
9D6F70
3E9D40
ENDCHAR
STARTCHAR uni0203.fina
ENCODING -1
SWIDTH 458 0
DWIDTH 5 0
BBX 6 8 0 0
BITMAP
01AFC2
08C3CA
063036
03CEA0
2E9BA0
7E0D80
9D6F70
3E9D40
ENDCHAR
STARTCHAR amacron.fina
ENCODING -1
SWIDTH 458 0
DWIDTH 5 0
BBX 6 7 0 0
BITMAP
04FFF1
002320
03CEA0
2E9BA0
7E0D80
9D6F70
3E9D40
ENDCHAR
STARTCHAR aogonek.fina
ENCODING -1
SWIDTH 458 0
DWIDTH 5 0
BBX 6 9 0 -4
BITMAP
03CC60
2E9BB0
7E0D90
9D6F70
3EAF60
006C10
009900
005FF2
000120
ENDCHAR
STARTCHAR aring.fina
ENCODING -1
SWIDTH 458 0
DWIDTH 5 0
BBX 5 9 0 0
BITMAP
006E90
00D6F0
009FA0
000200
03CEA0
2E9BA0
7E0D80
9D6F70
3E9D40
ENDCHAR
STARTCHAR aringacute.fina
ENCODING -1
SWIDTH 458 0
DWIDTH 5 0
BBX 8 10 0 0
BITMAP
000002D2
006EA970
00D6F000
009FA000
00020000
03CEA000
2E9BA000
7E0D8000
9D6F7000
3E9D4000
ENDCHAR
STARTCHAR atilde.fina
ENCODING -1
SWIDTH 458 0
DWIDTH 5 0
BBX 6 8 0 0
BITMAP
04E93C
0B59E5
000000
03CEA0
2E9BA0
7E0D80
9D6F70
3E9D40
ENDCHAR
STARTCHAR ae.fina
ENCODING -1
SWIDTH 671 0
DWIDTH 7 0
BBX 8 5 0 0
BITMAP
04CEAEB0
2F99D5F1
8D0CCB80
8D5FE688
3DD4BEB1
ENDCHAR
STARTCHAR aeacute.fina
ENCODING -1
SWIDTH 671 0
DWIDTH 7 0
BBX 8 9 0 0
BITMAP
000008A0
00001E50
00007600
00000000
04CEAEB0
2F99D5F1
8D0CCB80
8D5FE688
3DD4BEB1
ENDCHAR
STARTCHAR b.fina
ENCODING -1
SWIDTH 475 0
DWIDTH 5 0
BBX 5 10 0 0
BITMAP
007E60
03E9A0
0AA790
0E6C40
2F7A00
5FDD40
6F6AD0
5F06F0
2F5BB0
08EC20
ENDCHAR
STARTCHAR c.fina
ENCODING -1
SWIDTH 404 0
DWIDTH 4 0
BBX 5 5 0 0
BITMAP
08EB00
5F6F00
9C0300
8E4890
1BEB20
ENDCHAR
STARTCHAR cacute.fina
ENCODING -1
SWIDTH 404 0
DWIDTH 4 0
BBX 5 9 0 0
BITMAP
0007B0
001E60
006800
000000
08EB00
5F6F00
9C0300
8E4890
1BEB20
ENDCHAR
STARTCHAR ccaron.fina
ENCODING -1
SWIDTH 404 0
DWIDTH 4 0
BBX 6 10 0 0
BITMAP
024061
06C4E1
02EC50
00CA00
000000
08EB00
5F6F00
9C0300
8E4890
1BEB20
ENDCHAR
STARTCHAR ccedilla.fina
ENCODING -1
SWIDTH 404 0
DWIDTH 4 0
BBX 5 8 0 -3
BITMAP
07EB00
4F6F00
9C0600
8D0370
3EEF40
07E900
007B00
3FD300
ENDCHAR
STARTCHAR ccircumflex.fina
ENCODING -1
SWIDTH 404 0
DWIDTH 4 0
BBX 5 10 0 0
BITMAP
002600
00CE40
06C980
0D3690
000000
08EB00
5F6F00
9C0300
8E4890
1BEB20
ENDCHAR
STARTCHAR cdotaccent.fina
ENCODING -1
SWIDTH 404 0
DWIDTH 4 0
BBX 5 7 0 0
BITMAP
00CC00
001100
08EB00
5F6F00
9C0300
8E4890
1BEB20
ENDCHAR
STARTCHAR d.fina
ENCODING -1
SWIDTH 493 0
DWIDTH 5 0
BBX 7 10 0 0
BITMAP
00005E60
0000E9A0
0004E590
0008B860
000A9C10
04CFC900
2E7DF200
7D0CA000
8D5EB000
3DD8C000
ENDCHAR
STARTCHAR dcaron.fina
ENCODING -1
SWIDTH 458 0
DWIDTH 5 0
BBX 8 10 0 0
BITMAP
000000C4
0000A9F2
0000E8A0
0002F400
0004F100
04CED000
2EABB000
7E0D8000
9D6F7000
3E9D5000
ENDCHAR
STARTCHAR dcroat.fina
ENCODING -1
SWIDTH 458 0
DWIDTH 5 0
BBX 6 9 0 0
BITMAP
0000A9
0000E8
02FFFD
0025F2
04CEE0
2EABB0
7E0D80
9D6F70
3E9D50
ENDCHAR
STARTCHAR uni01C6.fina
ENCODING -1
SWIDTH 876 0
DWIDTH 10 0
BBX 11 14 0 -5
BITMAP
0000A94C0C30
0000E72F8B00
0002F40DE200
0004F1443300
04CED4FFFE10
2EABA02BD300
7E0D70AC1000
9D6F8BFB1000
3EC7E82E9000
000001BEB000
00000B7B9000
00003D4F3000
00002FF60000
000001100000
ENDCHAR
STARTCHAR e.fina
ENCODING -1
SWIDTH 411 0
DWIDTH 5 0
BBX 5 5 0 0
BITMAP
07EC10
5E4F30
9DAA10
7F77A0
1BEC30
ENDCHAR
STARTCHAR eacute.fina
ENCODING -1
SWIDTH 411 0
DWIDTH 5 0
BBX 5 9 0 0
BITMAP
0006C0
000D70
005800
000000
07EC10
5E4F30
9DAA10
7F77A0
1BEC30
ENDCHAR
STARTCHAR ebreve.fina
ENCODING -1
SWIDTH 411 0
DWIDTH 5 0
BBX 6 9 0 0
BITMAP
030021
1F53E4
09FF90
001100
07EC10
5E4F30
9DAA10
7F77A0
1BEC30
ENDCHAR
STARTCHAR ecaron.fina
ENCODING -1
SWIDTH 411 0
DWIDTH 5 0
BBX 6 10 0 0
BITMAP
024051
05D3E1
02FB60
00BB00
000000
07EC10
5E4F30
9DAA10
7F77A0
1BEC30
ENDCHAR
STARTCHAR ecircumflex.fina
ENCODING -1
SWIDTH 411 0
DWIDTH 5 0
BBX 5 10 0 0
BITMAP
001600
00CE40
06C980
0C46A0
000000
07EC10
5E4F30
9DAA10
7F77A0
1BEC30
ENDCHAR
STARTCHAR uni1EBF.fina
ENCODING -1
SWIDTH 411 0
DWIDTH 5 0
BBX 7 10 0 0
BITMAP
00000520
00007B20
01BD3000
0A76A000
00000000
07EC1000
5E4F3000
9DAA1000
7F77A000
1BEC3000
ENDCHAR
STARTCHAR uni1EC7.fina
ENCODING -1
SWIDTH 411 0
DWIDTH 5 0
BBX 5 13 0 -3
BITMAP
001600
00CE40
06C980
0C46A0
000000
07EC10
5E4F30
9DAA10
7F77A0
1BEC30
000000
06E300
002000
ENDCHAR
STARTCHAR uni1EC1.fina
ENCODING -1
SWIDTH 411 0
DWIDTH 5 0
BBX 5 10 0 0
BITMAP
520000
7C1000
01BD30
0A76A0
000000
07EC10
5E4F30
9DAA10
7F77A0
1BEC30
ENDCHAR
STARTCHAR uni1EC3.fina
ENCODING -1
SWIDTH 411 0
DWIDTH 5 0
BBX 7 9 0 0
BITMAP
00009E30
00002970
01BE8F30
0ABAB100
09ED2000
5E4F3000
9DAA1000
7F77A000
1BEC3000
ENDCHAR
STARTCHAR uni1EC5.fina
ENCODING -1
SWIDTH 411 0
DWIDTH 5 0
BBX 6 10 0 0
BITMAP
05E894
053870
02DE50
0B76A0
000000
07EC10
5E4F30
9DAA10
7F77A0
1BEC30
ENDCHAR
STARTCHAR uni0205.fina
ENCODING -1
SWIDTH 411 0
DWIDTH 5 0
BBX 5 10 0 0
BITMAP
333300
9C9C00
2F3F10
084840
000000
07EC10
5E4F30
9DAA10
7F77A0
1BEC30
ENDCHAR
STARTCHAR edieresis.fina
ENCODING -1
SWIDTH 411 0
DWIDTH 5 0
BBX 5 7 0 0
BITMAP
0B87D0
011110
07EC10
5E4F30
9DAA10
7F77A0
1BEC30
ENDCHAR
STARTCHAR edotaccent.fina
ENCODING -1
SWIDTH 411 0
DWIDTH 5 0
BBX 5 7 0 0
BITMAP
00BD00
001100
07EC10
5E4F30
9DAA10
7F77A0
1BEC30
ENDCHAR
STARTCHAR uni1EB9.fina
ENCODING -1
SWIDTH 411 0
DWIDTH 5 0
BBX 5 8 0 -3
BITMAP
07EC10
5E4F30
9DAA10
7F77A0
1BEC30
000000
06E300
002000
ENDCHAR
STARTCHAR egrave.fina
ENCODING -1
SWIDTH 411 0
DWIDTH 5 0
BBX 5 10 0 0
BITMAP
051000
0E7000
05E000
009400
000000
07EC10
5E4F30
9DAA10
7F77A0
1BEC30
ENDCHAR
STARTCHAR uni1EBB.fina
ENCODING -1
SWIDTH 411 0
DWIDTH 5 0
BBX 5 9 0 0
BITMAP
00DE40
002A80
008E30
001100
07EC10
5E4F30
9DAA10
7F77A0
1BEC30
ENDCHAR
STARTCHAR uni0207.fina
ENCODING -1
SWIDTH 411 0
DWIDTH 5 0
BBX 6 8 0 0
BITMAP
04DE80
1E75F3
180072
07EC10
5E4F30
9DAA10
7F77A0
1BEC30
ENDCHAR
STARTCHAR emacron.fina
ENCODING -1
SWIDTH 411 0
DWIDTH 5 0
BBX 5 7 0 0
BITMAP
0AFF90
013310
07EC10
5E4F30
9DAA10
7F77A0
1BEC30
ENDCHAR
STARTCHAR eogonek.fina
ENCODING -1
SWIDTH 411 0
DWIDTH 5 0
BBX 5 9 0 -4
BITMAP
07EC10
4F5F30
9C8D10
9F8380
3FCE60
03E400
04E100
01EF70
001200
ENDCHAR
STARTCHAR uni1EBD.fina
ENCODING -1
SWIDTH 411 0
DWIDTH 5 0
BBX 6 8 0 0
BITMAP
0AD496
3C4CC1
000000
07EC10
5E4F30
9DAA10
7F77A0
1BEC30
ENDCHAR
STARTCHAR g.fina
ENCODING -1
SWIDTH 449 0
DWIDTH 5 0
BBX 5 10 0 -5
BITMAP
03CC60
2E9BA0
7E0D80
9D6F50
3ECF30
02CF00
1DBB00
A6B700
E7E200
AE6000
ENDCHAR
STARTCHAR gbreve.fina
ENCODING -1
SWIDTH 449 0
DWIDTH 5 0
BBX 6 14 0 -5
BITMAP
021003
0AB19B
03EFD3
000200
03CC60
2E9BA0
7E0D80
9D6F50
3ECF30
02CF00
1DBB00
A6B700
E7E200
AE6000
ENDCHAR
STARTCHAR gcaron.fina
ENCODING -1
SWIDTH 449 0
DWIDTH 5 0
BBX 6 15 0 -5
BITMAP
006124
00D4C7
00ABD0
005E40
000000
03CC60
2E9BA0
7E0D80
9D6F50
3ECF30
02CF00
1DBB00
A6B700
E7E200
AE6000
ENDCHAR
STARTCHAR gcircumflex.fina
ENCODING -1
SWIDTH 449 0
DWIDTH 5 0
BBX 6 15 0 -5
BITMAP
000530
005EB0
01D6F1
05B0D2
000000
03CC60
2E9BA0
7E0D80
9D6F50
3ECF30
02CF00
1DBB00
A6B700
E7E200
AE6000
ENDCHAR
STARTCHAR uni0123.fina
ENCODING -1
SWIDTH 449 0
DWIDTH 5 0
BBX 5 14 0 -5
BITMAP
000930
000E40
000D00
000000
03CC60
2E9BA0
7E0D80
9D6F50
3ECF30
02CF00
1DBB00
A6B700
E7E200
AE6000
ENDCHAR
STARTCHAR gdotaccent.fina
ENCODING -1
SWIDTH 449 0
DWIDTH 5 0
BBX 5 12 0 -5
BITMAP
005E50
000200
03CC60
2E9BA0
7E0D80
9D6F50
3ECF30
02CF00
1DBB00
A6B700
E7E200
AE6000
ENDCHAR
STARTCHAR h.fina
ENCODING -1
SWIDTH 490 0
DWIDTH 5 0
BBX 6 10 0 0
BITMAP
007E60
02E8A0
09A780
0D6C20
1FB800
4FBAE1
5F9DF1
6FC7E0
6F69C0
3D18A0
ENDCHAR
STARTCHAR hbar.fina
ENCODING -1
SWIDTH 490 0
DWIDTH 5 0
BBX 6 9 0 0
BITMAP
02E300
06F100
4FFEB0
0DA210
1F69E1
3FADF1
5FC7E0
5F69C0
3E18A0
ENDCHAR
STARTCHAR hcircumflex.fina
ENCODING -1
SWIDTH 490 0
DWIDTH 5 0
BBX 6 14 0 0
BITMAP
001CC0
00AAE4
02E297
000000
007E60
02E8A0
09A780
0D6C20
1FB800
4FBAE1
5F9DF1
6FC7E0
6F69C0
3D18A0
ENDCHAR
STARTCHAR i.fina
ENCODING -1
SWIDTH 222 0
DWIDTH 2 0
BBX 3 7 0 0
BITMAP
0AD0
0110
0D50
3F30
6F00
8D00
8A00
ENDCHAR
STARTCHAR dotlessi.fina
ENCODING -1
SWIDTH 222 0
DWIDTH 2 0
BBX 3 5 0 0
BITMAP
0D50
3F30
6F00
8D00
8A00
ENDCHAR
STARTCHAR iacute.fina
ENCODING -1
SWIDTH 222 0
DWIDTH 2 0
BBX 4 9 0 0
BITMAP
006B
00E6
0580
0000
0D50
3F30
6F00
8D00
8A00
ENDCHAR
STARTCHAR iacute_j.loclNLD.fina
ENCODING -1
SWIDTH 479 0
DWIDTH 5 0
BBX 7 14 0 -5
BITMAP
004D0C50
00C86D10
03A0B200
00000000
0D45B000
3F1BA000
6E2F7000
7ECF5000
3E9F2000
02CE0000
1CBB0000
A6B70000
F6E10000
BE500000
ENDCHAR
STARTCHAR ibreve.fina
ENCODING -1
SWIDTH 222 0
DWIDTH 2 0
BBX 6 9 -1 0
BITMAP
030031
2F43E4
09FF90
002100
00D500
03F300
06F000
08D000
08A000
ENDCHAR
STARTCHAR icircumflex.fina
ENCODING -1
SWIDTH 222 0
DWIDTH 2 0
BBX 4 10 0 0
BITMAP
0260
0CE4
6C98
C46A
0000
0D50
3F30
6F00
8D00
8A00
ENDCHAR
STARTCHAR uni0209.fina
ENCODING -1
SWIDTH 222 0
DWIDTH 2 0
BBX 5 10 -1 0
BITMAP
333300
9BAB00
3E4F10
094940
000000
00D500
03F300
06F000
08D000
08A000
ENDCHAR
STARTCHAR idieresis.fina
ENCODING -1
SWIDTH 222 0
DWIDTH 2 0
BBX 4 7 0 0
BITMAP
B87C
1011
0D50
3F30
6F00
8D00
8A00
ENDCHAR
STARTCHAR i.loclTRK.fina
ENCODING -1
SWIDTH 222 0
DWIDTH 2 0
BBX 3 7 0 0
BITMAP
0CC0
0110
0D50
3F30
6F00
8D00
8A00
ENDCHAR
STARTCHAR uni1ECB.fina
ENCODING -1
SWIDTH 222 0
DWIDTH 2 0
BBX 4 10 -1 -3
BITMAP
00AD
0011
00D5
03F3
06F0
08D0
08A0
0000
1E90
0200
ENDCHAR
STARTCHAR igrave.fina
ENCODING -1
SWIDTH 222 0
DWIDTH 2 0
BBX 3 10 0 0
BITMAP
6100
E700
6D00
0930
0000
0D50
3F30
6F00
8D00
8A00
ENDCHAR
STARTCHAR uni1EC9.fina
ENCODING -1
SWIDTH 222 0
DWIDTH 2 0
BBX 4 9 0 0
BITMAP
0DE3
02A8
08E3
0110
0D50
3F30
6F00
8D00
8A00
ENDCHAR
STARTCHAR uni020B.fina
ENCODING -1
SWIDTH 222 0
DWIDTH 2 0
BBX 6 8 -1 0
BITMAP
04DE70
1F76F3
170072
00D500
03F300
06F000
08D000
08A000
ENDCHAR
STARTCHAR imacron.fina
ENCODING -1
SWIDTH 222 0
DWIDTH 2 0
BBX 4 7 0 0
BITMAP
BFF9
1331
0D50
3F30
6F00
8D00
8A00
ENDCHAR
STARTCHAR iogonek.fina
ENCODING -1
SWIDTH 222 0
DWIDTH 2 0
BBX 4 11 -1 -4
BITMAP
00CC
0011
00D5
03F3
06F1
07E0
09C0
1D40
3E00
1DF7
0020
ENDCHAR
STARTCHAR itilde.fina
ENCODING -1
SWIDTH 222 0
DWIDTH 2 0
BBX 6 8 -1 0
BITMAP
0AD495
3B4CB1
000000
00D500
03F300
06F000
08D000
08A000
ENDCHAR
STARTCHAR j.fina
ENCODING -1
SWIDTH 229 0
DWIDTH 3 0
BBX 6 12 -3 -5
BITMAP
0001DA
000020
0001D4
0003F3
0005F1
0006D0
0008B0
005E80
05CF40
2D4E10
7BB900
4EC100
ENDCHAR
STARTCHAR uni0237.fina
ENCODING -1
SWIDTH 229 0
DWIDTH 3 0
BBX 6 10 -3 -5
BITMAP
0001D4
0003F3
0005F1
0006D0
0008B0
005E80
05CF40
2D4E10
7BB900
4EC100
ENDCHAR
STARTCHAR jcircumflex.fina
ENCODING -1
SWIDTH 229 0
DWIDTH 3 0
BBX 7 15 -3 -5
BITMAP
00002600
0000DE30
0007BA70
000D3780
00000000
0001D400
0003F300
0005F100
0006D000
0008B000
005E8000
05CF4000
2D4E1000
7BB90000
4EC10000
ENDCHAR
STARTCHAR k.fina
ENCODING -1
SWIDTH 521 0
DWIDTH 6 0
BBX 6 10 0 0
BITMAP
007E60
02E8A0
09A780
0D6C20
1FB700
4FAAE5
5F97D9
6FB7E3
6F6F91
3D18E7
ENDCHAR
STARTCHAR uni0137.fina
ENCODING -1
SWIDTH 521 0
DWIDTH 6 0
BBX 6 13 0 -3
BITMAP
007E60
02E8A0
09A780
0D6C20
1FB700
4FAAE5
5F97D9
6FB7E3
6F6F91
3D18E7
01B100
02F100
02A000
ENDCHAR
STARTCHAR kgreenlandic.fina
ENCODING -1
SWIDTH 541 0
DWIDTH 6 0
BBX 7 5 0 0
BITMAP
1D5CE400
4FBAA700
6EF43100
7FE94C10
4D3DE700
ENDCHAR
STARTCHAR l.fina
ENCODING -1
SWIDTH 368 0
DWIDTH 4 0
BBX 5 10 0 0
BITMAP
007E50
03E9A0
099690
0D5960
2F3D10
4F7900
5FD200
5F6000
2F6620
08EB10
ENDCHAR
STARTCHAR lacute.fina
ENCODING -1
SWIDTH 368 0
DWIDTH 4 0
BBX 7 14 0 0
BITMAP
00000520
00009F50
0008A200
00000000
007E5000
03E9A000
09969000
0D596000
2F3D1000
4F790000
5FD20000
5F600000
2F662000
08EB1000
ENDCHAR
STARTCHAR lcaron.fina
ENCODING -1
SWIDTH 368 0
DWIDTH 4 0
BBX 7 11 0 0
BITMAP
00000520
007E5E40
03E9AD00
09969000
0D596000
2F3D1000
4F790000
5FD20000
5F600000
2F662000
08EB1000
ENDCHAR
STARTCHAR uni013C.fina
ENCODING -1
SWIDTH 368 0
DWIDTH 4 0
BBX 5 13 0 -3
BITMAP
007E50
03E9A0
099690
0D5960
2F3D10
4F7900
5FD200
5F6000
2F6620
08EB10
076000
0C7000
0B2000
ENDCHAR
STARTCHAR ldot.fina
ENCODING -1
SWIDTH 466 0
DWIDTH 5 0
BBX 6 10 0 0
BITMAP
00D500
04F300
08E000
0BB000
0E9920
2F7E40
5F1000
7F0012
5F55D4
0AED50
ENDCHAR
STARTCHAR uni01C9.fina
ENCODING -1
SWIDTH 555 0
DWIDTH 6 0
BBX 7 15 0 -5
BITMAP
007E5000
03E9A000
0996A000
0D59DE40
2F3E2200
4F7A6C00
5FD29C00
5F60B900
2F57F700
08EBF500
001BF200
01CBD000
08899000
0D7E3000
09E70000
ENDCHAR
STARTCHAR lslash.fina
ENCODING -1
SWIDTH 368 0
DWIDTH 4 0
BBX 7 11 0 0
BITMAP
007DFD10
07D63200
008E6000
05E8A000
0C869000
1F3B4000
4F4C0000
5FC30000
5F700000
2F662000
08EB1000
ENDCHAR
STARTCHAR m.fina
ENCODING -1
SWIDTH 732 0
DWIDTH 8 0
BBX 8 5 0 0
BITMAP
1D4BC2CA
4FADDCEB
6FB9F7C8
7F5AF1E7
4D08A0D5
ENDCHAR
STARTCHAR n.fina
ENCODING -1
SWIDTH 484 0
DWIDTH 5 0
BBX 5 5 0 0
BITMAP
1D4AE0
4FADF0
6EB8D0
7F5AB0
4D0990
ENDCHAR
STARTCHAR nacute.fina
ENCODING -1
SWIDTH 484 0
DWIDTH 5 0
BBX 6 9 0 0
BITMAP
0000C5
0006D1
000B30
000000
1D4AE0
4FADF0
6EB8D0
7F5AB0
4D0990
ENDCHAR
STARTCHAR napostrophe.fina
ENCODING -1
SWIDTH 484 0
DWIDTH 5 0
BBX 5 9 0 0
BITMAP
A30000
F30000
C00000
000000
1D4AE0
4FADF0
6EB8D0
7F5AB0
4D0990
ENDCHAR
STARTCHAR ncaron.fina
ENCODING -1
SWIDTH 484 0
DWIDTH 5 0
BBX 6 10 0 0
BITMAP
005125
00C6A8
009BD1
003E50
000000
1D4AE0
4FADF0
6EB8D0
7F5AB0
4D0990
ENDCHAR
STARTCHAR uni0146.fina
ENCODING -1
SWIDTH 484 0
DWIDTH 5 0
BBX 5 8 0 -3
BITMAP
1D4AE0
4FADF0
6EB8D0
7F5AB0
4D0990
01B100
02F100
02A000
ENDCHAR
STARTCHAR eng.fina
ENCODING -1
SWIDTH 484 0
DWIDTH 5 0
BBX 5 8 0 -3
BITMAP
1D4AE0
4FADE0
6EB8B0
7F5B70
4D1E30
004D00
86B700
4EA000
ENDCHAR
STARTCHAR uni01CC.fina
ENCODING -1
SWIDTH 725 0
DWIDTH 8 0
BBX 9 12 0 -5
BITMAP
0000008E20
0000001100
1D4AE08A00
4FADE0B900
6FB8B0D700
7F5AB8F500
4D07EBF300
00002CF000
0001DBB000
000A6B7000
000F6E1000
000BE50000
ENDCHAR
STARTCHAR ntilde.fina
ENCODING -1
SWIDTH 484 0
DWIDTH 5 0
BBX 6 8 0 0
BITMAP
03E93D
0A68E6
000000
1D4AE0
4FADF0
6EB8D0
7F5AB0
4D0990
ENDCHAR
STARTCHAR o.fina
ENCODING -1
SWIDTH 453 0
DWIDTH 5 0
BBX 5 5 0 0
BITMAP
09EC20
5E4C90
9B09B0
7E4D70
1BFA10
ENDCHAR
STARTCHAR oacute.fina
ENCODING -1
SWIDTH 453 0
DWIDTH 5 0
BBX 5 9 0 0
BITMAP
0006B0
001E60
005800
000000
09EC20
5E4C90
9B09B0
7E4D70
1BFA10
ENDCHAR
STARTCHAR obreve.fina
ENCODING -1
SWIDTH 453 0
DWIDTH 5 0
BBX 6 9 0 0
BITMAP
030031
2F43E3
09FF90
002100
09EC20
5E4C90
9B09B0
7E4D70
1BFA10
ENDCHAR
STARTCHAR ocircumflex.fina
ENCODING -1
SWIDTH 453 0
DWIDTH 5 0
BBX 5 10 0 0
BITMAP
002600
00CE40
06C980
0D3690
000000
09EC20
5E4C90
9B09B0
7E4D70
1BFA10
ENDCHAR
STARTCHAR uni1ED1.fina
ENCODING -1
SWIDTH 453 0
DWIDTH 5 0
BBX 7 10 0 0
BITMAP
00000510
00007B20
01BD3000
0B679000
00000000
09EC2000
5E4C9000
9B09B000
7E4D7000
1BFA1000
ENDCHAR
STARTCHAR uni1ED9.fina
ENCODING -1
SWIDTH 453 0
DWIDTH 5 0
BBX 5 13 0 -3
BITMAP
002600
00CE40
06C980
0D3690
000000
09EC20
5E4C90
9B09B0
7E4D70
1BFA10
000000
08E100
011000
ENDCHAR
STARTCHAR uni1ED3.fina
ENCODING -1
SWIDTH 453 0
DWIDTH 5 0
BBX 5 10 0 0
BITMAP
510000
8C0000
01BD30
0B6790
000000
09EC20
5E4C90
9B09B0
7E4D70
1BFA10
ENDCHAR
STARTCHAR uni1ED5.fina
ENCODING -1
SWIDTH 453 0
DWIDTH 5 0
BBX 7 9 0 0
BITMAP
0000AE30
00002A60
01BE8E20
0BBBA100
0AED3000
5E4C9000
9B09B000
7E4D7000
1BFA1000
ENDCHAR
STARTCHAR uni1ED7.fina
ENCODING -1
SWIDTH 453 0
DWIDTH 5 0
BBX 6 10 0 0
BITMAP
05E7A4
063860
02DE40
0C6790
000000
09EC20
5E4C90
9B09B0
7E4D70
1BFA10
ENDCHAR
STARTCHAR uni020D.fina
ENCODING -1
SWIDTH 453 0
DWIDTH 5 0
BBX 5 10 0 0
BITMAP
334300
ABAB00
3E4E10
094930
000000
09EC20
5E4C90
9B09B0
7E4D70
1BFA10
ENDCHAR
STARTCHAR odieresis.fina
ENCODING -1
SWIDTH 453 0
DWIDTH 5 0
BBX 5 7 0 0
BITMAP
0B87C0
010110
09EC20
5E4C90
9B09B0
7E4D70
1BFA10
ENDCHAR
STARTCHAR uni022B.fina
ENCODING -1
SWIDTH 453 0
DWIDTH 5 0
BBX 5 10 0 0
BITMAP
06FFD0
013320
000000
0B87C0
010110
09EC20
5E4C90
9B09B0
7E4D70
1BFA10
ENDCHAR
STARTCHAR uni0231.fina
ENCODING -1
SWIDTH 453 0
DWIDTH 5 0
BBX 5 10 0 0
BITMAP
06FFD0
013320
000000
00CC00
001100
09EC20
5E4C90
9B09B0
7E4D70
1BFA10
ENDCHAR
STARTCHAR uni1ECD.fina
ENCODING -1
SWIDTH 453 0
DWIDTH 5 0
BBX 5 8 0 -3
BITMAP
09EC20
5E4C90
9B09B0
7E4D70
1BFA10
000000
08E100
011000
ENDCHAR
STARTCHAR ograve.fina
ENCODING -1
SWIDTH 453 0
DWIDTH 5 0
BBX 5 10 0 0
BITMAP
061000
0E7000
06D000
00A300
000000
09EC20
5E4C90
9B09B0
7E4D70
1BFA10
ENDCHAR
STARTCHAR uni1ECF.fina
ENCODING -1
SWIDTH 453 0
DWIDTH 5 0
BBX 5 9 0 0
BITMAP
00DE30
002B70
009E20
001100
09EC20
5E4C90
9B09B0
7E4D70
1BFA10
ENDCHAR
STARTCHAR ohorn.fina
ENCODING -1
SWIDTH 453 0
DWIDTH 5 0
BBX 6 7 0 0
BITMAP
000032
0000C5
09EFC1
5E4CA0
9B09B0
7E4D80
1BFA10
ENDCHAR
STARTCHAR uni1EDB.fina
ENCODING -1
SWIDTH 453 0
DWIDTH 5 0
BBX 6 9 0 0
BITMAP
000A80
003E30
008532
0000C5
09EFC1
5E4CA0
9B09B0
7E4D80
1BFA10
ENDCHAR
STARTCHAR uni1EE3.fina
ENCODING -1
SWIDTH 453 0
DWIDTH 5 0
BBX 6 10 0 -3
BITMAP
000032
0000C5
09EFC1
5E4CA0
9B09B0
7E4D80
1BFA10
000000
08E100
011000
ENDCHAR
STARTCHAR uni1EDD.fina
ENCODING -1
SWIDTH 453 0
DWIDTH 5 0
BBX 6 10 0 0
BITMAP
150000
3F3000
09A000
01C032
0000C5
09EFC1
5E4CA0
9B09B0
7E4D80
1BFA10
ENDCHAR
STARTCHAR uni1EDF.fina
ENCODING -1
SWIDTH 453 0
DWIDTH 5 0
BBX 6 9 0 0
BITMAP
03EC10
003D40
00CD42
0020C5
09EFC1
5E4CA0
9B09B0
7E4D80
1BFA10
ENDCHAR
STARTCHAR uni1EE1.fina
ENCODING -1
SWIDTH 453 0
DWIDTH 5 0
BBX 6 8 0 0
BITMAP
0AB3A0
2B6E82
0000C5
09EFC1
5E4CA0
9B09B0
7E4D80
1BFA10
ENDCHAR
STARTCHAR ohungarumlaut.fina
ENCODING -1
SWIDTH 453 0
DWIDTH 5 0
BBX 6 10 0 0
BITMAP
004242
00E7E7
03E4E1
066660
000000
09EC20
5E4C90
9B09B0
7E4D70
1BFA10
ENDCHAR
STARTCHAR uni020F.fina
ENCODING -1
SWIDTH 453 0
DWIDTH 5 0
BBX 6 8 0 0
BITMAP
05DE70
1F66F2
170072
09EC20
5E4C90
9B09B0
7E4D70
1BFA10
ENDCHAR
STARTCHAR omacron.fina
ENCODING -1
SWIDTH 453 0
DWIDTH 5 0
BBX 5 7 0 0
BITMAP
0BFF80
013310
09EC20
5E4C90
9B09B0
7E4D70
1BFA10
ENDCHAR
STARTCHAR uni01EB.fina
ENCODING -1
SWIDTH 453 0
DWIDTH 5 0
BBX 5 8 0 -3
BITMAP
08EC10
5E4D90
9B09B0
8D1C90
2EFD10
05D100
099000
04DD20
ENDCHAR
STARTCHAR oslash.fina
ENCODING -1
SWIDTH 463 0
DWIDTH 5 0
BBX 5 9 0 -2
BITMAP
001400
004900
09ED30
5EBCB0
9BB7D0
8DCB90
1CFB10
057000
032000
ENDCHAR
ENDFONT
